<?xml version="1.0" encoding="UTF-8"?>
<svg xmlns="http://www.w3.org/2000/svg" xmlns:xlink="http://www.w3.org/1999/xlink" version="1.2" >
<font id="Gill Sans Italic">
<font-face  font-family="Gill Sans" units-per-em="2048" ascent="1415" descent="-471" font-style="italic" font-weight="400" font-stretch="normal" slope="-8" cap-height="1406" x-height="934" underline-position="-154" underline-thickness="102" />
<missing-glyph  horiz-adv-x="2048" d="M256 0 L256 1536 L1792 1536 L1792 0 L256 0 Z M384 128 L1664 128 L1664 1408 L384 1408 L384 128 Z " />
<glyph glyph-name="&amp;#x0;" d="" />
<glyph glyph-name="&amp;#x8;" unicode="&#x8;" d="" />
<glyph glyph-name="&amp;#x1d;" unicode="&#x1d;" d="" />
<glyph glyph-name="&amp;#x9;" unicode="&#x9;" horiz-adv-x="569" d="" />
<glyph glyph-name="&amp;#xa;" unicode="&#xa;" horiz-adv-x="569" d="" />
<glyph glyph-name="&amp;#xd;" unicode="&#xd;" horiz-adv-x="569" d="" />
<glyph glyph-name="space" unicode="&#x20;" horiz-adv-x="569" d="" />
<glyph glyph-name="exclam" unicode="&#x21;" horiz-adv-x="512" d="M193 340 Q219 598 234 921 Q249 1244 272.5 1329.5 Q296 1415 385 1415 Q467 1415 467 1294 Q467 1223 399 928 L268 340 L193 340 Z M86 90 Q86 139 121 174 Q156 209 205 209 Q254 209 289 174 Q324 139 324 90 Q324 41 289 6 Q254 -29 205 -29 Q156 -29 121 6 Q86 41 86 90 Z " />
<glyph glyph-name="quotedbl" unicode="&#x22;" horiz-adv-x="725" d="M508 1466 L705 1466 L705 1227 L657 946 L555 946 L508 1227 L508 1466 Z M176 1466 L373 1466 L373 1227 L326 946 L223 946 L176 1227 L176 1466 Z " />
<glyph glyph-name="numbersign" unicode="&#x23;" horiz-adv-x="1196" d="M4 871 L4 994 L330 994 L416 1397 L537 1397 L451 994 L872 994 L956 1397 L1079 1397 L993 994 L1192 994 L1192 871 L969 871 L893 500 L1192 500 L1192 377 L868 377 L784 -22 L662 -22 L748 377 L324 377 L240 -22 L117 -22 L201 377 L4 377 L4 500 L227 500 L305 871 L4 871 Z M848 871 L426 871 L348 500 L772 500 L848 871 Z " />
<glyph glyph-name="dollar" unicode="&#x24;" horiz-adv-x="1024" d="M989 1237 L963 1053 Q838 1133 696 1161 L635 723 Q946 560 946 342 Q946 203 834 98.5 Q722 -6 530 -18 L502 -225 L350 -225 L379 -18 Q201 7 82 92 L111 293 Q237 206 406 162 L465 600 Q302 691 230 778.5 Q158 866 158 979 Q158 1118 270.5 1219.5 Q383 1321 569 1333 L580 1415 L731 1415 L721 1333 Q861 1317 989 1237 Z M496 809 L545 1167 Q449 1152 395.5 1107 Q342 1062 342 1001 Q342 939 380 897 Q418 855 496 809 Z M606 520 L553 150 Q648 159 706 209.5 Q764 260 764 326 Q764 435 606 520 Z " />
<glyph glyph-name="percent" unicode="&#x25;" horiz-adv-x="1450" d="M430 1415 Q558 1415 649.5 1324.5 Q741 1234 741 1104 Q741 979 648 886 Q555 793 430 793 Q301 793 210 885.5 Q119 978 119 1104 Q119 1235 209 1325 Q299 1415 430 1415 Z M430 942 Q497 942 544.5 990 Q592 1038 592 1104 Q592 1172 544.5 1219 Q497 1266 430 1266 Q362 1266 315 1219.5 Q268 1173 268 1104 Q268 1041 317 991.5 Q366 942 430 942 Z M1292 1415 L375 -18 L219 -18 L1139 1415 L1292 1415 Z M1081 606 Q1210 606 1301.5 515.5 Q1393 425 1393 295 Q1393 170 1300 77 Q1207 -16 1081 -16 Q952 -16 861 76.5 Q770 169 770 295 Q770 426 860 516 Q950 606 1081 606 Z M1081 133 Q1149 133 1196 181 Q1243 229 1243 295 Q1243 363 1195.5 410 Q1148 457 1081 457 Q1013 457 966.5 410.5 Q920 364 920 295 Q920 232 969 182.5 Q1018 133 1081 133 Z " />
<glyph glyph-name="ampersand" unicode="&#x26;" horiz-adv-x="1409" d="M1157 702 L1337 702 Q1213 397 1053 244 Q1174 129 1305 129 Q1334 129 1350 135 L1282 -10 Q1266 -18 1233 -18 Q1166 -18 1080.5 24.5 Q995 67 934 135 Q728 -18 502 -18 Q317 -18 210.5 91.5 Q104 201 104 373 Q104 492 191 605.5 Q278 719 430 786 Q352 938 352 1081 Q352 1222 446 1318.5 Q540 1415 678 1415 Q791 1415 870.5 1332.5 Q950 1250 950 1130 Q950 896 653 729 Q737 581 934 352 Q1076 495 1157 702 Z M575 866 Q668 913 720 982.5 Q772 1052 772 1120 Q772 1182 738.5 1221 Q705 1260 651 1260 Q596 1260 557 1206.5 Q518 1153 518 1075 Q518 986 575 866 Z M510 643 Q293 522 293 371 Q293 267 363.5 200 Q434 133 545 133 Q666 133 815 242 Q625 459 510 643 Z " />
<glyph glyph-name="quotesingle" unicode="&#x27;" horiz-adv-x="385" d="M176 1466 L373 1466 L373 1227 L326 946 L223 946 L176 1227 L176 1466 Z " />
<glyph glyph-name="parenleft" unicode="&#x28;" horiz-adv-x="598" d="M586 1415 L684 1415 Q590 1302 472.5 1062 Q355 822 314.5 563 Q274 304 274 164 Q274 -191 401 -471 L315 -471 Q222 -295 165.5 -81.5 Q109 132 109 311 Q109 583 218.5 841 Q328 1099 586 1415 Z " />
<glyph glyph-name="parenright" unicode="&#x29;" horiz-adv-x="598" d="M-14 -471 L-113 -471 Q-18 -358 99 -118 Q216 122 256.5 381 Q297 640 297 780 Q297 1135 170 1415 L256 1415 Q349 1239 406 1025.5 Q463 812 463 633 Q463 361 353 103 Q243 -155 -14 -471 Z " />
<glyph glyph-name="asterisk" unicode="&#x2a;" horiz-adv-x="918" d="M596 1362 L545 1102 Q573 1096 586 1081 L758 1245 Q809 1296 852 1296 Q880 1296 899 1275 Q918 1254 918 1223 Q918 1167 852 1143 L598 1051 Q602 1039 602 1025 Q602 1013 598 1004 L805 928 Q918 886 918 825 Q918 802 897 780 Q876 758 852 758 Q806 758 733 829 L586 975 Q565 954 545 954 L592 702 Q596 680 596 659 Q596 569 528 569 Q458 569 458 666 Q458 692 465 723 L514 954 Q496 955 475 975 L315 827 Q241 760 197 760 Q174 760 154.5 781 Q135 802 135 827 Q135 892 246 930 L461 1004 Q458 1016 458 1029 Q458 1041 461 1051 L229 1137 Q139 1169 139 1219 Q139 1252 160.5 1275 Q182 1298 211 1298 Q244 1298 307 1239 L475 1081 Q485 1097 514 1102 L467 1346 Q461 1375 461 1399 Q461 1487 528 1487 Q600 1487 600 1399 Q600 1380 596 1362 Z " />
<glyph glyph-name="plus" unicode="&#x2b;" horiz-adv-x="1196" d="M545 1206 L713 1206 L713 807 L1112 807 L1112 639 L713 639 L713 240 L545 240 L545 639 L145 639 L145 807 L545 807 L545 1206 Z " />
<glyph glyph-name="comma" unicode="&#x2c;" horiz-adv-x="406" d="M-49 -295 L-37 -205 Q98 -161 98 -29 Q18 7 18 76 Q18 129 54.5 163 Q91 197 147 197 Q202 197 239 150.5 Q276 104 276 35 Q276 -78 189 -169 Q102 -260 -49 -295 Z " />
<glyph glyph-name="hyphen" unicode="&#x2d;" horiz-adv-x="512" d="M512 543 L487 369 L0 369 L25 543 L512 543 Z " />
<glyph glyph-name="period" unicode="&#x2e;" horiz-adv-x="406" d="M33 90 Q33 139 68 174 Q103 209 152 209 Q200 209 235 174 Q270 139 270 90 Q270 41 235 6 Q200 -29 152 -29 Q103 -29 68 6 Q33 41 33 90 Z " />
<glyph glyph-name="slash" unicode="&#x2f;" horiz-adv-x="575" d="M57 -18 L459 1415 L602 1415 L201 -18 L57 -18 Z " />
<glyph glyph-name="zero" unicode="0" horiz-adv-x="1067" d="M668 1415 Q840 1415 933 1286 Q1026 1157 1026 909 Q1026 541 872.5 261.5 Q719 -18 473 -18 Q104 -18 104 479 Q104 827 255 1121 Q406 1415 668 1415 Z M471 147 Q609 147 723.5 386.5 Q838 626 838 932 Q838 1249 659 1249 Q528 1249 412.5 1010 Q297 771 297 483 Q297 147 471 147 Z " />
<glyph glyph-name="one" unicode="1" horiz-adv-x="1067" d="M766 1415 L545 0 L360 0 L584 1415 L766 1415 Z " />
<glyph glyph-name="two" unicode="2" horiz-adv-x="1067" d="M244 1120 L270 1319 Q431 1415 586 1415 Q737 1415 830.5 1323 Q924 1231 924 1081 Q924 930 791.5 720.5 Q659 511 375 172 L907 172 L883 0 L35 0 Q443 499 594 729.5 Q745 960 745 1067 Q745 1148 693 1194.5 Q641 1241 549 1241 Q408 1241 244 1120 Z " />
<glyph glyph-name="three" unicode="3" horiz-adv-x="1067" d="M264 1161 L291 1354 Q433 1415 580 1415 Q749 1415 851.5 1316 Q954 1217 954 1053 Q954 820 682 719 Q870 639 870 403 Q870 240 742.5 111 Q615 -18 385 -18 Q221 -18 49 59 L74 225 Q228 147 377 147 Q512 147 595 218 Q678 289 678 403 Q678 516 602 580.5 Q526 645 424 637 L446 803 Q597 814 679.5 887 Q762 960 762 1051 Q762 1140 702 1194.5 Q642 1249 543 1249 Q400 1249 264 1161 Z " />
<glyph glyph-name="four" unicode="4" horiz-adv-x="1067" d="M932 1415 L803 580 L1004 580 L983 430 L776 430 L709 0 L530 0 L604 430 L80 430 L80 510 L821 1415 L932 1415 Z M315 580 L627 580 L709 1065 L315 580 Z " />
<glyph glyph-name="five" unicode="5" horiz-adv-x="1067" d="M977 1397 L946 1225 L545 1225 L489 877 Q678 866 783.5 756 Q889 646 889 471 Q889 255 742.5 118.5 Q596 -18 365 -18 Q169 -18 31 86 L94 248 Q225 147 375 147 Q516 147 606 237.5 Q696 328 696 469 Q696 579 617.5 645 Q539 711 406 711 Q356 711 283 694 L408 1397 L977 1397 Z " />
<glyph glyph-name="six" unicode="6" horiz-adv-x="1067" d="M848 1397 L446 811 L451 807 Q512 854 631 854 Q781 854 871 758.5 Q961 663 961 504 Q961 300 813.5 141 Q666 -18 479 -18 Q308 -18 209.5 95.5 Q111 209 111 408 Q111 507 165.5 642.5 Q220 778 303 899 L643 1397 L848 1397 Z M483 156 Q597 156 687.5 257 Q778 358 778 489 Q778 577 725 632.5 Q672 688 590 688 Q470 688 381.5 598 Q293 508 293 387 Q293 285 346.5 220.5 Q400 156 483 156 Z " />
<glyph glyph-name="seven" unicode="7" horiz-adv-x="1067" d="M1081 1397 L428 -18 L238 -18 L811 1225 L248 1225 L272 1397 L1081 1397 Z " />
<glyph glyph-name="eight" unicode="8" horiz-adv-x="1067" d="M770 729 Q954 651 954 432 Q954 243 815.5 112.5 Q677 -18 475 -18 Q299 -18 190.5 89 Q82 196 82 369 Q82 661 381 752 Q223 845 223 1026 Q223 1185 343 1300 Q463 1415 629 1415 Q800 1415 904 1317 Q1008 1219 1008 1057 Q1008 947 945.5 859 Q883 771 770 729 Z M596 817 Q689 817 757 887.5 Q825 958 825 1055 Q825 1141 772 1195 Q719 1249 635 1249 Q540 1249 473 1179.5 Q406 1110 406 1014 Q406 926 458.5 871.5 Q511 817 596 817 Z M487 147 Q604 147 688 230.5 Q772 314 772 428 Q772 532 710.5 591.5 Q649 651 541 651 Q430 651 347 565.5 Q264 480 264 367 Q264 272 327.5 209.5 Q391 147 487 147 Z " />
<glyph glyph-name="nine" unicode="9" horiz-adv-x="1067" d="M264 -18 L678 584 L674 588 Q589 539 496 539 Q349 539 254.5 632.5 Q160 726 160 870 Q160 1091 306 1253 Q452 1415 649 1415 Q807 1415 909.5 1300 Q1012 1185 1012 1008 Q1012 874 964 754 Q916 634 813 483 L469 -18 L264 -18 Z M541 705 Q648 705 735.5 796 Q823 887 823 999 Q823 1107 771.5 1171 Q720 1235 633 1235 Q520 1235 434 1135 Q348 1035 348 903 Q348 705 541 705 Z " />
<glyph glyph-name="colon" unicode="&#x3a;" horiz-adv-x="406" d="M147 829 Q147 878 182 913 Q217 948 266 948 Q315 948 350 913 Q385 878 385 829 Q385 781 350 746 Q315 711 266 711 Q217 711 182 746 Q147 781 147 829 Z M33 90 Q33 139 68 174 Q103 209 152 209 Q200 209 235 174 Q270 139 270 90 Q270 41 235 6 Q200 -29 152 -29 Q103 -29 68 6 Q33 41 33 90 Z " />
<glyph glyph-name="semicolon" unicode="&#x3b;" horiz-adv-x="406" d="M147 829 Q147 878 182 913 Q217 948 266 948 Q315 948 350 913 Q385 878 385 829 Q385 781 350 746 Q315 711 266 711 Q217 711 182 746 Q147 781 147 829 Z M-20 -295 L-8 -205 Q127 -161 127 -29 Q47 7 47 76 Q47 129 83 163 Q119 197 176 197 Q231 197 268 150.5 Q305 104 305 35 Q305 -78 218 -169 Q131 -260 -20 -295 Z " />
<glyph glyph-name="less" unicode="&#x3c;" horiz-adv-x="1196" d="M143 641 L143 809 L1114 1223 L1114 1044 L344 725 L1114 406 L1114 227 L143 641 Z " />
<glyph glyph-name="equal" unicode="&#x3d;" horiz-adv-x="1196" d="M145 1030 L1112 1030 L1112 862 L145 862 L145 1030 Z M145 584 L1112 584 L1112 416 L145 416 L145 584 Z " />
<glyph glyph-name="greater" unicode="&#x3e;" horiz-adv-x="1196" d="M1114 641 L143 227 L143 406 L913 725 L143 1044 L143 1223 L1114 809 L1114 641 Z " />
<glyph glyph-name="question" unicode="&#x3f;" horiz-adv-x="725" d="M180 1135 L209 1337 Q330 1415 438 1415 Q573 1415 655 1328.5 Q737 1242 737 1100 Q737 1033 707 961 Q677 889 547.5 749.5 Q418 610 375 517.5 Q332 425 322 340 L209 340 Q209 457 250.5 579 Q292 701 406 837.5 Q520 974 539.5 1017 Q559 1060 559 1096 Q559 1165 517.5 1207 Q476 1249 408 1249 Q306 1249 180 1135 Z M123 90 Q123 139 158 174 Q193 209 242 209 Q291 209 325.5 174 Q360 139 360 90 Q360 41 325.5 6 Q291 -29 242 -29 Q193 -29 158 6 Q123 41 123 90 Z " />
<glyph glyph-name="at" unicode="&#x40;" horiz-adv-x="2068" d="M1825 18 L2009 18 Q1736 -430 1122 -430 Q651 -430 381 -189.5 Q111 51 111 469 Q111 883 374 1188 Q637 1493 1100 1493 Q1472 1493 1715 1271.5 Q1958 1050 1958 713 Q1958 439 1772 217.5 Q1586 -4 1360 -4 Q1161 -4 1161 164 Q1016 -2 858 -2 Q701 -2 596.5 126 Q492 254 492 451 Q492 690 654.5 886.5 Q817 1083 1012 1083 Q1200 1083 1313 899 L1348 1055 L1528 1055 L1360 283 Q1354 258 1354 238 Q1354 160 1425 160 Q1519 160 1663.5 318 Q1808 476 1808 715 Q1808 985 1604 1166.5 Q1400 1348 1092 1348 Q734 1348 497 1102 Q260 856 260 485 Q260 122 487.5 -80.5 Q715 -283 1124 -283 Q1605 -283 1825 18 Z M1024 940 Q894 940 787 784.5 Q680 629 680 436 Q680 305 741 224 Q802 143 899 143 Q1030 143 1142.5 300.5 Q1255 458 1255 647 Q1255 781 1192 860.5 Q1129 940 1024 940 Z " />
<glyph glyph-name="A" unicode="A" horiz-adv-x="1067" d="M721 1405 L993 0 L821 0 L737 438 L299 438 L115 0 L-72 0 L545 1405 L721 1405 Z M360 586 L709 586 L602 1159 L360 586 Z " />
<glyph glyph-name="B" unicode="B" horiz-adv-x="1044" d="M274 1397 L479 1397 Q694 1397 808 1302 Q922 1207 922 1042 Q922 860 729 766 Q1018 666 1018 391 Q1018 217 878 108.5 Q738 0 514 0 L80 0 L274 1397 Z M436 1237 L381 838 L481 838 Q596 838 664.5 895.5 Q733 953 733 1047 Q733 1240 494 1240 Q467 1240 436 1237 Z M358 682 L285 156 L496 156 Q657 156 743 219 Q829 282 829 399 Q829 518 730 600 Q631 682 494 682 L358 682 Z " />
<glyph glyph-name="C" unicode="C" horiz-adv-x="1130" d="M1188 1415 L1151 1239 L1049 1239 Q687 1239 493 1045 Q299 851 299 575 Q299 385 399 271.5 Q499 158 666 158 Q752 158 868.5 204.5 Q985 251 1083 330 L1053 104 Q836 -18 639 -18 Q402 -18 251 144.5 Q100 307 100 563 Q100 939 361.5 1177 Q623 1415 1055 1415 L1188 1415 Z " />
<glyph glyph-name="D" unicode="D" horiz-adv-x="1343" d="M80 0 L279 1397 L444 1397 Q832 1397 1048 1210.5 Q1264 1024 1264 696 Q1264 380 1074 190 Q884 0 535 0 L80 0 Z M442 1229 L293 166 L461 166 Q700 166 815 223.5 Q930 281 997.5 405 Q1065 529 1065 702 Q1065 950 897 1089.5 Q729 1229 506 1229 L442 1229 Z " />
<glyph glyph-name="E" unicode="E" horiz-adv-x="1044" d="M1020 1397 L997 1231 L438 1231 L377 793 L870 793 L848 627 L352 627 L285 166 L1020 166 L995 0 L78 0 L281 1397 L1020 1397 Z " />
<glyph glyph-name="F" unicode="F" horiz-adv-x="854" d="M932 1397 L909 1231 L424 1231 L362 793 L809 793 L784 627 L338 627 L250 0 L63 0 L266 1397 L932 1397 Z " />
<glyph glyph-name="G" unicode="G" horiz-adv-x="1237" d="M1182 606 L1110 104 Q883 -18 659 -18 Q390 -18 231 158.5 Q72 335 72 596 Q72 928 321.5 1171.5 Q571 1415 1030 1415 Q1120 1415 1272 1397 L1249 1229 Q1084 1247 1001 1247 Q658 1247 464 1053.5 Q270 860 270 602 Q270 402 383 276 Q496 150 674 150 Q807 150 942 217 L975 459 L776 459 L797 606 L1182 606 Z " />
<glyph glyph-name="H" unicode="H" horiz-adv-x="1430" d="M1407 1397 L1210 0 L1018 0 L1106 618 L350 618 L264 0 L72 0 L268 1397 L459 1397 L375 793 L1130 793 L1214 1397 L1407 1397 Z " />
<glyph glyph-name="I" unicode="I" horiz-adv-x="492" d="M469 1397 L272 0 L80 0 L276 1397 L469 1397 Z " />
<glyph glyph-name="J" unicode="J" horiz-adv-x="492" d="M475 1397 L264 -102 Q212 -471 -96 -471 Q-162 -471 -229 -459 L-272 -287 Q-197 -303 -137 -303 Q-33 -303 16.5 -251.5 Q66 -200 82 -90 L291 1397 L475 1397 Z " />
<glyph glyph-name="K" unicode="K" horiz-adv-x="1153" d="M1174 1397 L530 752 L1155 0 L936 0 L360 731 L258 0 L70 0 L266 1397 L455 1397 L362 799 L367 795 L961 1397 L1174 1397 Z " />
<glyph glyph-name="L" unicode="L" horiz-adv-x="854" d="M453 1397 L270 156 L844 156 L821 0 L72 0 L268 1397 L453 1397 Z " />
<glyph glyph-name="M" unicode="M" horiz-adv-x="1665" d="M1522 1397 L1522 0 L1337 0 L1336 1064 L772 0 L526 1069 L182 0 L-2 0 L459 1397 L618 1397 L836 451 L1337 1397 L1522 1397 Z " />
<glyph glyph-name="N" unicode="N" horiz-adv-x="1409" d="M1389 1397 L1192 0 L1092 0 L397 1020 L254 0 L80 0 L276 1397 L371 1397 L1069 369 L1214 1397 L1389 1397 Z " />
<glyph glyph-name="O" unicode="O" horiz-adv-x="1343" d="M782 1415 Q1003 1415 1139.5 1253.5 Q1276 1092 1276 829 Q1276 465 1077 223.5 Q878 -18 602 -18 Q384 -18 244 147 Q104 312 104 571 Q104 894 294.5 1154.5 Q485 1415 782 1415 Z M606 150 Q800 150 943.5 358.5 Q1087 567 1087 862 Q1087 1042 1004 1144.5 Q921 1247 780 1247 Q564 1247 428.5 1031.5 Q293 816 293 545 Q293 362 378 256 Q463 150 606 150 Z " />
<glyph glyph-name="P" unicode="P" horiz-adv-x="918" d="M252 1397 L492 1397 Q708 1397 826 1297 Q944 1197 944 1001 Q944 840 827 715 Q710 590 498 590 L330 590 L248 0 L55 0 L252 1397 Z M420 1231 L354 756 L489 756 Q615 756 685.5 828.5 Q756 901 756 1008 Q756 1109 690 1170 Q624 1231 502 1231 L420 1231 Z " />
<glyph glyph-name="Q" unicode="Q" horiz-adv-x="1343" d="M1276 -31 L1307 -31 Q1297 -199 1207.5 -299 Q1118 -399 971 -399 Q815 -399 692 -298 Q569 -197 508 0 Q315 40 209.5 199 Q104 358 104 596 Q104 900 293.5 1157.5 Q483 1415 776 1415 Q1008 1415 1142 1258 Q1276 1101 1276 827 Q1276 518 1126.5 292 Q977 66 715 0 Q749 -110 830 -170.5 Q911 -231 1010 -231 Q1089 -231 1165 -180 Q1241 -129 1276 -31 Z M618 168 Q809 168 948 366 Q1087 564 1087 852 Q1087 1041 1007 1144 Q927 1247 782 1247 Q559 1247 426 1025.5 Q293 804 293 551 Q293 364 377 266 Q461 168 618 168 Z " />
<glyph glyph-name="R" unicode="R" horiz-adv-x="1087" d="M270 1397 L522 1397 Q799 1397 898 1287 Q997 1177 997 1018 Q997 895 922 803.5 Q847 712 711 676 Q773 636 827 522 L1077 0 L877 0 L717 332 Q641 489 588 552.5 Q535 616 426 616 L352 616 L266 0 L74 0 L270 1397 Z M438 1231 L377 782 L475 782 Q634 782 716.5 848.5 Q799 915 799 1028 Q799 1231 547 1231 L438 1231 Z " />
<glyph glyph-name="S" unicode="S" horiz-adv-x="938" d="M899 1360 L872 1169 Q760 1243 627 1243 Q515 1243 448 1185 Q381 1127 381 1032 Q381 985 413 933 Q445 881 600 756.5 Q755 632 804.5 538 Q854 444 854 350 Q854 200 741 91 Q628 -18 440 -18 Q273 -18 102 82 L131 287 Q322 154 459 154 Q533 154 599.5 202.5 Q666 251 666 334 Q666 387 632.5 444 Q599 501 443.5 628 Q288 755 240.5 848.5 Q193 942 193 1034 Q193 1196 327 1305.5 Q461 1415 643 1415 Q770 1415 899 1360 Z " />
<glyph glyph-name="T" unicode="T" horiz-adv-x="1044" d="M1141 1397 L1116 1223 L723 1223 L551 0 L358 0 L530 1223 L137 1223 L162 1397 L1141 1397 Z " />
<glyph glyph-name="U" unicode="U" horiz-adv-x="1300" d="M1311 1397 L1190 535 Q1152 263 1003 122.5 Q854 -18 608 -18 Q390 -18 259.5 100 Q129 218 129 415 Q129 456 135 498 L262 1397 L446 1397 L317 483 Q313 454 313 427 Q313 298 398 224 Q483 150 618 150 Q735 150 824.5 205.5 Q914 261 948 344 Q982 427 1005 594 L1118 1397 L1311 1397 Z " />
<glyph glyph-name="V" unicode="V" horiz-adv-x="1044" d="M1157 1397 L475 -12 L403 -12 L131 1397 L311 1397 L498 422 L965 1397 L1157 1397 Z " />
<glyph glyph-name="W" unicode="W" horiz-adv-x="1898" d="M2019 1397 L1343 -12 L1272 -12 L1001 979 L526 -12 L453 -12 L123 1397 L299 1397 L530 408 L1001 1397 L1073 1397 L1346 391 L1825 1397 L2019 1397 Z " />
<glyph glyph-name="X" unicode="X" horiz-adv-x="1366" d="M1440 1397 L842 719 L1296 0 L1077 0 L715 575 L215 0 L-37 0 L612 739 L199 1397 L410 1397 L741 883 L1196 1397 L1440 1397 Z " />
<glyph glyph-name="Y" unicode="Y" horiz-adv-x="1004" d="M1141 1397 L651 696 L553 0 L369 0 L467 696 L139 1397 L334 1397 L571 885 L928 1397 L1141 1397 Z " />
<glyph glyph-name="Z" unicode="Z" horiz-adv-x="1194" d="M1325 1397 L307 174 L1135 174 L1110 0 L-66 0 L948 1223 L154 1223 L178 1397 L1325 1397 Z " />
<glyph glyph-name="bracketleft" unicode="&#x5b;" horiz-adv-x="682" d="M770 1397 L752 1262 L487 1262 L266 -317 L528 -317 L510 -453 L78 -453 L338 1397 L770 1397 Z " />
<glyph glyph-name="backslash" unicode="&#x5c;" horiz-adv-x="575" d="M571 -17 L428 -17 L27 1415 L170 1415 L571 -17 Z " />
<glyph glyph-name="bracketright" unicode="&#x5d;" horiz-adv-x="682" d="M-98 -453 L-80 -317 L184 -317 L406 1262 L143 1262 L162 1397 L594 1397 L334 -453 L-98 -453 Z " />
<glyph glyph-name="asciicircum" unicode="&#x5e;" horiz-adv-x="961" d="M272 596 L88 596 L442 1397 L588 1397 L942 596 L760 596 L514 1194 L272 596 Z " />
<glyph glyph-name="underscore" unicode="&#x5f;" horiz-adv-x="1024" d="M-12 -154 L1036 -154 L1036 -256 L-12 -256 L-12 -154 Z " />
<glyph glyph-name="grave" unicode="&#x60;" horiz-adv-x="682" d="M412 1372 L551 1073 L436 1073 L205 1372 L412 1372 Z " />
<glyph glyph-name="a" unicode="a" horiz-adv-x="961" d="M913 920 L784 0 L610 0 L627 106 L623 111 Q502 -18 375 -18 Q249 -18 160.5 88.5 Q72 195 72 346 Q72 608 236.5 778 Q401 948 696 948 Q816 948 913 920 Z M647 266 L723 797 Q695 799 669 799 Q464 799 357 668.5 Q250 538 250 377 Q250 266 301.5 195.5 Q353 125 432 125 Q495 125 570 187.5 Q645 250 647 266 Z " />
<glyph glyph-name="b" unicode="b" horiz-adv-x="961" d="M430 1397 L356 846 Q456 948 580 948 Q722 948 812.5 831.5 Q903 715 903 528 Q903 284 749 127.5 Q595 -29 305 -29 Q162 -29 61 -14 L252 1397 L430 1397 Z M250 115 L346 115 Q522 115 623.5 228 Q725 341 725 532 Q725 657 672 727 Q619 797 526 797 Q467 797 402 762.5 Q337 728 330 680 L250 115 Z " />
<glyph glyph-name="c" unicode="c" horiz-adv-x="788" d="M731 205 L711 37 Q591 -29 455 -29 Q270 -29 159.5 86.5 Q49 202 49 395 Q49 628 216.5 788 Q384 948 645 948 Q711 948 803 932 L780 778 Q715 793 647 793 Q466 793 346.5 677 Q227 561 227 406 Q227 276 294.5 201.5 Q362 127 479 127 Q603 127 731 205 Z " />
<glyph glyph-name="d" unicode="d" horiz-adv-x="961" d="M979 1397 L782 0 Q681 -29 547 -29 Q314 -29 188.5 82 Q63 193 63 397 Q63 597 226 772.5 Q389 948 668 948 L741 948 L805 1397 L979 1397 Z M627 119 L721 803 L676 803 Q481 803 361.5 684.5 Q242 566 242 401 Q242 264 321 189.5 Q400 115 547 115 Q600 115 627 119 Z " />
<glyph glyph-name="e" unicode="e" horiz-adv-x="897" d="M795 240 L770 74 Q630 -29 463 -29 Q289 -29 183.5 92.5 Q78 214 78 416 Q78 641 204.5 794.5 Q331 948 514 948 Q654 948 747 840.5 Q840 733 840 563 Q840 521 834 477 L260 477 Q252 431 252 389 Q252 262 321.5 188.5 Q391 115 496 115 Q624 115 795 240 Z M287 598 L672 598 Q672 694 628.5 749.5 Q585 805 506 805 Q356 805 287 598 Z " />
<glyph glyph-name="f" unicode="f" horiz-adv-x="555" d="M588 920 L565 766 L379 766 L231 -387 L61 -387 L209 766 L61 766 L84 920 L229 920 Q246 1157 361.5 1286 Q477 1415 672 1415 Q774 1415 895 1372 L870 1200 Q776 1251 690 1251 Q432 1251 401 920 L588 920 Z " />
<glyph glyph-name="g" unicode="g" horiz-adv-x="874" d="M911 920 L893 784 L715 784 Q776 698 776 602 Q776 492 726.5 408 Q677 324 605.5 289.5 Q534 255 421 234.5 Q308 214 278 193.5 Q248 173 248 145 Q248 124 274 106.5 Q300 89 461.5 50 Q623 11 687.5 -54.5 Q752 -120 752 -209 Q752 -321 646 -396 Q540 -471 377 -471 Q202 -471 89.5 -403 Q-23 -335 -23 -233 Q-23 -100 242 -43 Q82 16 82 119 Q82 172 131 218.5 Q180 265 264 289 Q98 368 98 553 Q98 708 198.5 814 Q299 920 440 920 L911 920 Z M430 379 Q509 379 559.5 443.5 Q610 508 610 594 Q610 675 563.5 726.5 Q517 778 446 778 Q376 778 320 713 Q264 648 264 565 Q264 484 311 431.5 Q358 379 430 379 Z M391 -340 Q480 -340 533 -308 Q586 -276 586 -225 Q586 -175 499 -134.5 Q412 -94 381 -94 Q342 -94 242.5 -135.5 Q143 -177 143 -229 Q143 -280 209.5 -310 Q276 -340 391 -340 Z " />
<glyph glyph-name="h" unicode="h" horiz-adv-x="961" d="M414 1397 L326 772 L330 768 Q485 948 649 948 Q750 948 806.5 879.5 Q863 811 863 695 Q863 662 858 627 L770 0 L596 0 L684 637 Q687 661 687 682 Q687 817 580 817 Q502 817 403 716.5 Q304 616 301 598 L217 0 L43 0 L240 1397 L414 1397 Z " />
<glyph glyph-name="i" unicode="i" horiz-adv-x="385" d="M195 1208 Q195 1250 224.5 1279.5 Q254 1309 295 1309 Q336 1309 365.5 1279.5 Q395 1250 395 1208 Q395 1167 365.5 1137.5 Q336 1108 295 1108 Q254 1108 224.5 1137.5 Q195 1167 195 1208 Z M350 920 L221 0 L47 0 L176 920 L350 920 Z " />
<glyph glyph-name="j" unicode="j" horiz-adv-x="385" d="M293 1309 Q334 1309 363.5 1279.5 Q393 1250 393 1208 Q393 1167 363.5 1137.5 Q334 1108 293 1108 Q252 1108 222.5 1137.5 Q193 1167 193 1208 Q193 1250 222.5 1279.5 Q252 1309 293 1309 Z M41 -137 L176 920 L350 920 L209 -186 Q191 -325 107 -398 Q23 -471 -109 -471 Q-166 -471 -211 -453 L-188 -299 Q-145 -309 -111 -309 Q19 -309 41 -137 Z " />
<glyph glyph-name="k" unicode="k" horiz-adv-x="938" d="M418 1397 L292 516 L682 920 L903 920 L481 485 L932 0 L711 0 L287 467 L221 0 L49 0 L244 1397 L418 1397 Z " />
<glyph glyph-name="l" unicode="l" horiz-adv-x="385" d="M418 1397 L221 0 L47 0 L244 1397 L418 1397 Z " />
<glyph glyph-name="m" unicode="m" horiz-adv-x="1516" d="M350 920 L326 760 Q487 934 647 934 Q825 934 856 727 Q1024 934 1200 934 Q1298 934 1357.5 867 Q1417 800 1417 679 Q1417 641 1411 596 L1327 0 L1153 0 L1239 604 Q1244 635 1244 662 Q1244 797 1145 797 Q1120 797 1090 786.5 Q1060 776 1023 752 Q986 728 922.5 665 Q859 602 856 584 L772 0 L598 0 L680 582 Q687 625 687 659 Q687 797 578 797 Q509 797 406.5 700.5 Q304 604 301 584 L219 0 L45 0 L176 920 L350 920 Z " />
<glyph glyph-name="n" unicode="n" horiz-adv-x="961" d="M365 920 L342 758 L346 754 Q493 934 651 934 Q758 934 817 855.5 Q876 777 876 653 Q876 618 870 580 L782 0 L610 0 L694 586 Q699 617 699 643 Q699 715 669 753 Q639 791 594 791 Q568 791 535.5 778 Q503 765 466 738 Q429 711 374.5 656 Q320 601 317 586 L233 0 L61 0 L190 920 L365 920 Z " />
<glyph glyph-name="o" unicode="o" horiz-adv-x="918" d="M514 948 Q669 948 762.5 838.5 Q856 729 856 547 Q856 295 730 133 Q604 -29 420 -29 Q258 -29 166 80 Q74 189 74 383 Q74 624 201 786 Q328 948 514 948 Z M514 811 Q407 811 329.5 678.5 Q252 546 252 365 Q252 257 298.5 189 Q345 121 414 121 Q523 121 600.5 245 Q678 369 678 557 Q678 673 633 742 Q588 811 514 811 Z " />
<glyph glyph-name="p" unicode="p" horiz-adv-x="1004" d="M428 1153 L395 920 Q465 948 551 948 Q713 948 822.5 826 Q932 704 932 520 Q932 301 783.5 136 Q635 -29 377 -29 L262 -29 L201 -471 L27 -471 L190 692 Q134 652 88.5 588 Q43 524 37 524 Q29 524 29 537 Q29 583 81.5 669.5 Q134 756 207 815 L254 1153 L428 1153 Z M377 791 L283 119 L367 119 Q544 119 649 238.5 Q754 358 754 520 Q754 660 680 738.5 Q606 817 492 817 Q431 817 377 791 Z " />
<glyph glyph-name="q" unicode="q" horiz-adv-x="961" d="M909 948 L711 -471 L537 -471 L606 27 Q493 -29 416 -29 Q259 -29 161 85.5 Q63 200 63 385 Q63 626 233.5 787 Q404 948 715 948 L909 948 Z M625 156 L715 805 Q492 816 367 697.5 Q242 579 242 375 Q242 257 307.5 186 Q373 115 481 115 Q538 115 625 156 Z " />
<glyph glyph-name="r" unicode="r" horiz-adv-x="641" d="M379 920 L352 745 L356 741 Q438 858 486 896 Q534 934 600 934 Q641 934 676 920 L676 723 Q621 754 569 754 Q518 754 478 728.5 Q438 703 381 619.5 Q324 536 322 518 L250 0 L76 0 L205 920 L379 920 Z " />
<glyph glyph-name="s" unicode="s" horiz-adv-x="725" d="M662 852 L662 670 Q503 791 385 791 Q332 791 296 762.5 Q260 734 260 694 Q260 668 282.5 638.5 Q305 609 424.5 529 Q544 449 585.5 382 Q627 315 627 246 Q627 125 546.5 48 Q466 -29 342 -29 Q189 -29 23 92 L53 260 Q225 123 336 123 Q388 123 421.5 152 Q455 181 455 225 Q455 258 430.5 292.5 Q406 327 288 409 Q170 491 132 555 Q94 619 94 684 Q94 803 173 875.5 Q252 948 383 948 Q521 948 662 852 Z " />
<glyph glyph-name="t" unicode="t" horiz-adv-x="575" d="M584 920 L565 784 L381 784 L293 281 Q286 243 286 217 Q286 127 383 127 Q455 127 551 182 L541 12 Q445 -29 350 -29 Q237 -29 171.5 28.5 Q106 86 106 180 Q106 203 111 227 L207 784 L45 784 L66 920 L233 920 L268 1108 L440 1108 L408 920 L584 920 Z " />
<glyph glyph-name="u" unicode="u" horiz-adv-x="961" d="M898 920 L767 0 L595 0 L611 156 Q452 -14 308 -14 Q215 -14 150.5 52.5 Q86 119 86 242 Q86 277 91 313 L177 920 L351 920 L265 313 Q261 283 261 257 Q261 119 363 119 Q470 119 640 322 L724 920 L898 920 Z " />
<glyph glyph-name="v" unicode="v" horiz-adv-x="768" d="M842 920 L369 -18 L283 -18 L74 920 L246 920 L371 336 L666 920 L842 920 Z " />
<glyph glyph-name="w" unicode="w" horiz-adv-x="1260" d="M1325 920 L852 -18 L770 -18 L647 584 L336 -18 L256 -18 L66 920 L236 920 L350 301 L649 920 L735 920 L850 301 L1155 920 L1325 920 Z " />
<glyph glyph-name="x" unicode="x" horiz-adv-x="874" d="M907 920 L537 465 L770 0 L584 0 L416 344 L150 0 L-63 0 L338 487 L121 920 L307 920 L453 610 L692 920 L907 920 Z " />
<glyph glyph-name="y" unicode="y" horiz-adv-x="768" d="M819 920 L160 -471 L-25 -471 L225 55 L47 920 L221 920 L348 287 L637 920 L819 920 Z " />
<glyph glyph-name="z" unicode="z" horiz-adv-x="938" d="M915 920 L305 154 L840 154 L807 0 L-27 0 L573 766 L109 766 L129 920 L915 920 Z " />
<glyph glyph-name="braceleft" unicode="&#x7b;" horiz-adv-x="682" d="M57 449 L57 612 Q166 612 215 685.5 Q264 759 264 946 L264 1126 Q264 1322 333.5 1406.5 Q403 1491 555 1491 L635 1491 L635 1335 L604 1335 Q494 1335 462 1295 Q430 1255 430 1128 L430 981 Q430 770 383 673.5 Q336 577 223 530 Q336 484 383 387.5 Q430 291 430 80 L430 -68 Q430 -194 462 -234 Q494 -274 604 -274 L635 -274 L635 -430 L555 -430 Q403 -430 333.5 -345.5 Q264 -261 264 -66 L264 115 Q264 302 215 375.5 Q166 449 57 449 Z " />
<glyph glyph-name="bar" unicode="&#x7c;" horiz-adv-x="532" d="M221 -471 L221 1397 L377 1397 L377 -471 L221 -471 Z " />
<glyph glyph-name="braceright" unicode="&#x7d;" horiz-adv-x="682" d="M625 612 L625 449 Q516 449 467 375.5 Q418 302 418 115 L418 -66 Q418 -261 348.5 -345.5 Q279 -430 127 -430 L47 -430 L47 -274 L78 -274 Q188 -274 220 -234 Q252 -194 252 -68 L252 80 Q252 291 299 387.5 Q346 484 459 530 Q346 577 299 673.5 Q252 770 252 981 L252 1128 Q252 1255 220 1295 Q188 1335 78 1335 L47 1335 L47 1491 L127 1491 Q279 1491 348.5 1406.5 Q418 1322 418 1126 L418 946 Q418 759 467 685.5 Q516 612 625 612 Z " />
<glyph glyph-name="asciitilde" unicode="&#x7e;" horiz-adv-x="1196" d="M80 406 L80 575 Q237 707 385 707 Q471 707 643 629 Q815 551 889 551 Q1006 551 1176 688 L1176 518 Q1020 387 877 387 Q793 387 618.5 465 Q444 543 371 543 Q254 543 80 406 Z " />
<glyph glyph-name="Adieresis" unicode="&#xc4;" horiz-adv-x="1067" d="M721 1405 L993 0 L821 0 L737 438 L299 438 L115 0 L-72 0 L545 1405 L721 1405 Z M360 586 L709 586 L602 1159 L360 586 Z M768 1661 Q768 1700 796 1728 Q824 1756 862 1756 Q900 1756 928 1728 Q956 1700 956 1661 Q956 1623 928 1595 Q900 1567 862 1567 Q824 1567 796 1595 Q768 1623 768 1661 Z M401 1661 Q401 1700 429 1728 Q457 1756 495 1756 Q533 1756 561 1728 Q589 1700 589 1661 Q589 1623 561 1595 Q533 1567 495 1567 Q457 1567 429 1595 Q401 1623 401 1661 Z " />
<glyph glyph-name="Aring" unicode="&#xc5;" horiz-adv-x="1067" d="M721 1405 L993 0 L821 0 L737 438 L299 438 L115 0 L-72 0 L545 1405 L721 1405 Z M360 586 L709 586 L602 1159 L360 586 Z M485 1670 Q485 1749 541.5 1805.5 Q598 1862 678 1862 Q757 1862 813.5 1805.5 Q870 1749 870 1670 Q870 1590 813.5 1533.5 Q757 1477 678 1477 Q598 1477 541.5 1533.5 Q485 1590 485 1670 Z M790 1666 Q790 1711 756.5 1744.5 Q723 1778 678 1778 Q632 1778 598.5 1744.5 Q565 1711 565 1666 Q565 1620 598.5 1586.5 Q632 1553 678 1553 Q723 1553 756.5 1586.5 Q790 1620 790 1666 Z " />
<glyph glyph-name="Ccedilla" unicode="&#xc7;" horiz-adv-x="1130" d="M1083 330 L1053 104 Q833 -21 616 -18 L606 -45 Q700 -87 700 -184 Q700 -259 638 -309.5 Q576 -360 483 -360 Q417 -360 344 -346 L369 -252 Q425 -266 455 -266 Q551 -266 551 -188 Q551 -145 496 -117 L547 -10 Q339 25 219.5 182 Q100 339 100 563 Q100 939 361.5 1177 Q623 1415 1055 1415 L1188 1415 L1151 1239 L1049 1239 Q687 1239 493 1045 Q299 851 299 575 Q299 385 399 271.5 Q499 158 666 158 Q752 158 868.5 204.5 Q985 251 1083 330 Z " />
<glyph glyph-name="Eacute" unicode="&#xc9;" horiz-adv-x="1044" d="M1020 1397 L997 1231 L438 1231 L377 793 L870 793 L848 627 L352 627 L285 166 L1020 166 L995 0 L78 0 L281 1397 L1020 1397 Z M704 1819 L911 1819 L679 1520 L565 1520 L704 1819 Z " />
<glyph glyph-name="Ntilde" unicode="&#xd1;" horiz-adv-x="1409" d="M1389 1397 L1192 0 L1092 0 L397 1020 L254 0 L80 0 L276 1397 L371 1397 L1069 369 L1214 1397 L1389 1397 Z M1096 1782 L1176 1782 Q1176 1683 1129.5 1616 Q1083 1549 1008 1549 Q980 1549 870 1588 Q760 1627 725 1627 Q664 1627 655 1551 L574 1551 Q576 1662 620.5 1723 Q665 1784 739 1784 Q778 1784 885 1745.5 Q992 1707 1026 1707 Q1085 1707 1096 1782 Z " />
<glyph glyph-name="Odieresis" unicode="&#xd6;" horiz-adv-x="1343" d="M782 1415 Q1003 1415 1139.5 1253.5 Q1276 1092 1276 829 Q1276 465 1077 223.5 Q878 -18 602 -18 Q384 -18 244 147 Q104 312 104 571 Q104 894 294.5 1154.5 Q485 1415 782 1415 Z M606 150 Q800 150 943.5 358.5 Q1087 567 1087 862 Q1087 1042 1004 1144.5 Q921 1247 780 1247 Q564 1247 428.5 1031.5 Q293 816 293 545 Q293 362 378 256 Q463 150 606 150 Z M930 1661 Q930 1700 958 1728 Q986 1756 1024 1756 Q1062 1756 1090 1728 Q1118 1700 1118 1661 Q1118 1623 1090 1595 Q1062 1567 1024 1567 Q986 1567 958 1595 Q930 1623 930 1661 Z M563 1661 Q563 1700 591 1728 Q619 1756 657 1756 Q695 1756 723 1728 Q751 1700 751 1661 Q751 1623 723 1595 Q695 1567 657 1567 Q619 1567 591 1595 Q563 1623 563 1661 Z " />
<glyph glyph-name="Udieresis" unicode="&#xdc;" horiz-adv-x="1300" d="M1311 1397 L1190 535 Q1152 263 1003 122.5 Q854 -18 608 -18 Q390 -18 259.5 100 Q129 218 129 415 Q129 456 135 498 L262 1397 L446 1397 L317 483 Q313 454 313 427 Q313 298 398 224 Q483 150 618 150 Q735 150 824.5 205.5 Q914 261 948 344 Q982 427 1005 594 L1118 1397 L1311 1397 Z M914 1661 Q914 1700 942 1728 Q970 1756 1008 1756 Q1046 1756 1074 1728 Q1102 1700 1102 1661 Q1102 1623 1074 1595 Q1046 1567 1008 1567 Q970 1567 942 1595 Q914 1623 914 1661 Z M547 1661 Q547 1700 575 1728 Q603 1756 641 1756 Q679 1756 707 1728 Q735 1700 735 1661 Q735 1623 707 1595 Q679 1567 641 1567 Q603 1567 575 1595 Q547 1623 547 1661 Z " />
<glyph glyph-name="aacute" unicode="&#xe1;" horiz-adv-x="961" d="M913 920 L784 0 L610 0 L627 106 L623 111 Q502 -18 375 -18 Q249 -18 160.5 88.5 Q72 195 72 346 Q72 608 236.5 778 Q401 948 696 948 Q816 948 913 920 Z M647 266 L723 797 Q695 799 669 799 Q464 799 357 668.5 Q250 538 250 377 Q250 266 301.5 195.5 Q353 125 432 125 Q495 125 570 187.5 Q645 250 647 266 Z M602 1372 L809 1372 L577 1073 L463 1073 L602 1372 Z " />
<glyph glyph-name="agrave" unicode="&#xe0;" horiz-adv-x="961" d="M913 920 L784 0 L610 0 L627 106 L623 111 Q502 -18 375 -18 Q249 -18 160.5 88.5 Q72 195 72 346 Q72 608 236.5 778 Q401 948 696 948 Q816 948 913 920 Z M647 266 L723 797 Q695 799 669 799 Q464 799 357 668.5 Q250 538 250 377 Q250 266 301.5 195.5 Q353 125 432 125 Q495 125 570 187.5 Q645 250 647 266 Z M592 1372 L731 1073 L616 1073 L385 1372 L592 1372 Z " />
<glyph glyph-name="acircumflex" unicode="&#xe2;" horiz-adv-x="961" d="M913 920 L784 0 L610 0 L627 106 L623 111 Q502 -18 375 -18 Q249 -18 160.5 88.5 Q72 195 72 346 Q72 608 236.5 778 Q401 948 696 948 Q816 948 913 920 Z M647 266 L723 797 Q695 799 669 799 Q464 799 357 668.5 Q250 538 250 377 Q250 266 301.5 195.5 Q353 125 432 125 Q495 125 570 187.5 Q645 250 647 266 Z M771 1372 L924 1069 L840 1069 L670 1272 L396 1069 L300 1069 L568 1372 L771 1372 Z " />
<glyph glyph-name="adieresis" unicode="&#xe4;" horiz-adv-x="961" d="M913 920 L784 0 L610 0 L627 106 L623 111 Q502 -18 375 -18 Q249 -18 160.5 88.5 Q72 195 72 346 Q72 608 236.5 778 Q401 948 696 948 Q816 948 913 920 Z M647 266 L723 797 Q695 799 669 799 Q464 799 357 668.5 Q250 538 250 377 Q250 266 301.5 195.5 Q353 125 432 125 Q495 125 570 187.5 Q645 250 647 266 Z M719 1214 Q719 1253 747 1281 Q775 1309 813 1309 Q851 1309 879 1281 Q907 1253 907 1214 Q907 1176 879 1148 Q851 1120 813 1120 Q775 1120 747 1148 Q719 1176 719 1214 Z M352 1214 Q352 1253 380 1281 Q408 1309 446 1309 Q484 1309 512 1281 Q540 1253 540 1214 Q540 1176 512 1148 Q484 1120 446 1120 Q408 1120 380 1148 Q352 1176 352 1214 Z " />
<glyph glyph-name="atilde" unicode="&#xe3;" horiz-adv-x="961" d="M913 920 L784 0 L610 0 L627 106 L623 111 Q502 -18 375 -18 Q249 -18 160.5 88.5 Q72 195 72 346 Q72 608 236.5 778 Q401 948 696 948 Q816 948 913 920 Z M647 266 L723 797 Q695 799 669 799 Q464 799 357 668.5 Q250 538 250 377 Q250 266 301.5 195.5 Q353 125 432 125 Q495 125 570 187.5 Q645 250 647 266 Z M811 1335 L891 1335 Q891 1236 844.5 1169 Q798 1102 723 1102 Q695 1102 585 1141 Q475 1180 440 1180 Q379 1180 370 1104 L289 1104 Q291 1215 335.5 1276 Q380 1337 454 1337 Q493 1337 600 1298.5 Q707 1260 741 1260 Q800 1260 811 1335 Z " />
<glyph glyph-name="aring" unicode="&#xe5;" horiz-adv-x="961" d="M913 920 L784 0 L610 0 L627 106 L623 111 Q502 -18 375 -18 Q249 -18 160.5 88.5 Q72 195 72 346 Q72 608 236.5 778 Q401 948 696 948 Q816 948 913 920 Z M647 266 L723 797 Q695 799 669 799 Q464 799 357 668.5 Q250 538 250 377 Q250 266 301.5 195.5 Q353 125 432 125 Q495 125 570 187.5 Q645 250 647 266 Z M436 1223 Q436 1302 492.5 1358.5 Q549 1415 629 1415 Q708 1415 764.5 1358.5 Q821 1302 821 1223 Q821 1143 764.5 1086.5 Q708 1030 629 1030 Q549 1030 492.5 1086.5 Q436 1143 436 1223 Z M741 1219 Q741 1264 707.5 1297.5 Q674 1331 629 1331 Q583 1331 549.5 1297.5 Q516 1264 516 1219 Q516 1173 549.5 1139.5 Q583 1106 629 1106 Q674 1106 707.5 1139.5 Q741 1173 741 1219 Z " />
<glyph glyph-name="ccedilla" unicode="&#xe7;" horiz-adv-x="788" d="M731 205 L711 37 Q592 -29 442 -29 L432 -55 Q526 -97 526 -195 Q526 -269 464 -320 Q402 -371 309 -371 Q243 -371 170 -356 L195 -262 Q251 -276 281 -276 Q377 -276 377 -199 Q377 -155 322 -127 L373 -20 Q219 4 134 115.5 Q49 227 49 395 Q49 628 216.5 788 Q384 948 645 948 Q711 948 803 932 L780 778 Q715 793 647 793 Q466 793 346.5 677 Q227 561 227 406 Q227 276 294.5 201.5 Q362 127 479 127 Q603 127 731 205 Z " />
<glyph glyph-name="eacute" unicode="&#xe9;" horiz-adv-x="897" d="M795 240 L770 74 Q630 -29 463 -29 Q289 -29 183.5 92.5 Q78 214 78 416 Q78 641 204.5 794.5 Q331 948 514 948 Q654 948 747 840.5 Q840 733 840 563 Q840 521 834 477 L260 477 Q252 431 252 389 Q252 262 321.5 188.5 Q391 115 496 115 Q624 115 795 240 Z M287 598 L672 598 Q672 694 628.5 749.5 Q585 805 506 805 Q356 805 287 598 Z M571 1372 L778 1372 L546 1073 L432 1073 L571 1372 Z " />
<glyph glyph-name="egrave" unicode="&#xe8;" horiz-adv-x="897" d="M795 240 L770 74 Q630 -29 463 -29 Q289 -29 183.5 92.5 Q78 214 78 416 Q78 641 204.5 794.5 Q331 948 514 948 Q654 948 747 840.5 Q840 733 840 563 Q840 521 834 477 L260 477 Q252 431 252 389 Q252 262 321.5 188.5 Q391 115 496 115 Q624 115 795 240 Z M287 598 L672 598 Q672 694 628.5 749.5 Q585 805 506 805 Q356 805 287 598 Z M520 1372 L659 1073 L544 1073 L313 1372 L520 1372 Z " />
<glyph glyph-name="ecircumflex" unicode="&#xea;" horiz-adv-x="897" d="M795 240 L770 74 Q630 -29 463 -29 Q289 -29 183.5 92.5 Q78 214 78 416 Q78 641 204.5 794.5 Q331 948 514 948 Q654 948 747 840.5 Q840 733 840 563 Q840 521 834 477 L260 477 Q252 431 252 389 Q252 262 321.5 188.5 Q391 115 496 115 Q624 115 795 240 Z M287 598 L672 598 Q672 694 628.5 749.5 Q585 805 506 805 Q356 805 287 598 Z M699 1372 L852 1069 L768 1069 L598 1272 L324 1069 L228 1069 L496 1372 L699 1372 Z " />
<glyph glyph-name="edieresis" unicode="&#xeb;" horiz-adv-x="897" d="M795 240 L770 74 Q630 -29 463 -29 Q289 -29 183.5 92.5 Q78 214 78 416 Q78 641 204.5 794.5 Q331 948 514 948 Q654 948 747 840.5 Q840 733 840 563 Q840 521 834 477 L260 477 Q252 431 252 389 Q252 262 321.5 188.5 Q391 115 496 115 Q624 115 795 240 Z M287 598 L672 598 Q672 694 628.5 749.5 Q585 805 506 805 Q356 805 287 598 Z M648 1214 Q648 1253 676 1281 Q704 1309 742 1309 Q780 1309 808 1281 Q836 1253 836 1214 Q836 1176 808 1148 Q780 1120 742 1120 Q704 1120 676 1148 Q648 1176 648 1214 Z M281 1214 Q281 1253 309 1281 Q337 1309 375 1309 Q413 1309 441 1281 Q469 1253 469 1214 Q469 1176 441 1148 Q413 1120 375 1120 Q337 1120 309 1148 Q281 1176 281 1214 Z " />
<glyph glyph-name="iacute" unicode="&#xed;" horiz-adv-x="385" d="M350 920 L221 0 L47 0 L176 920 L350 920 Z M317 1372 L524 1372 L292 1073 L178 1073 L317 1372 Z " />
<glyph glyph-name="igrave" unicode="&#xec;" horiz-adv-x="385" d="M350 920 L221 0 L47 0 L176 920 L350 920 Z M266 1372 L405 1073 L290 1073 L59 1372 L266 1372 Z " />
<glyph glyph-name="icircumflex" unicode="&#xee;" horiz-adv-x="385" d="M350 920 L221 0 L47 0 L176 920 L350 920 Z M444 1372 L597 1069 L513 1069 L343 1272 L69 1069 L-27 1069 L241 1372 L444 1372 Z " />
<glyph glyph-name="idieresis" unicode="&#xef;" horiz-adv-x="385" d="M350 920 L221 0 L47 0 L176 920 L350 920 Z M394 1214 Q394 1253 422 1281 Q450 1309 488 1309 Q526 1309 554 1281 Q582 1253 582 1214 Q582 1176 554 1148 Q526 1120 488 1120 Q450 1120 422 1148 Q394 1176 394 1214 Z M27 1214 Q27 1253 55 1281 Q83 1309 121 1309 Q159 1309 187 1281 Q215 1253 215 1214 Q215 1176 187 1148 Q159 1120 121 1120 Q83 1120 55 1148 Q27 1176 27 1214 Z " />
<glyph glyph-name="ntilde" unicode="&#xf1;" horiz-adv-x="961" d="M365 920 L342 758 L346 754 Q493 934 651 934 Q758 934 817 855.5 Q876 777 876 653 Q876 618 870 580 L782 0 L610 0 L694 586 Q699 617 699 643 Q699 715 669 753 Q639 791 594 791 Q568 791 535.5 778 Q503 765 466 738 Q429 711 374.5 656 Q320 601 317 586 L233 0 L61 0 L190 920 L365 920 Z M811 1335 L891 1335 Q891 1236 844.5 1169 Q798 1102 723 1102 Q695 1102 585 1141 Q475 1180 440 1180 Q379 1180 370 1104 L289 1104 Q291 1215 335.5 1276 Q380 1337 454 1337 Q493 1337 600 1298.5 Q707 1260 741 1260 Q800 1260 811 1335 Z " />
<glyph glyph-name="oacute" unicode="&#xf3;" horiz-adv-x="918" d="M514 948 Q669 948 762.5 838.5 Q856 729 856 547 Q856 295 730 133 Q604 -29 420 -29 Q258 -29 166 80 Q74 189 74 383 Q74 624 201 786 Q328 948 514 948 Z M514 811 Q407 811 329.5 678.5 Q252 546 252 365 Q252 257 298.5 189 Q345 121 414 121 Q523 121 600.5 245 Q678 369 678 557 Q678 673 633 742 Q588 811 514 811 Z M581 1372 L788 1372 L556 1073 L442 1073 L581 1372 Z " />
<glyph glyph-name="ograve" unicode="&#xf2;" horiz-adv-x="918" d="M514 948 Q669 948 762.5 838.5 Q856 729 856 547 Q856 295 730 133 Q604 -29 420 -29 Q258 -29 166 80 Q74 189 74 383 Q74 624 201 786 Q328 948 514 948 Z M514 811 Q407 811 329.5 678.5 Q252 546 252 365 Q252 257 298.5 189 Q345 121 414 121 Q523 121 600.5 245 Q678 369 678 557 Q678 673 633 742 Q588 811 514 811 Z M531 1372 L670 1073 L555 1073 L324 1372 L531 1372 Z " />
<glyph glyph-name="ocircumflex" unicode="&#xf4;" horiz-adv-x="918" d="M514 948 Q669 948 762.5 838.5 Q856 729 856 547 Q856 295 730 133 Q604 -29 420 -29 Q258 -29 166 80 Q74 189 74 383 Q74 624 201 786 Q328 948 514 948 Z M514 811 Q407 811 329.5 678.5 Q252 546 252 365 Q252 257 298.5 189 Q345 121 414 121 Q523 121 600.5 245 Q678 369 678 557 Q678 673 633 742 Q588 811 514 811 Z M709 1372 L862 1069 L778 1069 L608 1272 L334 1069 L238 1069 L506 1372 L709 1372 Z " />
<glyph glyph-name="odieresis" unicode="&#xf6;" horiz-adv-x="918" d="M514 948 Q669 948 762.5 838.5 Q856 729 856 547 Q856 295 730 133 Q604 -29 420 -29 Q258 -29 166 80 Q74 189 74 383 Q74 624 201 786 Q328 948 514 948 Z M514 811 Q407 811 329.5 678.5 Q252 546 252 365 Q252 257 298.5 189 Q345 121 414 121 Q523 121 600.5 245 Q678 369 678 557 Q678 673 633 742 Q588 811 514 811 Z M658 1214 Q658 1253 686 1281 Q714 1309 752 1309 Q790 1309 818 1281 Q846 1253 846 1214 Q846 1176 818 1148 Q790 1120 752 1120 Q714 1120 686 1148 Q658 1176 658 1214 Z M291 1214 Q291 1253 319 1281 Q347 1309 385 1309 Q423 1309 451 1281 Q479 1253 479 1214 Q479 1176 451 1148 Q423 1120 385 1120 Q347 1120 319 1148 Q291 1176 291 1214 Z " />
<glyph glyph-name="otilde" unicode="&#xf5;" horiz-adv-x="918" d="M514 948 Q669 948 762.5 838.5 Q856 729 856 547 Q856 295 730 133 Q604 -29 420 -29 Q258 -29 166 80 Q74 189 74 383 Q74 624 201 786 Q328 948 514 948 Z M514 811 Q407 811 329.5 678.5 Q252 546 252 365 Q252 257 298.5 189 Q345 121 414 121 Q523 121 600.5 245 Q678 369 678 557 Q678 673 633 742 Q588 811 514 811 Z M790 1335 L870 1335 Q870 1236 823.5 1169 Q777 1102 702 1102 Q674 1102 564 1141 Q454 1180 419 1180 Q358 1180 349 1104 L268 1104 Q270 1215 314.5 1276 Q359 1337 433 1337 Q472 1337 579 1298.5 Q686 1260 720 1260 Q779 1260 790 1335 Z " />
<glyph glyph-name="uacute" unicode="&#xfa;" horiz-adv-x="961" d="M898 920 L767 0 L595 0 L611 156 Q452 -14 308 -14 Q215 -14 150.5 52.5 Q86 119 86 242 Q86 277 91 313 L177 920 L351 920 L265 313 Q261 283 261 257 Q261 119 363 119 Q470 119 640 322 L724 920 L898 920 Z M605 1372 L812 1372 L580 1073 L466 1073 L605 1372 Z " />
<glyph glyph-name="ugrave" unicode="&#xf9;" horiz-adv-x="961" d="M898 920 L767 0 L595 0 L611 156 Q452 -14 308 -14 Q215 -14 150.5 52.5 Q86 119 86 242 Q86 277 91 313 L177 920 L351 920 L265 313 Q261 283 261 257 Q261 119 363 119 Q470 119 640 322 L724 920 L898 920 Z M554 1372 L693 1073 L578 1073 L347 1372 L554 1372 Z " />
<glyph glyph-name="ucircumflex" unicode="&#xfb;" horiz-adv-x="961" d="M898 920 L767 0 L595 0 L611 156 Q452 -14 308 -14 Q215 -14 150.5 52.5 Q86 119 86 242 Q86 277 91 313 L177 920 L351 920 L265 313 Q261 283 261 257 Q261 119 363 119 Q470 119 640 322 L724 920 L898 920 Z M733 1372 L886 1069 L802 1069 L632 1272 L358 1069 L262 1069 L530 1372 L733 1372 Z " />
<glyph glyph-name="udieresis" unicode="&#xfc;" horiz-adv-x="961" d="M898 920 L767 0 L595 0 L611 156 Q452 -14 308 -14 Q215 -14 150.5 52.5 Q86 119 86 242 Q86 277 91 313 L177 920 L351 920 L265 313 Q261 283 261 257 Q261 119 363 119 Q470 119 640 322 L724 920 L898 920 Z M681 1214 Q681 1253 709 1281 Q737 1309 775 1309 Q813 1309 841 1281 Q869 1253 869 1214 Q869 1176 841 1148 Q813 1120 775 1120 Q737 1120 709 1148 Q681 1176 681 1214 Z M314 1214 Q314 1253 342 1281 Q370 1309 408 1309 Q446 1309 474 1281 Q502 1253 502 1214 Q502 1176 474 1148 Q446 1120 408 1120 Q370 1120 342 1148 Q314 1176 314 1214 Z " />
<glyph glyph-name="dagger" unicode="&#x2020;" horiz-adv-x="981" d="M502 829 Q492 961 492 1094 Q492 1415 621 1415 Q694 1415 694 1280 Q694 1125 559 829 Q726 889 846 889 Q899 889 932 865 Q965 841 965 803 Q965 770 927.5 745.5 Q890 721 838 721 Q741 721 559 780 Q557 555 531.5 201 Q506 -153 469.5 -312 Q433 -471 354 -471 Q268 -471 268 -328 Q268 -68 502 780 Q327 721 225 721 Q170 721 136 745 Q102 769 102 807 Q102 841 140 864 Q178 887 238 887 Q324 887 502 829 Z " />
<glyph glyph-name="degree" unicode="&#xb0;" horiz-adv-x="811" d="M127 1214 Q127 1329 208 1410 Q289 1491 403 1491 Q518 1491 599 1410 Q680 1329 680 1214 Q680 1100 599 1019 Q518 938 403 938 Q289 938 208 1019 Q127 1100 127 1214 Z M573 1214 Q573 1284 523.5 1333 Q474 1382 403 1382 Q333 1382 284.5 1333.5 Q236 1285 236 1214 Q236 1144 284.5 1094 Q333 1044 403 1044 Q474 1044 523.5 1094 Q573 1144 573 1214 Z " />
<glyph glyph-name="cent" unicode="&#xa2;" horiz-adv-x="788" d="M807 930 L784 778 Q709 793 655 793 L451 127 Q605 113 743 221 L717 37 Q612 -30 478 -30 Q434 -30 403 -18 L289 -385 L195 -385 L313 0 Q57 95 57 406 Q57 621 209.5 776 Q362 931 610 944 L719 1305 L819 1305 L707 944 Q779 937 807 930 Z M362 152 L559 784 Q408 751 322 647.5 Q236 544 236 406 Q236 230 362 152 Z " />
<glyph glyph-name="sterling" unicode="&#xa3;" horiz-adv-x="961" d="M1036 1391 L1012 1219 Q956 1241 907 1241 Q794 1241 704 1125 Q614 1009 530 768 L754 768 L705 602 L479 602 L340 193 Q388 197 397 197 Q446 197 541 179.5 Q636 162 705 162 Q820 162 936 217 L909 27 Q814 -18 682 -18 Q634 -18 514 -1 Q394 16 319 16 Q246 16 158 0 L84 -16 L74 -16 L289 602 L109 602 L158 768 L340 768 Q451 1096 587 1255.5 Q723 1415 905 1415 Q964 1415 1036 1391 Z " />
<glyph glyph-name="section" unicode="&#xa7;" horiz-adv-x="1004" d="M946 1114 L782 1055 Q805 1095 805 1139 Q805 1197 767 1234.5 Q729 1272 670 1272 Q590 1272 533.5 1223 Q477 1174 477 1102 Q477 1057 507 1007 Q537 957 683.5 835 Q830 713 877 619.5 Q924 526 924 434 Q924 335 849 241 Q774 147 647 94 Q752 -41 752 -154 Q752 -292 649 -381.5 Q546 -471 385 -471 Q234 -471 142.5 -396 Q51 -321 53 -178 L211 -90 Q206 -120 206 -148 Q206 -328 385 -328 Q466 -328 519.5 -284 Q573 -240 573 -170 Q573 -121 538.5 -64.5 Q504 -8 349 123.5 Q194 255 147 340.5 Q100 426 100 506 Q100 621 183 714.5 Q266 808 405 840 Q295 956 295 1081 Q295 1228 403.5 1321.5 Q512 1415 684 1415 Q806 1415 879 1348.5 Q952 1282 952 1175 Q952 1145 946 1114 Z M522 209 Q626 235 685.5 294 Q745 353 745 422 Q745 552 543 717 Q421 711 349.5 653.5 Q278 596 278 512 Q278 430 365.5 352.5 Q453 275 522 209 Z " />
<glyph glyph-name="bullet" unicode="&#x2022;" horiz-adv-x="725" d="M393 952 Q497 952 572 877 Q647 802 647 698 Q647 594 572 519 Q497 444 393 444 Q289 444 214 519 Q139 594 139 698 Q139 802 214 877 Q289 952 393 952 Z " />
<glyph glyph-name="paragraph" unicode="&#xb6;" horiz-adv-x="1110" d="M446 -408 L446 586 Q254 598 148.5 710 Q43 822 43 1002 Q43 1199 165.5 1307 Q288 1415 514 1415 L1147 1415 L1147 1249 L1001 1249 L1001 -408 L836 -408 L836 1249 L612 1249 L612 -408 L446 -408 Z " />
<glyph glyph-name="germandbls" unicode="&#xdf;" horiz-adv-x="1024" d="M84 0 L213 920 Q284 1415 625 1415 Q773 1415 869 1322 Q965 1229 965 1083 Q965 981 903 899 Q841 817 737 791 L737 786 Q829 748 877.5 655.5 Q926 563 926 459 Q926 259 807 115 Q688 -29 526 -29 Q459 -29 418 0 L436 131 Q469 123 506 123 Q615 123 683.5 219.5 Q752 316 752 473 Q752 719 522 745 L539 864 Q659 853 734 917.5 Q809 982 809 1081 Q809 1172 758.5 1228 Q708 1284 629 1284 Q524 1284 469.5 1203 Q415 1122 389 940 L258 0 L84 0 Z " />
<glyph glyph-name="registered" unicode="&#xae;" horiz-adv-x="1516" d="M2 737 Q2 1049 223 1270 Q444 1491 756 1491 Q1068 1491 1289.5 1270 Q1511 1049 1511 737 Q1511 425 1289.5 203.5 Q1068 -18 756 -18 Q444 -18 223 203.5 Q2 425 2 737 Z M1386 737 Q1386 997 1201 1181.5 Q1016 1366 756 1366 Q496 1366 311.5 1181.5 Q127 997 127 737 Q127 477 311.5 291.5 Q496 106 756 106 Q1016 106 1201 291.5 Q1386 477 1386 737 Z M454 319 L454 1130 L812 1130 Q940 1130 1010.5 1067 Q1081 1004 1081 918 Q1081 822 1018.5 757 Q956 692 849 684 L849 680 Q925 658 1038 477 L1136 319 L976 319 L905 446 Q835 569 791 616.5 Q747 664 663 664 L585 664 L585 319 L454 319 Z M585 776 L773 776 Q941 776 941 899 Q941 953 901 986.5 Q861 1020 796 1020 L585 1020 L585 776 Z " />
<glyph glyph-name="copyright" unicode="&#xa9;" horiz-adv-x="1516" d="M2 737 Q2 1049 223 1270 Q444 1491 756 1491 Q1068 1491 1289.5 1270 Q1511 1049 1511 737 Q1511 425 1289.5 203.5 Q1068 -18 756 -18 Q444 -18 223 203.5 Q2 425 2 737 Z M1386 737 Q1386 997 1201 1181.5 Q1016 1366 756 1366 Q496 1366 311.5 1181.5 Q127 997 127 737 Q127 477 311.5 291.5 Q496 106 756 106 Q1016 106 1201 291.5 Q1386 477 1386 737 Z M999 614 L1122 578 Q1053 305 750 305 Q572 305 467 424.5 Q362 544 362 748 Q362 934 472.5 1046.5 Q583 1159 766 1159 Q1035 1159 1108 924 L989 895 Q928 1049 756 1049 Q640 1049 570 961 Q500 873 500 727 Q500 584 568.5 503 Q637 422 758 422 Q844 422 910.5 473.5 Q977 525 999 614 Z " />
<glyph glyph-name="trademark" unicode="&#x2122;" horiz-adv-x="2048" d="M408 651 L408 1346 L143 1346 L143 1466 L809 1466 L809 1346 L543 1346 L543 651 L408 651 Z M901 651 L901 1466 L1102 1466 L1309 815 L1505 1466 L1702 1466 L1702 651 L1577 651 L1579 1335 L1368 651 L1245 651 L1026 1346 L1026 651 L901 651 Z " />
<glyph glyph-name="acute" unicode="&#xb4;" horiz-adv-x="682" d="M463 1372 L670 1372 L438 1073 L324 1073 L463 1372 Z " />
<glyph glyph-name="dieresis" unicode="&#xa8;" horiz-adv-x="682" d="M539 1214 Q539 1253 567 1281 Q595 1309 633 1309 Q671 1309 699 1281 Q727 1253 727 1214 Q727 1176 699 1148 Q671 1120 633 1120 Q595 1120 567 1148 Q539 1176 539 1214 Z M172 1214 Q172 1253 200 1281 Q228 1309 266 1309 Q304 1309 332 1281 Q360 1253 360 1214 Q360 1176 332 1148 Q304 1120 266 1120 Q228 1120 200 1148 Q172 1176 172 1214 Z " />
<glyph glyph-name="AE" unicode="&#xc6;" horiz-adv-x="1706" d="M1640 1397 L1618 1231 L1083 1231 L1022 799 L1524 799 L1501 633 L999 633 L934 166 L1663 166 L1640 0 L727 0 L815 633 L504 633 L156 0 L-43 0 L754 1397 L1640 1397 Z M901 1243 L838 1243 L584 780 L836 780 L901 1243 Z " />
<glyph glyph-name="Oslash" unicode="&#xd8;" horiz-adv-x="1343" d="M1122 1274 L1255 1434 L1333 1341 L1194 1176 Q1276 1042 1276 829 Q1276 465 1077 223.5 Q878 -18 602 -18 Q421 -18 291 98 L137 -84 L59 0 L213 184 Q104 347 104 571 Q104 894 294.5 1154.5 Q485 1415 782 1415 Q982 1415 1122 1274 Z M334 330 L1010 1139 Q935 1247 780 1247 Q564 1247 428.5 1031.5 Q293 816 293 545 Q293 439 334 330 Z M1067 1024 L399 229 Q473 150 606 150 Q800 150 943.5 358.5 Q1087 567 1087 862 Q1087 951 1067 1024 Z " />
<glyph glyph-name="plusminus" unicode="&#xb1;" horiz-adv-x="1196" d="M545 1206 L713 1206 L713 807 L1112 807 L1112 639 L713 639 L713 240 L545 240 L545 639 L145 639 L145 807 L545 807 L545 1206 Z M145 168 L1112 168 L1112 0 L145 0 L145 168 Z " />
<glyph glyph-name="yen" unicode="&#xa5;" horiz-adv-x="1130" d="M1108 750 L1079 614 L674 614 L641 463 L1049 463 L1020 328 L614 328 L545 0 L365 0 L432 328 L27 328 L57 463 L461 463 L492 614 L84 614 L113 750 L455 750 L182 1466 L365 1466 L612 772 L1090 1466 L1306 1466 L774 750 L1108 750 Z " />
<glyph glyph-name="ordfeminine" unicode="&#xaa;" horiz-adv-x="641" d="M670 1397 L584 844 L449 844 L455 891 Q384 838 311 838 Q224 838 165 900.5 Q106 963 106 1055 Q106 1216 219.5 1315.5 Q333 1415 518 1415 Q593 1415 670 1397 Z M473 1010 L520 1315 Q395 1315 320.5 1251 Q246 1187 246 1071 Q246 1010 275 970 Q304 930 348 930 Q403 930 473 1010 Z " />
<glyph glyph-name="ordmasculine" unicode="&#xba;" horiz-adv-x="618" d="M418 1415 Q523 1415 585 1348.5 Q647 1282 647 1169 Q647 1020 565 923.5 Q483 827 356 827 Q247 827 185 893.5 Q123 960 123 1077 Q123 1221 208 1318 Q293 1415 418 1415 Z M354 922 Q417 922 463.5 996.5 Q510 1071 510 1176 Q510 1321 418 1321 Q349 1321 304.5 1246.5 Q260 1172 260 1049 Q260 995 287.5 958.5 Q315 922 354 922 Z " />
<glyph glyph-name="ae" unicode="&#xe6;" horiz-adv-x="1323" d="M1204 244 L1180 66 Q1031 -29 881 -29 Q670 -29 569 145 Q414 -29 260 -29 Q153 -29 89 31 Q25 91 25 190 Q25 442 535 535 Q553 595 553 646 Q553 716 519 756.5 Q485 797 426 797 Q292 797 123 627 L152 823 Q304 948 459 948 Q597 948 664 823 Q783 948 948 948 Q1081 948 1168.5 831.5 Q1256 715 1256 544 Q1256 492 1247 440 L700 440 Q688 387 688 340 Q688 234 748.5 174.5 Q809 115 905 115 Q1036 115 1204 244 Z M717 561 L1090 561 Q1094 656 1049 730.5 Q1004 805 918 805 Q839 805 782.5 742 Q726 679 717 561 Z M494 217 L520 408 Q369 378 286 322 Q203 266 203 199 Q203 162 229 138.5 Q255 115 295 115 Q386 115 494 217 Z " />
<glyph glyph-name="oslash" unicode="&#xf8;" horiz-adv-x="918" d="M881 879 L801 784 Q856 683 856 547 Q856 295 730 133 Q604 -29 420 -29 Q272 -29 182 63 L98 -33 L37 35 L127 139 Q74 240 74 383 Q74 624 201 786 Q328 948 514 948 Q656 948 745 856 L821 944 L881 879 Z M260 293 L637 731 Q592 811 514 811 Q407 811 329.5 678.5 Q252 546 252 365 Q252 323 260 293 Z M672 633 L295 195 Q341 121 414 121 Q523 121 600.5 245 Q678 369 678 557 Q678 599 672 633 Z " />
<glyph glyph-name="questiondown" unicode="&#xbf;" horiz-adv-x="725" d="M612 854 Q612 805 577 770 Q542 735 494 735 Q445 735 410 770 Q375 805 375 854 Q375 903 410 938 Q445 973 494 973 Q542 973 577 938 Q612 903 612 854 Z M555 -190 L526 -393 Q405 -471 297 -471 Q162 -471 80 -384.5 Q-2 -298 -2 -156 Q-2 -89 28 -17 Q58 55 187.5 194.5 Q317 334 360 426.5 Q403 519 414 604 L526 604 Q526 487 485 365 Q444 243 329.5 106.5 Q215 -30 195.5 -73 Q176 -116 176 -152 Q176 -221 217.5 -263 Q259 -305 328 -305 Q430 -305 555 -190 Z " />
<glyph glyph-name="exclamdown" unicode="&#xa1;" horiz-adv-x="512" d="M428 854 Q428 805 393 770 Q358 735 309 735 Q260 735 225 770 Q190 805 190 854 Q190 903 225 938 Q260 973 309 973 Q358 973 393 938 Q428 903 428 854 Z M322 604 Q295 347 280 23.5 Q265 -300 241.5 -385.5 Q218 -471 129 -471 Q47 -471 47 -350 Q47 -279 115 16 L246 604 L322 604 Z " />
<glyph glyph-name="logicalnot" unicode="&#xac;" horiz-adv-x="1196" d="M1112 258 L944 258 L944 694 L143 694 L143 862 L1112 862 L1112 258 Z " />
<glyph glyph-name="florin" unicode="&#x192;" horiz-adv-x="1130" d="M47 -406 L82 -250 Q180 -272 236 -272 Q334 -272 354 -152 L539 922 L338 922 L360 1061 L563 1061 L592 1235 Q635 1493 879 1493 Q955 1493 1085 1454 L1051 1300 Q952 1325 891 1325 Q835 1325 809 1293 Q783 1261 766 1165 L748 1061 L950 1061 L926 922 L721 922 L530 -170 Q506 -312 446.5 -371 Q387 -430 264 -430 Q169 -430 47 -406 Z " />
<glyph glyph-name="guillemotleft" unicode="&#xab;" horiz-adv-x="897" d="M913 920 L559 438 L731 0 L592 0 L412 459 L756 920 L913 920 Z M516 920 L162 438 L334 0 L195 0 L14 459 L358 920 L516 920 Z " />
<glyph glyph-name="guillemotright" unicode="&#xbb;" horiz-adv-x="897" d="M348 0 L702 481 L530 920 L670 920 L850 461 L506 0 L348 0 Z M-53 0 L301 481 L129 920 L268 920 L449 461 L104 0 L-53 0 Z " />
<glyph glyph-name="ellipsis" unicode="&#x2026;" horiz-adv-x="2048" d="M1524 104 Q1524 155 1559.5 191 Q1595 227 1647 227 Q1697 227 1732 191 Q1767 155 1767 104 Q1767 54 1732 18 Q1697 -18 1647 -18 Q1595 -18 1559.5 17.5 Q1524 53 1524 104 Z M840 104 Q840 155 876 191 Q912 227 963 227 Q1013 227 1049 191 Q1085 155 1085 104 Q1085 54 1049 18 Q1013 -18 963 -18 Q912 -18 876 18 Q840 54 840 104 Z M158 102 Q158 153 193 188 Q228 223 279 223 Q329 223 365 188 Q401 153 401 102 Q401 52 365 17 Q329 -18 279 -18 Q228 -18 193 17 Q158 52 158 102 Z " />
<glyph glyph-name="Agrave" unicode="&#xc0;" horiz-adv-x="1067" d="M721 1405 L993 0 L821 0 L737 438 L299 438 L115 0 L-72 0 L545 1405 L721 1405 Z M360 586 L709 586 L602 1159 L360 586 Z M641 1819 L780 1520 L665 1520 L434 1819 L641 1819 Z " />
<glyph glyph-name="Atilde" unicode="&#xc3;" horiz-adv-x="1067" d="M721 1405 L993 0 L821 0 L737 438 L299 438 L115 0 L-72 0 L545 1405 L721 1405 Z M360 586 L709 586 L602 1159 L360 586 Z M901 1782 L981 1782 Q981 1683 934.5 1616 Q888 1549 813 1549 Q785 1549 675 1588 Q565 1627 530 1627 Q469 1627 460 1551 L379 1551 Q381 1662 425.5 1723 Q470 1784 544 1784 Q583 1784 690 1745.5 Q797 1707 831 1707 Q890 1707 901 1782 Z " />
<glyph glyph-name="Otilde" unicode="&#xd5;" horiz-adv-x="1343" d="M782 1415 Q1003 1415 1139.5 1253.5 Q1276 1092 1276 829 Q1276 465 1077 223.5 Q878 -18 602 -18 Q384 -18 244 147 Q104 312 104 571 Q104 894 294.5 1154.5 Q485 1415 782 1415 Z M606 150 Q800 150 943.5 358.5 Q1087 567 1087 862 Q1087 1042 1004 1144.5 Q921 1247 780 1247 Q564 1247 428.5 1031.5 Q293 816 293 545 Q293 362 378 256 Q463 150 606 150 Z M1063 1782 L1143 1782 Q1143 1683 1096.5 1616 Q1050 1549 975 1549 Q947 1549 837 1588 Q727 1627 692 1627 Q631 1627 622 1551 L541 1551 Q543 1662 587.5 1723 Q632 1784 706 1784 Q745 1784 852 1745.5 Q959 1707 993 1707 Q1052 1707 1063 1782 Z " />
<glyph glyph-name="OE" unicode="&#x152;" horiz-adv-x="1985" d="M1909 1397 L1884 1231 L1321 1231 L1262 795 L1790 795 L1765 629 L1237 629 L1174 166 L1925 166 L1903 0 L977 0 L733 -8 Q426 -8 265 162 Q104 332 104 621 Q104 788 197 979 Q290 1170 463.5 1283.5 Q637 1397 872 1397 L1909 1397 Z M1139 1231 L1024 1231 L844 1233 Q597 1233 450 1062 Q303 891 303 602 Q303 392 404 279 Q505 166 688 166 L989 166 L1139 1231 Z " />
<glyph glyph-name="oe" unicode="&#x153;" horiz-adv-x="1473" d="M1386 481 L819 481 Q809 429 809 381 Q809 257 874.5 186 Q940 115 1059 115 Q1209 115 1348 252 L1319 59 Q1188 -29 1047 -29 Q826 -29 700 162 Q561 -29 401 -29 Q239 -29 147 80 Q55 189 55 383 Q55 624 182.5 786 Q310 948 496 948 Q675 948 768 784 Q898 948 1067 948 Q1222 948 1305.5 844.5 Q1389 741 1389 547 Q1389 515 1386 481 Z M407 120 Q505 120 572 251.5 Q639 383 639 582 Q639 689 594 750 Q549 811 496 811 Q387 811 310 679 Q233 547 233 365 Q233 261 277 190.5 Q321 120 407 120 Z M836 602 L1221 602 Q1215 811 1051 811 Q887 811 836 602 Z " />
<glyph glyph-name="endash" unicode="&#x2013;" horiz-adv-x="1024" d="M1042 584 L1042 453 L-18 453 L-18 584 L1042 584 Z " />
<glyph glyph-name="emdash" unicode="&#x2014;" horiz-adv-x="2048" d="M2066 584 L2066 453 L-18 453 L-18 584 L2066 584 Z " />
<glyph glyph-name="quotedblleft" unicode="&#x201c;" horiz-adv-x="831" d="M899 1413 L887 1323 Q752 1279 752 1147 Q831 1112 831 1042 Q831 989 795 955.5 Q759 922 702 922 Q648 922 610.5 968 Q573 1014 573 1083 Q573 1197 660.5 1287.5 Q748 1378 899 1413 Z M459 1413 L446 1323 Q311 1279 311 1147 Q391 1112 391 1042 Q391 989 355 955.5 Q319 922 262 922 Q207 922 170 968 Q133 1014 133 1083 Q133 1197 220 1287.5 Q307 1378 459 1413 Z " />
<glyph glyph-name="quotedblright" unicode="&#x201d;" horiz-adv-x="831" d="M567 924 L580 1014 Q715 1058 715 1190 Q635 1225 635 1294 Q635 1348 671 1381.5 Q707 1415 764 1415 Q819 1415 856 1369 Q893 1323 893 1253 Q893 1140 806 1049 Q719 958 567 924 Z M127 924 L139 1014 Q274 1058 274 1190 Q195 1225 195 1294 Q195 1348 231 1381.5 Q267 1415 324 1415 Q378 1415 415.5 1369 Q453 1323 453 1253 Q453 1140 365.5 1049 Q278 958 127 924 Z " />
<glyph glyph-name="quoteleft" unicode="&#x2018;" horiz-adv-x="406" d="M483 1413 L471 1323 Q336 1279 336 1147 Q416 1112 416 1042 Q416 989 380 955.5 Q344 922 287 922 Q232 922 195 968 Q158 1014 158 1083 Q158 1197 245 1287.5 Q332 1378 483 1413 Z " />
<glyph glyph-name="quoteright" unicode="&#x2019;" horiz-adv-x="406" d="M123 924 L135 1014 Q270 1058 270 1190 Q190 1225 190 1294 Q190 1348 226.5 1381.5 Q263 1415 319 1415 Q374 1415 411.5 1369 Q449 1323 449 1253 Q449 1140 361.5 1049 Q274 958 123 924 Z " />
<glyph glyph-name="divide" unicode="&#xf7;" horiz-adv-x="1196" d="M520 1024 Q520 1068 552 1100.5 Q584 1133 629 1133 Q673 1133 705 1100.5 Q737 1068 737 1024 Q737 980 705 947.5 Q673 915 629 915 Q584 915 552 947.5 Q520 980 520 1024 Z M145 807 L1112 807 L1112 639 L145 639 L145 807 Z M520 422 Q520 466 552 498 Q584 530 629 530 Q673 530 705 498 Q737 466 737 422 Q737 378 705 345.5 Q673 313 629 313 Q584 313 552 345.5 Q520 378 520 422 Z " />
<glyph glyph-name="ydieresis" unicode="&#xff;" horiz-adv-x="768" d="M819 920 L160 -471 L-25 -471 L225 55 L47 920 L221 920 L348 287 L637 920 L819 920 Z M582 1214 Q582 1253 610 1281 Q638 1309 676 1309 Q714 1309 742 1281 Q770 1253 770 1214 Q770 1176 742 1148 Q714 1120 676 1120 Q638 1120 610 1148 Q582 1176 582 1214 Z M215 1214 Q215 1253 243 1281 Q271 1309 309 1309 Q347 1309 375 1281 Q403 1253 403 1214 Q403 1176 375 1148 Q347 1120 309 1120 Q271 1120 243 1148 Q215 1176 215 1214 Z " />
<glyph glyph-name="Ydieresis" unicode="&#x178;" horiz-adv-x="1004" d="M1141 1397 L651 696 L553 0 L369 0 L467 696 L139 1397 L334 1397 L571 885 L928 1397 L1141 1397 Z M760 1661 Q760 1700 788 1728 Q816 1756 854 1756 Q892 1756 920 1728 Q948 1700 948 1661 Q948 1623 920 1595 Q892 1567 854 1567 Q816 1567 788 1595 Q760 1623 760 1661 Z M393 1661 Q393 1700 421 1728 Q449 1756 487 1756 Q525 1756 553 1728 Q581 1700 581 1661 Q581 1623 553 1595 Q525 1567 487 1567 Q449 1567 421 1595 Q393 1623 393 1661 Z " />
<glyph glyph-name="fraction" unicode="&#x2044;" horiz-adv-x="427" d="M839 1416 L-270 -55 L-412 -55 L700 1416 L839 1416 Z " />
<glyph glyph-name="Euro" unicode="&#x20ac;" horiz-adv-x="1178" d="M459 901 L1036 901 L1008 754 L410 754 Q400 695 393 645 L987 645 L958 498 L393 498 Q404 338 477.5 248 Q551 158 678 158 Q860 158 1069 293 L1042 78 Q851 -18 664 -18 Q485 -18 351.5 109.5 Q218 237 201 498 L51 498 L80 645 L201 645 Q205 705 215 754 L51 754 L80 901 L258 901 Q355 1153 563.5 1284 Q772 1415 1026 1415 Q1116 1415 1235 1395 L1202 1217 Q1090 1239 1012 1239 Q828 1239 681.5 1151.5 Q535 1064 459 901 Z " />
<glyph glyph-name="guilsinglleft" unicode="&#x2039;" horiz-adv-x="469" d="M502 920 L147 438 L319 0 L180 0 L0 459 L344 920 L502 920 Z " />
<glyph glyph-name="guilsinglright" unicode="&#x203a;" horiz-adv-x="469" d="M-74 0 L281 481 L109 920 L248 920 L428 461 L84 0 L-74 0 Z " />
<glyph glyph-name="fi" unicode="&#xfb01;" horiz-adv-x="981" d="M612 920 L590 766 L395 766 L223 -387 L53 -387 L223 766 L88 766 L111 920 L244 920 Q277 1178 376.5 1296.5 Q476 1415 662 1415 Q793 1415 875.5 1344 Q958 1273 958 1155 L793 1155 Q769 1266 655 1266 Q546 1266 495.5 1196 Q445 1126 416 920 L612 920 Z M930 920 L795 0 L621 0 L756 920 L930 920 Z " />
<glyph glyph-name="fl" unicode="&#xfb02;" horiz-adv-x="981" d="M618 920 L590 766 L397 766 L223 -387 L53 -387 L223 766 L90 766 L113 920 L244 920 Q277 1174 372 1294.5 Q467 1415 649 1415 Q707 1415 750 1397 L729 1255 Q694 1266 651 1266 Q448 1266 418 920 L618 920 Z M999 1397 L793 0 L618 0 L825 1397 L999 1397 Z " />
<glyph glyph-name="daggerdbl" unicode="&#x2021;" horiz-adv-x="938" d="M547 829 Q538 721 538 645 L541 524 Q541 446 500 325 Q459 204 438 111 Q610 170 702 170 Q817 170 817 84 Q817 0 686 0 Q600 0 438 63 Q446 -45 446 -188 Q446 -471 330 -471 Q244 -471 244 -360 Q244 -235 385 63 Q232 0 139 0 Q-10 0 -10 80 Q-10 119 29 144.5 Q68 170 131 170 Q225 170 385 113 Q391 188 391 264 L387 444 Q387 496 429 610 Q471 724 494 829 Q342 778 240 778 Q111 778 111 856 Q111 897 146.5 922.5 Q182 948 240 948 Q335 948 494 881 Q485 975 485 1143 Q485 1415 604 1415 Q686 1415 686 1305 Q686 1176 547 885 L551 881 Q682 948 813 948 Q938 948 938 864 Q938 778 801 778 Q691 778 547 829 Z " />
<glyph glyph-name="quotesinglbase" unicode="&#x201a;" horiz-adv-x="406" d="M-49 -295 L-37 -205 Q98 -161 98 -29 Q18 7 18 76 Q18 129 54.5 163 Q91 197 147 197 Q202 197 239 150.5 Q276 104 276 35 Q276 -78 189 -169 Q102 -260 -49 -295 Z " />
<glyph glyph-name="quotedblbase" unicode="&#x201e;" horiz-adv-x="831" d="M391 -295 L403 -205 Q539 -161 539 -29 Q459 7 459 76 Q459 129 495 163 Q531 197 588 197 Q643 197 680 150.5 Q717 104 717 35 Q717 -78 630 -169 Q543 -260 391 -295 Z M-49 -295 L-37 -205 Q98 -161 98 -29 Q18 7 18 76 Q18 129 54.5 163 Q91 197 147 197 Q202 197 239 150.5 Q276 104 276 35 Q276 -78 189 -169 Q102 -260 -49 -295 Z " />
<glyph glyph-name="perthousand" unicode="&#x2030;" horiz-adv-x="2068" d="M369 1415 Q497 1415 588.5 1324.5 Q680 1234 680 1104 Q680 979 587 886 Q494 793 369 793 Q240 793 148.5 885.5 Q57 978 57 1104 Q57 1235 147 1325 Q237 1415 369 1415 Z M369 942 Q436 942 483 990 Q530 1038 530 1104 Q530 1172 482.5 1219 Q435 1266 369 1266 Q300 1266 253.5 1219.5 Q207 1173 207 1104 Q207 1041 256 991.5 Q305 942 369 942 Z M1231 1415 L313 -18 L158 -18 L1077 1415 L1231 1415 Z M1749 606 Q1877 606 1968.5 515.5 Q2060 425 2060 295 Q2060 170 1967 77 Q1874 -16 1749 -16 Q1620 -16 1529 76.5 Q1438 169 1438 295 Q1438 426 1527.5 516 Q1617 606 1749 606 Z M1749 133 Q1816 133 1863.5 181 Q1911 229 1911 295 Q1911 363 1863.5 410 Q1816 457 1749 457 Q1681 457 1634 410.5 Q1587 364 1587 295 Q1587 232 1636 182.5 Q1685 133 1749 133 Z M1020 606 Q1148 606 1239.5 515.5 Q1331 425 1331 295 Q1331 170 1238 77 Q1145 -16 1020 -16 Q891 -16 800 76.5 Q709 169 709 295 Q709 426 798.5 516 Q888 606 1020 606 Z M1020 133 Q1087 133 1134.5 181 Q1182 229 1182 295 Q1182 363 1134.5 410 Q1087 457 1020 457 Q952 457 905 410.5 Q858 364 858 295 Q858 232 907 182.5 Q956 133 1020 133 Z " />
<glyph glyph-name="Acircumflex" unicode="&#xc2;" horiz-adv-x="1067" d="M721 1405 L993 0 L821 0 L737 438 L299 438 L115 0 L-72 0 L545 1405 L721 1405 Z M360 586 L709 586 L602 1159 L360 586 Z M820 1819 L973 1516 L889 1516 L719 1719 L445 1516 L349 1516 L617 1819 L820 1819 Z " />
<glyph glyph-name="Ecircumflex" unicode="&#xca;" horiz-adv-x="1044" d="M1020 1397 L997 1231 L438 1231 L377 793 L870 793 L848 627 L352 627 L285 166 L1020 166 L995 0 L78 0 L281 1397 L1020 1397 Z M832 1819 L985 1516 L901 1516 L731 1719 L457 1516 L361 1516 L629 1819 L832 1819 Z " />
<glyph glyph-name="Aacute" unicode="&#xc1;" horiz-adv-x="1067" d="M721 1405 L993 0 L821 0 L737 438 L299 438 L115 0 L-72 0 L545 1405 L721 1405 Z M360 586 L709 586 L602 1159 L360 586 Z M692 1819 L899 1819 L667 1520 L553 1520 L692 1819 Z " />
<glyph glyph-name="Edieresis" unicode="&#xcb;" horiz-adv-x="1044" d="M1020 1397 L997 1231 L438 1231 L377 793 L870 793 L848 627 L352 627 L285 166 L1020 166 L995 0 L78 0 L281 1397 L1020 1397 Z M781 1661 Q781 1700 809 1728 Q837 1756 875 1756 Q913 1756 941 1728 Q969 1700 969 1661 Q969 1623 941 1595 Q913 1567 875 1567 Q837 1567 809 1595 Q781 1623 781 1661 Z M414 1661 Q414 1700 442 1728 Q470 1756 508 1756 Q546 1756 574 1728 Q602 1700 602 1661 Q602 1623 574 1595 Q546 1567 508 1567 Q470 1567 442 1595 Q414 1623 414 1661 Z " />
<glyph glyph-name="Egrave" unicode="&#xc8;" horiz-adv-x="1044" d="M1020 1397 L997 1231 L438 1231 L377 793 L870 793 L848 627 L352 627 L285 166 L1020 166 L995 0 L78 0 L281 1397 L1020 1397 Z M654 1819 L793 1520 L678 1520 L447 1819 L654 1819 Z " />
<glyph glyph-name="Iacute" unicode="&#xcd;" horiz-adv-x="492" d="M469 1397 L272 0 L80 0 L276 1397 L469 1397 Z M430 1819 L637 1819 L405 1520 L291 1520 L430 1819 Z " />
<glyph glyph-name="Icircumflex" unicode="&#xce;" horiz-adv-x="492" d="M469 1397 L272 0 L80 0 L276 1397 L469 1397 Z M557 1819 L710 1516 L626 1516 L456 1719 L182 1516 L86 1516 L354 1819 L557 1819 Z " />
<glyph glyph-name="Idieresis" unicode="&#xcf;" horiz-adv-x="492" d="M469 1397 L272 0 L80 0 L276 1397 L469 1397 Z M506 1661 Q506 1700 534 1728 Q562 1756 600 1756 Q638 1756 666 1728 Q694 1700 694 1661 Q694 1623 666 1595 Q638 1567 600 1567 Q562 1567 534 1595 Q506 1623 506 1661 Z M139 1661 Q139 1700 167 1728 Q195 1756 233 1756 Q271 1756 299 1728 Q327 1700 327 1661 Q327 1623 299 1595 Q271 1567 233 1567 Q195 1567 167 1595 Q139 1623 139 1661 Z " />
<glyph glyph-name="Igrave" unicode="&#xcc;" horiz-adv-x="492" d="M469 1397 L272 0 L80 0 L276 1397 L469 1397 Z M379 1819 L518 1520 L403 1520 L172 1819 L379 1819 Z " />
<glyph glyph-name="Oacute" unicode="&#xd3;" horiz-adv-x="1343" d="M782 1415 Q1003 1415 1139.5 1253.5 Q1276 1092 1276 829 Q1276 465 1077 223.5 Q878 -18 602 -18 Q384 -18 244 147 Q104 312 104 571 Q104 894 294.5 1154.5 Q485 1415 782 1415 Z M606 150 Q800 150 943.5 358.5 Q1087 567 1087 862 Q1087 1042 1004 1144.5 Q921 1247 780 1247 Q564 1247 428.5 1031.5 Q293 816 293 545 Q293 362 378 256 Q463 150 606 150 Z M854 1819 L1061 1819 L829 1520 L715 1520 L854 1819 Z " />
<glyph glyph-name="Ocircumflex" unicode="&#xd4;" horiz-adv-x="1343" d="M782 1415 Q1003 1415 1139.5 1253.5 Q1276 1092 1276 829 Q1276 465 1077 223.5 Q878 -18 602 -18 Q384 -18 244 147 Q104 312 104 571 Q104 894 294.5 1154.5 Q485 1415 782 1415 Z M606 150 Q800 150 943.5 358.5 Q1087 567 1087 862 Q1087 1042 1004 1144.5 Q921 1247 780 1247 Q564 1247 428.5 1031.5 Q293 816 293 545 Q293 362 378 256 Q463 150 606 150 Z M982 1819 L1135 1516 L1051 1516 L881 1719 L607 1516 L511 1516 L779 1819 L982 1819 Z " />
<glyph glyph-name="Ograve" unicode="&#xd2;" horiz-adv-x="1343" d="M782 1415 Q1003 1415 1139.5 1253.5 Q1276 1092 1276 829 Q1276 465 1077 223.5 Q878 -18 602 -18 Q384 -18 244 147 Q104 312 104 571 Q104 894 294.5 1154.5 Q485 1415 782 1415 Z M606 150 Q800 150 943.5 358.5 Q1087 567 1087 862 Q1087 1042 1004 1144.5 Q921 1247 780 1247 Q564 1247 428.5 1031.5 Q293 816 293 545 Q293 362 378 256 Q463 150 606 150 Z M803 1819 L942 1520 L827 1520 L596 1819 L803 1819 Z " />
<glyph glyph-name="Uacute" unicode="&#xda;" horiz-adv-x="1300" d="M1311 1397 L1190 535 Q1152 263 1003 122.5 Q854 -18 608 -18 Q390 -18 259.5 100 Q129 218 129 415 Q129 456 135 498 L262 1397 L446 1397 L317 483 Q313 454 313 427 Q313 298 398 224 Q483 150 618 150 Q735 150 824.5 205.5 Q914 261 948 344 Q982 427 1005 594 L1118 1397 L1311 1397 Z M837 1819 L1044 1819 L812 1520 L698 1520 L837 1819 Z " />
<glyph glyph-name="Ucircumflex" unicode="&#xdb;" horiz-adv-x="1300" d="M1311 1397 L1190 535 Q1152 263 1003 122.5 Q854 -18 608 -18 Q390 -18 259.5 100 Q129 218 129 415 Q129 456 135 498 L262 1397 L446 1397 L317 483 Q313 454 313 427 Q313 298 398 224 Q483 150 618 150 Q735 150 824.5 205.5 Q914 261 948 344 Q982 427 1005 594 L1118 1397 L1311 1397 Z M965 1819 L1118 1516 L1034 1516 L864 1719 L590 1516 L494 1516 L762 1819 L965 1819 Z " />
<glyph glyph-name="Ugrave" unicode="&#xd9;" horiz-adv-x="1300" d="M1311 1397 L1190 535 Q1152 263 1003 122.5 Q854 -18 608 -18 Q390 -18 259.5 100 Q129 218 129 415 Q129 456 135 498 L262 1397 L446 1397 L317 483 Q313 454 313 427 Q313 298 398 224 Q483 150 618 150 Q735 150 824.5 205.5 Q914 261 948 344 Q982 427 1005 594 L1118 1397 L1311 1397 Z M787 1819 L926 1520 L811 1520 L580 1819 L787 1819 Z " />
<glyph glyph-name="dotlessi" unicode="&#x131;" horiz-adv-x="385" d="M350 920 L221 0 L47 0 L176 920 L350 920 Z " />
<glyph glyph-name="circumflex" unicode="&#x2c6;" horiz-adv-x="682" d="M590 1372 L743 1069 L659 1069 L489 1272 L215 1069 L119 1069 L387 1372 L590 1372 Z " />
<glyph glyph-name="tilde" unicode="&#x2dc;" horiz-adv-x="682" d="M672 1335 L752 1335 Q752 1236 705.5 1169 Q659 1102 584 1102 Q556 1102 446 1141 Q336 1180 301 1180 Q240 1180 231 1104 L150 1104 Q152 1215 196.5 1276 Q241 1337 315 1337 Q354 1337 461 1298.5 Q568 1260 602 1260 Q661 1260 672 1335 Z " />
<glyph glyph-name="breve" unicode="&#x2d8;" horiz-adv-x="682" d="M637 1350 L737 1350 Q658 1087 448 1087 Q343 1087 278 1162 Q213 1237 219 1350 L315 1350 Q318 1289 357.5 1254 Q397 1219 457 1219 Q565 1219 637 1350 Z " />
<glyph glyph-name="dotaccent" unicode="&#x2d9;" horiz-adv-x="682" d="M356 1239 Q356 1288 391 1323 Q426 1358 475 1358 Q523 1358 558 1323 Q593 1288 593 1239 Q593 1190 558 1155 Q523 1120 475 1120 Q426 1120 391 1155 Q356 1190 356 1239 Z " />
<glyph glyph-name="ring" unicode="&#x2da;" horiz-adv-x="682" d="M256 1223 Q256 1302 312.5 1358.5 Q369 1415 449 1415 Q528 1415 584.5 1358.5 Q641 1302 641 1223 Q641 1143 584.5 1086.5 Q528 1030 449 1030 Q369 1030 312.5 1086.5 Q256 1143 256 1223 Z M561 1219 Q561 1264 527.5 1297.5 Q494 1331 449 1331 Q403 1331 369.5 1297.5 Q336 1264 336 1219 Q336 1173 369.5 1139.5 Q403 1106 449 1106 Q494 1106 527.5 1139.5 Q561 1173 561 1219 Z " />
<glyph glyph-name="cedilla" unicode="&#xb8;" horiz-adv-x="682" d="M369 14 L350 -35 Q444 -76 444 -174 Q444 -249 382 -299.5 Q320 -350 227 -350 Q161 -350 88 -336 L113 -242 Q169 -256 199 -256 Q295 -256 295 -178 Q295 -135 240 -106 L297 14 L369 14 Z " />
<glyph glyph-name="hungarumlaut" unicode="&#x2dd;" horiz-adv-x="682" d="M639 1372 L846 1372 L614 1073 L500 1073 L639 1372 Z M313 1372 L520 1372 L289 1073 L174 1073 L313 1372 Z " />
<glyph glyph-name="ogonek" unicode="&#x2db;" horiz-adv-x="682" d="M451 -227 L430 -367 Q369 -383 303 -383 Q209 -383 143.5 -327 Q78 -271 78 -193 Q78 -107 154 14 L311 14 Q252 -89 252 -137 Q252 -180 287 -210 Q322 -240 373 -240 Q404 -240 451 -227 Z " />
<glyph glyph-name="caron" unicode="&#x2c7;" horiz-adv-x="682" d="M313 1069 L160 1372 L244 1372 L414 1169 L688 1372 L784 1372 L516 1069 L313 1069 Z " />
<glyph glyph-name="mu" unicode="&#xb5;" horiz-adv-x="1130" d="M276 920 L451 920 L332 354 Q324 314 324 279 Q324 196 367.5 149 Q411 102 487 102 Q695 102 748 356 L864 920 L1038 920 L848 0 L690 0 L698 66 Q592 -29 473 -29 Q353 -29 274 82 L186 -354 L14 -354 L276 920 Z " />
<glyph glyph-name="nbspace" unicode="&#xa0;" horiz-adv-x="569" d="" />
<glyph glyph-name="firsttonechinese" unicode="&#x2c9;" horiz-adv-x="682" d="M774 1300 L756 1169 L96 1169 L115 1300 L774 1300 Z " />
<glyph glyph-name="Scaron" unicode="&#x160;" horiz-adv-x="938" d="M899 1360 L872 1169 Q760 1243 627 1243 Q515 1243 448 1185 Q381 1127 381 1032 Q381 985 413 933 Q445 881 600 756.5 Q755 632 804.5 538 Q854 444 854 350 Q854 200 741 91 Q628 -18 440 -18 Q273 -18 102 82 L131 287 Q322 154 459 154 Q533 154 599.5 202.5 Q666 251 666 334 Q666 387 632.5 444 Q599 501 443.5 628 Q288 755 240.5 848.5 Q193 942 193 1034 Q193 1196 327 1305.5 Q461 1415 643 1415 Q770 1415 899 1360 Z M502 1516 L349 1819 L433 1819 L603 1616 L877 1819 L973 1819 L705 1516 L502 1516 Z " />
<glyph glyph-name="scaron" unicode="&#x161;" horiz-adv-x="725" d="M662 852 L662 670 Q503 791 385 791 Q332 791 296 762.5 Q260 734 260 694 Q260 668 282.5 638.5 Q305 609 424.5 529 Q544 449 585.5 382 Q627 315 627 246 Q627 125 546.5 48 Q466 -29 342 -29 Q189 -29 23 92 L53 260 Q225 123 336 123 Q388 123 421.5 152 Q455 181 455 225 Q455 258 430.5 292.5 Q406 327 288 409 Q170 491 132 555 Q94 619 94 684 Q94 803 173 875.5 Q252 948 383 948 Q521 948 662 852 Z M313 1069 L160 1372 L244 1372 L414 1169 L688 1372 L784 1372 L516 1069 L313 1069 Z " />
<glyph glyph-name="Zcaron" unicode="&#x17d;" horiz-adv-x="1194" d="M1325 1397 L307 174 L1135 174 L1110 0 L-66 0 L948 1223 L154 1223 L178 1397 L1325 1397 Z M629 1516 L476 1819 L560 1819 L730 1616 L1004 1819 L1100 1819 L832 1516 L629 1516 Z " />
<glyph glyph-name="zcaron" unicode="&#x17e;" horiz-adv-x="938" d="M915 920 L305 154 L840 154 L807 0 L-27 0 L573 766 L109 766 L129 920 L915 920 Z M442 1069 L289 1372 L373 1372 L543 1169 L817 1372 L913 1372 L645 1069 L442 1069 Z " />
<glyph glyph-name="brokenbar" unicode="&#xa6;" horiz-adv-x="532" d="M221 700 L221 1397 L377 1397 L377 700 L221 700 Z M221 -471 L221 360 L377 360 L377 -471 L221 -471 Z " />
<glyph glyph-name="softhyphen" unicode="&#xad;" horiz-adv-x="512" d="M512 543 L488 368 L0 368 L25 543 L512 543 Z " />
<glyph glyph-name="overscore" unicode="&#xaf;" horiz-adv-x="1024" d="M266 1496 L266 1598 L1421 1598 L1421 1496 L266 1496 Z " />
<glyph glyph-name="Eth" unicode="&#xd0;" horiz-adv-x="1343" d="M279 1397 L444 1397 Q799 1397 1031.5 1226 Q1264 1055 1264 696 Q1264 379 1076 189.5 Q888 0 543 0 L80 0 L168 616 L6 616 L31 782 L190 782 L279 1397 Z M442 1231 L379 782 L698 782 L676 616 L356 616 L293 166 L461 166 Q692 166 804.5 215 Q917 264 991 391.5 Q1065 519 1065 702 Q1065 1231 442 1231 Z " />
<glyph glyph-name="eth" unicode="&#xf0;" horiz-adv-x="918" d="M895 1335 L713 1239 Q794 1118 838.5 961.5 Q883 805 883 666 Q883 369 748 170 Q613 -29 408 -29 Q253 -29 163.5 82 Q74 193 74 385 Q74 621 201.5 784.5 Q329 948 510 948 Q614 948 680 887 L684 891 Q658 1024 565 1161 L379 1061 L328 1143 L504 1235 Q469 1276 432 1300 L539 1415 Q603 1377 655 1315 L846 1415 L895 1335 Z M412 109 Q524 109 613 250.5 Q702 392 702 551 Q702 811 512 811 Q404 811 327 676 Q250 541 250 358 Q250 258 298 183.5 Q346 109 412 109 Z " />
<glyph glyph-name="Yacute" unicode="&#xdd;" horiz-adv-x="1004" d="M1141 1397 L651 696 L553 0 L369 0 L467 696 L139 1397 L334 1397 L571 885 L928 1397 L1141 1397 Z M684 1819 L891 1819 L659 1520 L545 1520 L684 1819 Z " />
<glyph glyph-name="yacute" unicode="&#xfd;" horiz-adv-x="768" d="M819 920 L160 -471 L-25 -471 L225 55 L47 920 L221 920 L348 287 L637 920 L819 920 Z M506 1372 L713 1372 L481 1073 L367 1073 L506 1372 Z " />
<glyph glyph-name="Thorn" unicode="&#xde;" horiz-adv-x="918" d="M252 1397 L442 1397 L401 1102 L451 1102 Q666 1102 784.5 1001.5 Q903 901 903 707 Q903 545 786 420 Q669 295 457 295 L289 295 L248 0 L55 0 L252 1397 Z M379 936 L313 461 L449 461 Q575 461 646 534 Q717 607 717 713 Q717 813 650.5 874.5 Q584 936 461 936 L379 936 Z " />
<glyph glyph-name="thorn" unicode="&#xfe;" horiz-adv-x="1004" d="M27 -471 L289 1397 L463 1397 L395 920 Q465 948 551 948 Q713 948 822.5 826 Q932 704 932 520 Q932 301 783.5 136 Q635 -29 377 -29 L262 -29 L201 -471 L27 -471 Z M377 791 L283 119 L367 119 Q544 119 649 238.5 Q754 358 754 520 Q754 660 680 738.5 Q606 817 492 817 Q431 817 377 791 Z " />
<glyph glyph-name="multiply" unicode="&#xd7;" horiz-adv-x="1196" d="M193 410 L508 725 L193 1040 L313 1161 L629 846 L942 1159 L1063 1038 L750 725 L1063 412 L942 291 L629 604 L313 289 L193 410 Z " />
<glyph glyph-name="onesuperior" unicode="&#xb9;" horiz-adv-x="662" d="M543 1415 L408 680 L276 680 L410 1415 L543 1415 Z " />
<glyph glyph-name="twosuperior" unicode="&#xb2;" horiz-adv-x="662" d="M188 1239 L207 1362 Q303 1415 403 1415 Q497 1415 556.5 1366.5 Q616 1318 616 1243 Q616 1158 536.5 1050 Q457 942 299 778 L606 778 L592 680 L61 680 Q489 1123 489 1227 Q489 1311 383 1311 Q297 1311 188 1239 Z " />
<glyph glyph-name="threesuperior" unicode="&#xb3;" horiz-adv-x="662" d="M219 1262 L236 1380 Q325 1415 418 1415 Q524 1415 587.5 1362.5 Q651 1310 651 1223 Q651 1107 500 1053 Q602 1008 602 891 Q602 797 517.5 733.5 Q433 670 305 670 Q203 670 94 713 L109 813 Q211 768 301 768 Q378 768 422.5 803 Q467 838 467 897 Q467 1008 313 1008 L328 1100 Q506 1118 506 1225 Q506 1266 475 1291.5 Q444 1317 393 1317 Q308 1317 219 1262 Z " />
<glyph glyph-name="onehalf" unicode="&#xbd;" horiz-adv-x="1729" d="M543 1415 L408 680 L276 680 L410 1415 L543 1415 Z M250 -55 L108 -55 L1220 1415 L1360 1415 L250 -55 Z M1036 561 L1055 684 Q1151 737 1251 737 Q1345 737 1404.5 688.5 Q1464 640 1464 565 Q1464 480 1384.5 372 Q1305 264 1147 100 L1454 100 L1440 2 L909 2 Q1337 445 1337 549 Q1337 633 1231 633 Q1145 633 1036 561 Z " />
<glyph glyph-name="onequarter" unicode="&#xbc;" horiz-adv-x="1729" d="M543 1415 L408 680 L276 680 L410 1415 L543 1415 Z M250 -55 L108 -55 L1220 1415 L1360 1415 L250 -55 Z M1273 311 L1392 311 L1375 221 L1254 221 L1213 2 L1084 2 L1130 221 L820 221 L820 268 L1263 737 L1349 737 L1273 311 Z M1179 498 L998 311 L1144 311 L1179 498 Z " />
<glyph glyph-name="threequarters" unicode="&#xbe;" horiz-adv-x="1729" d="M275 1262 L292 1380 Q381 1415 474 1415 Q580 1415 643.5 1362.5 Q707 1310 707 1223 Q707 1107 556 1053 Q658 1008 658 891 Q658 797 573.5 733.5 Q489 670 361 670 Q259 670 150 713 L165 813 Q267 768 357 768 Q434 768 478.5 803 Q523 838 523 897 Q523 1008 369 1008 L384 1100 Q562 1118 562 1225 Q562 1266 531 1291.5 Q500 1317 449 1317 Q364 1317 275 1262 Z M386 -55 L244 -55 L1356 1415 L1496 1415 L386 -55 Z M1409 311 L1528 311 L1511 221 L1390 221 L1349 2 L1220 2 L1266 221 L956 221 L956 268 L1399 737 L1485 737 L1409 311 Z M1315 498 L1134 311 L1280 311 L1315 498 Z " />
<glyph glyph-name="middot" unicode="&#xb7;" horiz-adv-x="683" d="M676 586 Q633 586 601.5 618 Q570 650 570 693 Q570 737 601.5 769 Q633 801 677 801 Q721 801 753 769.5 Q785 738 785 696 Q785 651 752.5 618.5 Q720 586 676 586 Z " />
<glyph glyph-name="currency" unicode="&#xa4;" horiz-adv-x="1130" d="M948 463 L1085 326 L969 209 L831 346 Q725 274 596 274 Q467 274 360 346 L223 209 L106 326 L244 463 Q172 568 172 698 Q172 824 244 934 L106 1071 L223 1188 L360 1051 Q465 1122 596 1122 Q722 1122 831 1051 L969 1188 L1085 1071 L948 934 Q1020 831 1020 698 Q1020 569 948 463 Z M856 698 Q856 805 779.5 881.5 Q703 958 596 958 Q489 958 412.5 881.5 Q336 805 336 698 Q336 591 412.5 514.5 Q489 438 596 438 Q703 438 779.5 514.5 Q856 591 856 698 Z " />
<glyph glyph-name="apple" unicode="&#xf8ff;" horiz-adv-x="1618" d="M836 1204 Q881 1204 982 1239 Q1083 1274 1159 1274 Q1282 1274 1378 1208 Q1432 1169 1485 1106 Q1405 1036 1368 983 Q1300 889 1300 772 Q1300 645 1372 542.5 Q1444 440 1534 414 Q1495 291 1409 158 Q1276 -41 1145 -41 Q1092 -41 1000.5 -9 Q909 23 846 23 Q782 23 699 -10 Q616 -43 563 -43 Q408 -43 256 219 Q104 481 104 735 Q104 971 220 1118.5 Q336 1266 512 1266 Q588 1266 694.5 1235 Q801 1204 836 1204 Z M1149 1618 Q1149 1552 1118 1476.5 Q1087 1401 1024 1335 Q967 1280 911 1262 Q877 1251 807 1245 Q809 1397 886 1508.5 Q963 1620 1143 1661 Q1147 1647 1148 1636.5 Q1149 1626 1149 1618 Z " />
<glyph glyph-name="gravecmb" unicode="&#x300;" d="M-423 1372 L-284 1073 L-399 1073 L-630 1372 L-423 1372 Z " />
<glyph glyph-name="acutecmb" unicode="&#x301;" d="M-491 1372 L-284 1372 L-516 1073 L-630 1073 L-491 1372 Z " />
<glyph glyph-name="circumflexcmb" unicode="&#x302;" d="M-298 1372 L-145 1069 L-229 1069 L-399 1272 L-673 1069 L-769 1069 L-501 1372 L-298 1372 Z " />
<glyph glyph-name="tildecmb" unicode="&#x303;" d="M-236 1335 L-156 1335 Q-156 1236 -202.5 1169 Q-249 1102 -324 1102 Q-352 1102 -462 1141 Q-572 1180 -607 1180 Q-668 1180 -677 1104 L-758 1104 Q-756 1215 -711.5 1276 Q-667 1337 -593 1337 Q-554 1337 -447 1298.5 Q-340 1260 -306 1260 Q-247 1260 -236 1335 Z " />
<glyph glyph-name="macroncmb" unicode="&#x304;" d="M-1034 1496 L-1034 1598 L121 1598 L121 1496 L-1034 1496 Z " />
<glyph glyph-name="brevecmb" unicode="&#x306;" d="M-295 1350 L-195 1350 Q-274 1087 -484 1087 Q-589 1087 -654 1162 Q-719 1237 -713 1350 L-617 1350 Q-614 1289 -574.5 1254 Q-535 1219 -475 1219 Q-367 1219 -295 1350 Z " />
<glyph glyph-name="dotaccentcmb" unicode="&#x307;" d="M-575 1239 Q-575 1288 -540 1323 Q-505 1358 -456 1358 Q-408 1358 -373 1323 Q-338 1288 -338 1239 Q-338 1190 -373 1155 Q-408 1120 -456 1120 Q-505 1120 -540 1155 Q-575 1190 -575 1239 Z " />
<glyph glyph-name="dieresiscmb" unicode="&#x308;" d="M-367 1214 Q-367 1253 -339 1281 Q-311 1309 -273 1309 Q-235 1309 -207 1281 Q-179 1253 -179 1214 Q-179 1176 -207 1148 Q-235 1120 -273 1120 Q-311 1120 -339 1148 Q-367 1176 -367 1214 Z M-734 1214 Q-734 1253 -706 1281 Q-678 1309 -640 1309 Q-602 1309 -574 1281 Q-546 1253 -546 1214 Q-546 1176 -574 1148 Q-602 1120 -640 1120 Q-678 1120 -706 1148 Q-734 1176 -734 1214 Z " />
<glyph glyph-name="ringcmb" unicode="&#x30a;" d="M-649 1223 Q-649 1302 -592.5 1358.5 Q-536 1415 -456 1415 Q-377 1415 -320.5 1358.5 Q-264 1302 -264 1223 Q-264 1143 -320.5 1086.5 Q-377 1030 -456 1030 Q-536 1030 -592.5 1086.5 Q-649 1143 -649 1223 Z M-344 1219 Q-344 1264 -377.5 1297.5 Q-411 1331 -456 1331 Q-502 1331 -535.5 1297.5 Q-569 1264 -569 1219 Q-569 1173 -535.5 1139.5 Q-502 1106 -456 1106 Q-411 1106 -377.5 1139.5 Q-344 1173 -344 1219 Z " />
<glyph glyph-name="hungarumlautcmb" unicode="&#x30b;" d="M-328 1372 L-121 1372 L-353 1073 L-467 1073 L-328 1372 Z M-654 1372 L-447 1372 L-678 1073 L-793 1073 L-654 1372 Z " />
<glyph glyph-name="caroncmb" unicode="&#x30c;" d="M-616 1069 L-769 1372 L-685 1372 L-515 1169 L-241 1372 L-145 1372 L-413 1069 L-616 1069 Z " />
<glyph glyph-name="cedillacmb" unicode="&#x327;" d="M-354 14 L-373 -35 Q-279 -76 -279 -174 Q-279 -249 -341 -299.5 Q-403 -350 -496 -350 Q-562 -350 -635 -336 L-610 -242 Q-554 -256 -524 -256 Q-428 -256 -428 -178 Q-428 -135 -483 -106 L-426 14 L-354 14 Z " />
<glyph glyph-name="ogonekcmb" unicode="&#x328;" d="M-270 -227 L-291 -367 Q-352 -383 -418 -383 Q-512 -383 -577.5 -327 Q-643 -271 -643 -193 Q-643 -107 -567 14 L-410 14 Q-469 -89 -469 -137 Q-469 -180 -434 -210 Q-399 -240 -348 -240 Q-317 -240 -270 -227 Z " />
<glyph glyph-name="soliduslongoverlaycmb" unicode="&#x338;" d="M-729 -18 L-327 1415 L-184 1415 L-585 -18 L-729 -18 Z " />
<glyph glyph-name="minus" unicode="&#x2212;" horiz-adv-x="1196" d="M1112 807 L1112 639 L145 639 L145 807 L1112 807 Z " />
<glyph glyph-name="Lslash" unicode="&#x141;" horiz-adv-x="854" d="M350 690 L270 156 L844 156 L821 0 L72 0 L147 543 L0 420 L27 602 L174 727 L268 1397 L453 1397 L377 874 L653 1106 L627 920 L350 690 Z " />
<glyph glyph-name="lslash" unicode="&#x142;" horiz-adv-x="385" d="M317 680 L221 0 L47 0 L125 551 L-25 440 L-10 565 L143 678 L244 1397 L418 1397 L336 807 L489 922 L471 795 L317 680 Z " />
<glyph glyph-name="afii10023" unicode="&#x401;" horiz-adv-x="1044" d="M1020 1397 L997 1231 L438 1231 L377 793 L870 793 L848 627 L352 627 L285 166 L1020 166 L995 0 L78 0 L281 1397 L1020 1397 Z M874 1755 Q894 1755 911 1747.5 Q928 1740 941 1727 Q954 1714 961.5 1697 Q969 1680 969 1661 Q969 1642 961.5 1625 Q954 1608 941 1595 Q928 1582 911 1574.5 Q894 1567 874 1567 Q855 1567 838 1574.5 Q821 1582 808 1595 Q795 1608 787.5 1625 Q780 1642 780 1661 Q780 1680 787.5 1697 Q795 1714 808 1727 Q821 1740 838 1747.5 Q855 1755 874 1755 Z M508 1755 Q527 1755 544 1747.5 Q561 1740 574 1727 Q587 1714 594.5 1697 Q602 1680 602 1661 Q602 1642 594.5 1625 Q587 1608 574 1595 Q561 1582 544 1574.5 Q527 1567 508 1567 Q489 1567 472 1574.5 Q455 1582 442 1595 Q429 1608 421.5 1625 Q414 1642 414 1661 Q414 1680 421.5 1697 Q429 1714 442 1727 Q455 1740 472 1747.5 Q489 1755 508 1755 Z " />
<glyph glyph-name="afii10051" unicode="&#x402;" horiz-adv-x="1393" d="M1141 1397 L1116 1223 L723 1223 L670 840 Q704 870 743.5 890.5 Q783 911 824 924 Q865 937 905.5 942.5 Q946 948 981 948 Q1049 948 1110.5 926.5 Q1172 905 1218.5 861.5 Q1265 818 1293 751.5 Q1321 685 1321 594 Q1321 477 1282.5 370 Q1244 263 1176.5 180.5 Q1109 98 1017 49 Q925 0 817 0 L836 166 Q898 166 953 202 Q1008 238 1049.5 295.5 Q1091 353 1115 425 Q1139 497 1139 569 Q1139 681 1082 734.5 Q1025 788 905 788 Q883 788 848 781.5 Q813 775 775 760.5 Q737 746 701.5 722.5 Q666 699 643 664 L551 0 L358 0 L530 1223 L137 1223 L162 1397 L1141 1397 Z " />
<glyph glyph-name="afii10052" unicode="&#x403;" horiz-adv-x="930" d="M1020 1397 L995 1223 L436 1223 L262 0 L78 0 L281 1397 L1020 1397 Z M758 1853 L965 1853 L733 1554 L618 1554 L758 1853 Z " />
<glyph glyph-name="afii10053" unicode="&#x404;" horiz-adv-x="1130" d="M954 786 L926 621 L299 621 L299 575 Q299 480 325 403 Q351 326 398.5 271.5 Q446 217 514 187.5 Q582 158 666 158 Q710 158 764.5 167 Q819 176 875 196.5 Q931 217 985.5 249.5 Q1040 282 1083 330 L1053 104 Q1027 70 981 47 Q935 24 880.5 9.5 Q826 -5 769.5 -11.5 Q713 -18 666 -18 Q528 -18 422.5 24.5 Q317 67 245.5 144 Q174 221 137 328 Q100 435 100 563 Q100 738 164.5 893 Q229 1048 351 1164 Q473 1280 651 1347.5 Q829 1415 1055 1415 L1188 1415 L1151 1239 L1049 1239 Q876 1239 751 1200 Q626 1161 540.5 1097.5 Q455 1034 404 952.5 Q353 871 328 786 L954 786 Z " />
<glyph glyph-name="afii10054" unicode="&#x405;" horiz-adv-x="938" d="M131 287 Q186 248 232.5 222.5 Q279 197 319 181.5 Q359 166 393.5 160 Q428 154 459 154 Q486 154 521.5 163.5 Q557 173 589 194.5 Q621 216 643.5 250.5 Q666 285 666 334 Q666 396 631 446.5 Q596 497 543.5 544.5 Q491 592 429.5 640 Q368 688 315.5 745.5 Q263 803 228 873 Q193 943 193 1034 Q193 1120 231 1190.5 Q269 1261 332 1311 Q395 1361 476 1388 Q557 1415 643 1415 Q664 1415 693.5 1412 Q723 1409 757 1402.5 Q791 1396 827.5 1385.5 Q864 1375 899 1360 L872 1169 Q807 1211 749.5 1227 Q692 1243 627 1243 Q571 1243 525.5 1228 Q480 1213 448 1185 Q416 1157 398.5 1118.5 Q381 1080 381 1032 Q381 976 416 928.5 Q451 881 503.5 835.5 Q556 790 617.5 742.5 Q679 695 731.5 638 Q784 581 819 511 Q854 441 854 350 Q854 285 828.5 219 Q803 153 751.5 100.5 Q700 48 622.5 15 Q545 -18 440 -18 Q371 -18 282 5 Q193 28 102 82 L131 287 Z " />
<glyph glyph-name="afii10055" unicode="&#x406;" horiz-adv-x="492" d="M469 1397 L272 0 L80 0 L276 1397 L469 1397 Z " />
<glyph glyph-name="afii10056" unicode="&#x407;" horiz-adv-x="492" d="M469 1397 L272 0 L80 0 L276 1397 L469 1397 Z M598 1755 Q617 1755 634 1747.5 Q651 1740 664 1727 Q677 1714 684.5 1697 Q692 1680 692 1661 Q692 1642 684.5 1625 Q677 1608 664 1595 Q651 1582 634 1574.5 Q617 1567 598 1567 Q579 1567 562 1574.5 Q545 1582 532 1595 Q519 1608 511.5 1625 Q504 1642 504 1661 Q504 1680 511.5 1697 Q519 1714 532 1727 Q545 1740 562 1747.5 Q579 1755 598 1755 Z M231 1755 Q251 1755 268 1747.5 Q285 1740 298 1727 Q311 1714 318.5 1697 Q326 1680 326 1661 Q326 1642 318.5 1625 Q311 1608 298 1595 Q285 1582 268 1574.5 Q251 1567 231 1567 Q212 1567 195 1574.5 Q178 1582 165 1595 Q152 1608 144.5 1625 Q137 1642 137 1661 Q137 1680 144.5 1697 Q152 1714 165 1727 Q178 1740 195 1747.5 Q212 1755 231 1755 Z " />
<glyph glyph-name="afii10057" unicode="&#x408;" horiz-adv-x="492" d="M475 1397 L264 -102 Q252 -190 224.5 -258.5 Q197 -327 152.5 -374.5 Q108 -422 46.5 -446.5 Q-15 -471 -96 -471 Q-162 -471 -229 -459 L-272 -287 Q-229 -296 -198.5 -299.5 Q-168 -303 -137 -303 Q-87 -303 -50 -291.5 Q-13 -280 13.5 -254.5 Q40 -229 56.5 -188.5 Q73 -148 82 -90 L291 1397 L475 1397 Z " />
<glyph glyph-name="afii10058" unicode="&#x409;" horiz-adv-x="1581" d="M827 797 Q853 805 885 812 Q917 819 950.5 824 Q984 829 1016 831.5 Q1048 834 1073 834 Q1162 834 1241 811.5 Q1320 789 1379.5 740.5 Q1439 692 1474 616.5 Q1509 541 1509 436 Q1509 348 1471.5 268.5 Q1434 189 1367 129.5 Q1300 70 1208 35 Q1116 0 1006 0 L778 0 L616 1159 L608 1159 L135 0 L-57 0 L555 1397 L731 1397 L827 797 Z M1014 674 Q999 674 976.5 672 Q954 670 930.5 666.5 Q907 663 886 657.5 Q865 652 852 645 L932 156 L987 156 Q1067 156 1129 177 Q1191 198 1234 235 Q1277 272 1299 322.5 Q1321 373 1321 432 Q1321 505 1298 552 Q1275 599 1234 626 Q1193 653 1137 663.5 Q1081 674 1014 674 Z " />
<glyph glyph-name="afii10059" unicode="&#x40a;" horiz-adv-x="2028" d="M1460 674 Q1445 674 1422.5 672 Q1400 670 1376.5 666.5 Q1353 663 1332 657.5 Q1311 652 1298 645 L1231 156 L1434 156 Q1514 156 1576 177 Q1638 198 1680.5 235 Q1723 272 1745 322.5 Q1767 373 1767 432 Q1767 505 1744 552 Q1721 599 1680 626 Q1639 653 1583 663.5 Q1527 674 1460 674 Z M1321 799 Q1339 806 1363 812.5 Q1387 819 1413.5 823.5 Q1440 828 1467.5 831 Q1495 834 1520 834 Q1608 834 1687 811.5 Q1766 789 1826 740.5 Q1886 692 1921 616.5 Q1956 541 1956 436 Q1956 348 1918.5 268.5 Q1881 189 1814 129.5 Q1747 70 1654.5 35 Q1562 0 1452 0 L1018 0 L1106 639 L354 639 L264 0 L72 0 L268 1397 L459 1397 L375 795 L1130 795 L1214 1397 L1405 1397 L1321 799 Z " />
<glyph glyph-name="afii10060" unicode="&#x40b;" horiz-adv-x="1491" d="M674 879 Q752 910 820.5 924 Q889 938 958 938 Q1041 938 1118.5 923.5 Q1196 909 1257 866.5 Q1318 824 1354.5 746.5 Q1391 669 1391 543 Q1391 528 1389.5 507 Q1388 486 1386 462.5 Q1384 439 1382 417 Q1380 395 1378 379 L1327 0 L1137 0 L1184 367 Q1186 382 1188.5 406 Q1191 430 1193 455 Q1195 480 1196.5 502.5 Q1198 525 1198 537 Q1198 597 1185.5 640 Q1173 683 1142 710.5 Q1111 738 1058 751 Q1005 764 924 764 Q797 764 649 705 L551 0 L358 0 L530 1223 L137 1223 L162 1397 L1141 1397 L1116 1223 L723 1223 L674 879 Z " />
<glyph glyph-name="afii10061" unicode="&#x40c;" horiz-adv-x="1204" d="M266 1397 L459 1397 L381 829 L389 829 Q454 829 502 838.5 Q550 848 589 875 Q628 902 663.5 950.5 Q699 999 739 1077 Q778 1152 811.5 1204.5 Q845 1257 877.5 1292.5 Q910 1328 943 1349 Q976 1370 1012.5 1380.5 Q1049 1391 1091 1394 Q1133 1397 1184 1397 L1214 1397 L1182 1231 L1155 1231 Q1106 1231 1071 1222.5 Q1036 1214 1006 1188.5 Q976 1163 946 1115 Q916 1067 877 989 Q829 890 765 831 Q701 772 616 743 Q655 731 690 701.5 Q725 672 758.5 628.5 Q792 585 824.5 529.5 Q857 474 891 410 L1106 0 L883 0 L715 360 Q669 460 629 522 Q589 584 548.5 618 Q508 652 464.5 664 Q421 676 367 676 L358 676 L264 0 L72 0 L266 1397 Z M778 1790 L985 1790 L754 1491 L639 1491 L778 1790 Z " />
<glyph glyph-name="afii10062" unicode="&#x40e;" horiz-adv-x="1227" d="M608 264 L1126 1397 L1323 1397 L645 -6 Q601 -97 554 -153.5 Q507 -210 457.5 -241.5 Q408 -273 355.5 -284 Q303 -295 248 -295 Q221 -295 186.5 -290 Q152 -285 119 -274.5 Q86 -264 57.5 -248 Q29 -232 14 -211 L82 -59 Q114 -103 164.5 -117 Q215 -131 270 -131 Q302 -131 333.5 -123 Q365 -115 393 -96 Q421 -77 444.5 -45 Q468 -13 485 35 L88 1397 L289 1397 L608 264 Z M596 1796 Q598 1736 636 1700.5 Q674 1665 737 1665 Q844 1665 918 1796 L1018 1796 Q981 1668 906.5 1601 Q832 1534 729 1534 Q673 1534 629 1555 Q585 1576 555.5 1612 Q526 1648 511.5 1695.5 Q497 1743 500 1796 L596 1796 Z " />
<glyph glyph-name="afii10145" unicode="&#x40f;" horiz-adv-x="1382" d="M1151 0 L709 0 L670 -248 L485 -248 L530 0 L76 0 L272 1397 L463 1397 L295 174 L985 174 L1155 1397 L1348 1397 L1151 0 Z " />
<glyph glyph-name="afii10017" unicode="&#x410;" horiz-adv-x="1055" d="M993 0 L821 0 L737 438 L299 438 L115 0 L-72 0 L545 1405 L721 1405 L993 0 Z M360 586 L709 586 L602 1159 L598 1159 L360 586 Z " />
<glyph glyph-name="afii10018" unicode="&#x411;" horiz-adv-x="1044" d="M274 1397 L1014 1397 L991 1223 L436 1223 L375 799 Q393 806 417 812.5 Q441 819 467 823.5 Q493 828 520.5 831 Q548 834 573 834 Q662 834 741 811.5 Q820 789 880 740.5 Q940 692 975 616.5 Q1010 541 1010 436 Q1010 348 972.5 268.5 Q935 189 868 129.5 Q801 70 708.5 35 Q616 0 506 0 L80 0 L274 1397 Z M514 674 Q499 674 476.5 672 Q454 670 430.5 666.5 Q407 663 386 657.5 Q365 652 352 645 L285 156 L487 156 Q567 156 629 177 Q691 198 734 235 Q777 272 799 322.5 Q821 373 821 432 Q821 505 798 552 Q775 599 734 626 Q693 653 637 663.5 Q581 674 514 674 Z " />
<glyph glyph-name="afii10019" unicode="&#x412;" horiz-adv-x="1044" d="M80 0 L274 1397 L479 1397 Q601 1397 685 1368 Q769 1339 822 1290.5 Q875 1242 898.5 1177.5 Q922 1113 922 1042 Q922 952 874 882 Q826 812 729 766 Q1018 666 1018 391 Q1018 303 980.5 230.5 Q943 158 876 107 Q809 56 716.5 28 Q624 0 514 0 L80 0 Z M481 838 Q539 838 585.5 853 Q632 868 665 895.5 Q698 923 715.5 961.5 Q733 1000 733 1047 Q733 1095 716.5 1133.5 Q700 1172 664.5 1197.5 Q629 1223 572.5 1233.5 Q516 1244 436 1237 L381 838 L481 838 Z M358 682 L285 156 L496 156 Q658 156 743.5 218.5 Q829 281 829 399 Q829 461 801.5 512.5 Q774 564 728 602 Q682 640 621.5 661 Q561 682 494 682 L358 682 Z " />
<glyph glyph-name="afii10020" unicode="&#x413;" horiz-adv-x="930" d="M1020 1397 L995 1223 L436 1223 L262 0 L78 0 L281 1397 L1020 1397 Z " />
<glyph glyph-name="afii10021" unicode="&#x414;" horiz-adv-x="1198" d="M627 1405 L803 1405 L1016 166 L1116 166 L1073 -248 L911 -248 L936 0 L129 0 L78 -248 L-92 -248 L-4 166 L88 166 L627 1405 Z M678 1159 L270 166 L844 166 L686 1159 L678 1159 Z " />
<glyph glyph-name="afii10022" unicode="&#x415;" horiz-adv-x="1044" d="M1020 1397 L997 1231 L438 1231 L377 793 L870 793 L848 627 L352 627 L285 166 L1020 166 L995 0 L78 0 L281 1397 L1020 1397 Z " />
<glyph glyph-name="afii10024" unicode="&#x416;" horiz-adv-x="1808" d="M1047 829 Q1108 830 1153.5 840.5 Q1199 851 1237.5 878 Q1276 905 1310.5 953 Q1345 1001 1384 1077 Q1422 1152 1454.5 1204.5 Q1487 1257 1517 1292.5 Q1547 1328 1578 1349 Q1609 1370 1643 1380.5 Q1677 1391 1717.5 1394 Q1758 1397 1808 1397 L1819 1397 L1786 1231 L1776 1231 Q1727 1231 1695.5 1222.5 Q1664 1214 1638 1188.5 Q1612 1163 1586 1115 Q1560 1067 1522 989 Q1472 890 1409.5 831 Q1347 772 1262 743 Q1300 731 1332.5 703 Q1365 675 1395 632.5 Q1425 590 1454.5 534 Q1484 478 1516 410 L1710 0 L1487 0 L1339 360 Q1299 459 1264 520 Q1229 581 1192.5 615 Q1156 649 1115.5 661.5 Q1075 674 1024 676 L930 0 L737 0 L831 676 L823 676 Q784 676 746.5 667 Q709 658 662.5 625 Q616 592 555.5 526.5 Q495 461 410 348 L147 0 L-92 0 L236 401 Q317 501 376 564.5 Q435 628 479 665 Q523 702 557.5 719 Q592 736 623 743 Q553 781 506 844.5 Q459 908 440 989 Q422 1067 406.5 1114.5 Q391 1162 369 1188 Q347 1214 313.5 1222.5 Q280 1231 225 1231 L240 1397 Q317 1397 372.5 1382 Q428 1367 469 1330 Q510 1293 538.5 1231.5 Q567 1170 590 1077 Q609 998 631 949.5 Q653 901 682.5 874 Q712 847 751.5 838 Q791 829 846 829 L854 829 L934 1397 L1126 1397 L1047 829 Z " />
<glyph glyph-name="afii10025" unicode="&#x417;" horiz-adv-x="1128" d="M276 627 L303 793 L518 793 Q604 793 668.5 815 Q733 837 775.5 873 Q818 909 839 955.5 Q860 1002 860 1051 Q860 1108 836.5 1146.5 Q813 1185 775 1207.5 Q737 1230 688.5 1239.5 Q640 1249 590 1249 Q556 1249 512.5 1243 Q469 1237 424 1226 Q379 1215 337 1198.5 Q295 1182 264 1161 L291 1354 Q326 1369 368 1380.5 Q410 1392 453.5 1399.5 Q497 1407 539.5 1411 Q582 1415 618 1415 Q701 1415 779 1393.5 Q857 1372 918 1330 Q979 1288 1016 1225 Q1053 1162 1053 1079 Q1053 999 1024.5 935 Q996 871 951 824.5 Q906 778 850 749.5 Q794 721 739 711 Q786 691 828.5 661.5 Q871 632 903 591 Q935 550 954 496.5 Q973 443 973 375 Q973 338 961 294 Q949 250 923.5 206.5 Q898 163 858 122.5 Q818 82 762 50.5 Q706 19 632.5 0.5 Q559 -18 467 -18 Q419 -18 360.5 -11.5 Q302 -5 244 5.5 Q186 16 134.5 30 Q83 44 49 59 L74 225 Q108 208 155.5 194 Q203 180 256 169.5 Q309 159 363 153 Q417 147 463 147 Q531 147 588.5 163 Q646 179 689 209 Q732 239 756 282 Q780 325 780 379 Q780 432 760 477 Q740 522 701 555.5 Q662 589 605.5 608 Q549 627 477 627 L276 627 Z " />
<glyph glyph-name="afii10026" unicode="&#x418;" horiz-adv-x="1430" d="M1407 1397 L1210 0 L1018 0 L1171 1042 L182 0 L72 0 L268 1397 L459 1397 L307 324 L1296 1397 L1407 1397 Z " />
<glyph glyph-name="afii10027" unicode="&#x419;" horiz-adv-x="1430" d="M1407 1397 L1210 0 L1018 0 L1171 1042 L182 0 L72 0 L268 1397 L459 1397 L307 324 L1296 1397 L1407 1397 Z M733 1796 Q735 1736 774 1700.5 Q813 1665 874 1665 Q983 1665 1055 1796 L1155 1796 Q1118 1668 1043.5 1601 Q969 1534 866 1534 Q810 1534 766 1555 Q722 1576 692.5 1612 Q663 1648 648.5 1695.5 Q634 1743 637 1796 L733 1796 Z " />
<glyph glyph-name="afii10028" unicode="&#x41a;" horiz-adv-x="1204" d="M266 1397 L459 1397 L381 829 L389 829 Q454 829 502 838.5 Q550 848 589 875 Q628 902 663.5 950.5 Q699 999 739 1077 Q778 1152 811.5 1204.5 Q845 1257 877.5 1292.5 Q910 1328 943 1349 Q976 1370 1012.5 1380.5 Q1049 1391 1091 1394 Q1133 1397 1184 1397 L1214 1397 L1182 1231 L1155 1231 Q1106 1231 1071 1222.5 Q1036 1214 1006 1188.5 Q976 1163 946 1115 Q916 1067 877 989 Q829 890 765 831 Q701 772 616 743 Q655 731 690 701.5 Q725 672 758.5 628.5 Q792 585 824.5 529.5 Q857 474 891 410 L1106 0 L883 0 L715 360 Q669 460 629 522 Q589 584 548.5 618 Q508 652 464.5 664 Q421 676 367 676 L358 676 L264 0 L72 0 L266 1397 Z " />
<glyph glyph-name="afii10029" unicode="&#x41b;" horiz-adv-x="1044" d="M733 1405 L975 0 L799 0 L616 1159 L608 1159 L135 0 L-57 0 L557 1405 L733 1405 Z " />
<glyph glyph-name="afii10030" unicode="&#x41c;" horiz-adv-x="1665" d="M1522 1397 L1522 0 L1337 0 L1337 1059 L1333 1059 L772 0 L530 1069 L526 1069 L182 0 L-2 0 L459 1397 L618 1397 L836 451 L1337 1397 L1522 1397 Z " />
<glyph glyph-name="afii10031" unicode="&#x41d;" horiz-adv-x="1430" d="M1407 1397 L1210 0 L1018 0 L1106 618 L350 618 L264 0 L72 0 L268 1397 L459 1397 L375 793 L1130 793 L1214 1397 L1407 1397 Z " />
<glyph glyph-name="afii10032" unicode="&#x41e;" horiz-adv-x="1343" d="M1276 829 Q1276 704 1251 592.5 Q1226 481 1181 387 Q1136 293 1073.5 218 Q1011 143 936 90.5 Q861 38 776.5 10 Q692 -18 602 -18 Q492 -18 400.5 25.5 Q309 69 243 147 Q177 225 140.5 333 Q104 441 104 571 Q104 663 123.5 761 Q143 859 181 953 Q219 1047 276 1131 Q333 1215 408 1278 Q483 1341 577 1378 Q671 1415 782 1415 Q893 1415 984.5 1372.5 Q1076 1330 1140.5 1253 Q1205 1176 1240.5 1068 Q1276 960 1276 829 Z M1087 862 Q1087 954 1065 1026 Q1043 1098 1003 1147 Q963 1196 906 1221.5 Q849 1247 780 1247 Q698 1247 630 1216 Q562 1185 507.5 1131.5 Q453 1078 413 1008 Q373 938 346 860 Q319 782 306 701 Q293 620 293 545 Q293 453 315 379.5 Q337 306 378 255 Q419 204 477 177 Q535 150 606 150 Q704 150 791 205.5 Q878 261 944 357.5 Q1010 454 1048.5 584 Q1087 714 1087 862 Z " />
<glyph glyph-name="afii10033" unicode="&#x41f;" horiz-adv-x="1430" d="M1407 1397 L1210 0 L1018 0 L1192 1223 L434 1223 L264 0 L72 0 L268 1397 L1407 1397 Z " />
<glyph glyph-name="afii10034" unicode="&#x420;" horiz-adv-x="918" d="M252 1397 L492 1397 Q546 1397 600.5 1389.5 Q655 1382 705.5 1364.5 Q756 1347 799.5 1317.5 Q843 1288 875 1244 Q907 1200 925.5 1140 Q944 1080 944 1001 Q944 962 934.5 916.5 Q925 871 903.5 825.5 Q882 780 847.5 737.5 Q813 695 763.5 662 Q714 629 648 609.5 Q582 590 498 590 L330 590 L248 0 L55 0 L252 1397 Z M420 1231 L354 756 L489 756 Q561 756 612 779 Q663 802 695 838 Q727 874 741.5 919 Q756 964 756 1008 Q756 1050 742.5 1090 Q729 1130 699 1161.5 Q669 1193 620.5 1212 Q572 1231 502 1231 L420 1231 Z " />
<glyph glyph-name="afii10035" unicode="&#x421;" horiz-adv-x="1130" d="M1188 1415 L1151 1239 L1049 1239 Q904 1239 792 1208.5 Q680 1178 596.5 1126.5 Q513 1075 456.5 1007.5 Q400 940 365 866 Q330 792 314.5 717 Q299 642 299 575 Q299 480 325 403 Q351 326 398.5 271.5 Q446 217 514 187.5 Q582 158 666 158 Q710 158 763 170.5 Q816 183 871.5 206 Q927 229 981.5 260.5 Q1036 292 1083 330 L1053 104 Q947 44 841.5 13 Q736 -18 639 -18 Q520 -18 421 24.5 Q322 67 250.5 144 Q179 221 139.5 328 Q100 435 100 563 Q100 746 165.5 902 Q231 1058 354.5 1172 Q478 1286 655 1350.5 Q832 1415 1055 1415 L1188 1415 Z " />
<glyph glyph-name="afii10036" unicode="&#x422;" horiz-adv-x="1044" d="M1141 1397 L1116 1223 L723 1223 L551 0 L358 0 L530 1223 L137 1223 L162 1397 L1141 1397 Z " />
<glyph glyph-name="afii10037" unicode="&#x423;" horiz-adv-x="1227" d="M608 264 L1126 1397 L1323 1397 L645 -6 Q601 -97 554 -153.5 Q507 -210 457.5 -241.5 Q408 -273 355.5 -284 Q303 -295 248 -295 Q221 -295 186.5 -290 Q152 -285 119 -274.5 Q86 -264 57.5 -248 Q29 -232 14 -211 L82 -59 Q114 -103 164.5 -117 Q215 -131 270 -131 Q302 -131 333.5 -123 Q365 -115 393 -96 Q421 -77 444.5 -45 Q468 -13 485 35 L88 1397 L289 1397 L608 264 Z " />
<glyph glyph-name="afii10038" unicode="&#x424;" horiz-adv-x="1556" d="M801 1415 L993 1415 L973 1268 Q1081 1268 1179.5 1238 Q1278 1208 1353 1146.5 Q1428 1085 1473 993 Q1518 901 1518 776 Q1518 684 1490.5 602 Q1463 520 1414.5 451.5 Q1366 383 1300 328.5 Q1234 274 1155.5 236 Q1077 198 990.5 178 Q904 158 815 158 L788 -18 L598 -18 L625 158 Q517 158 418.5 188 Q320 218 245 279 Q170 340 125 432.5 Q80 525 80 649 Q80 742 107 824 Q134 906 182 974.5 Q230 1043 296.5 1097.5 Q363 1152 440.5 1190 Q518 1228 604.5 1248 Q691 1268 780 1268 L801 1415 Z M838 317 Q938 317 1027 353 Q1116 389 1183 453 Q1250 517 1289.5 604.5 Q1329 692 1329 795 Q1329 866 1304.5 924 Q1280 982 1232 1023 Q1184 1064 1113 1086 Q1042 1108 948 1108 L838 317 Z M758 1108 Q658 1108 569 1072 Q480 1036 413 972.5 Q346 909 307 821.5 Q268 734 268 631 Q268 559 292.5 501 Q317 443 364.5 402 Q412 361 483 339 Q554 317 647 317 L758 1108 Z " />
<glyph glyph-name="afii10039" unicode="&#x425;" horiz-adv-x="1366" d="M1440 1397 L842 719 L1296 0 L1077 0 L715 575 L215 0 L-37 0 L612 739 L199 1397 L410 1397 L741 883 L1196 1397 L1440 1397 Z " />
<glyph glyph-name="afii10040" unicode="&#x426;" horiz-adv-x="1423" d="M1141 -248 L1174 0 L72 0 L268 1397 L459 1397 L291 174 L981 174 L1151 1397 L1343 1397 L1174 174 L1382 174 L1323 -248 L1141 -248 Z " />
<glyph glyph-name="afii10041" unicode="&#x427;" horiz-adv-x="1206" d="M1184 1397 L987 0 L795 0 L877 592 Q799 563 730 547.5 Q661 532 592 532 Q538 532 484.5 538 Q431 544 383 560 Q335 576 294 604 Q253 632 223.5 676 Q194 720 177 782 Q160 844 160 928 Q160 943 161 964 Q162 985 164 1008.5 Q166 1032 168 1054 Q170 1076 172 1092 L213 1397 L403 1397 L367 1104 Q364 1089 361.5 1065 Q359 1041 356.5 1016 Q354 991 353 968.5 Q352 946 352 934 Q352 873 364.5 830 Q377 787 408 759.5 Q439 732 492.5 719.5 Q546 707 627 707 Q751 707 901 766 L991 1397 L1184 1397 Z " />
<glyph glyph-name="afii10042" unicode="&#x428;" horiz-adv-x="1792" d="M741 174 L913 1397 L1104 1397 L936 174 L1391 174 L1563 1397 L1755 1397 L1563 0 L68 0 L264 1397 L455 1397 L287 174 L741 174 Z " />
<glyph glyph-name="afii10043" unicode="&#x429;" horiz-adv-x="1839" d="M745 174 L918 1397 L1108 1397 L940 174 L1395 174 L1567 1397 L1759 1397 L1589 174 L1798 174 L1741 -248 L1554 -248 L1587 0 L72 0 L268 1397 L459 1397 L291 174 L745 174 Z " />
<glyph glyph-name="afii10044" unicode="&#x42a;" horiz-adv-x="1182" d="M475 799 Q493 806 517 812.5 Q541 819 567.5 823.5 Q594 828 621.5 831 Q649 834 674 834 Q762 834 841 811.5 Q920 789 980 740.5 Q1040 692 1075 616.5 Q1110 541 1110 436 Q1110 348 1072.5 268.5 Q1035 189 968 129.5 Q901 70 808.5 35 Q716 0 606 0 L172 0 L342 1223 L4 1223 L29 1397 L559 1397 L475 799 Z M614 674 Q599 674 576.5 672 Q554 670 531 666.5 Q508 663 487 657.5 Q466 652 453 645 L385 156 L588 156 Q668 156 730 177 Q792 198 835 235 Q878 272 900 322.5 Q922 373 922 432 Q922 505 899 552 Q876 599 835 626 Q794 653 737.5 663.5 Q681 674 614 674 Z " />
<glyph glyph-name="afii10045" unicode="&#x42b;" horiz-adv-x="1589" d="M1518 1397 L1321 0 L1128 0 L1325 1397 L1518 1397 Z M266 1397 L459 1397 L375 799 Q393 806 417 812.5 Q441 819 467 823.5 Q493 828 520.5 831 Q548 834 573 834 Q662 834 741 811.5 Q820 789 880 740.5 Q940 692 975 616.5 Q1010 541 1010 436 Q1010 348 972.5 268.5 Q935 189 868 129.5 Q801 70 708.5 35 Q616 0 506 0 L72 0 L266 1397 Z M514 674 Q499 674 476.5 672 Q454 670 430.5 666.5 Q407 663 386 657.5 Q365 652 352 645 L285 156 L487 156 Q567 156 629 177 Q691 198 734 235 Q777 272 799 322.5 Q821 373 821 432 Q821 505 798 552 Q775 599 734 626 Q693 653 637 663.5 Q581 674 514 674 Z " />
<glyph glyph-name="afii10046" unicode="&#x42c;" horiz-adv-x="1081" d="M266 1397 L459 1397 L375 799 Q393 806 417 812.5 Q441 819 467 823.5 Q493 828 520.5 831 Q548 834 573 834 Q662 834 741 811.5 Q820 789 880 740.5 Q940 692 975 616.5 Q1010 541 1010 436 Q1010 348 972.5 268.5 Q935 189 868 129.5 Q801 70 708.5 35 Q616 0 506 0 L72 0 L266 1397 Z M514 674 Q499 674 476.5 672 Q454 670 430.5 666.5 Q407 663 386 657.5 Q365 652 352 645 L285 156 L487 156 Q567 156 629 177 Q691 198 734 235 Q777 272 799 322.5 Q821 373 821 432 Q821 505 798 552 Q775 599 734 626 Q693 653 637 663.5 Q581 674 514 674 Z " />
<glyph glyph-name="afii10047" unicode="&#x42d;" horiz-adv-x="1214" d="M63 -18 L100 158 L203 158 Q374 158 499 200.5 Q624 243 710.5 311.5 Q797 380 849 466.5 Q901 553 926 641 L348 641 L371 807 L952 807 L952 821 Q952 916 926 993.5 Q900 1071 852.5 1125.5 Q805 1180 737.5 1209.5 Q670 1239 586 1239 Q541 1239 488 1226 Q435 1213 379.5 1190 Q324 1167 269.5 1135.5 Q215 1104 168 1067 L199 1292 Q305 1352 410 1383.5 Q515 1415 612 1415 Q731 1415 830 1372.5 Q929 1330 1000.5 1253 Q1072 1176 1111.5 1069 Q1151 962 1151 834 Q1151 651 1085.5 495 Q1020 339 897 225 Q774 111 597 46.5 Q420 -18 197 -18 L63 -18 Z " />
<glyph glyph-name="afii10048" unicode="&#x42e;" horiz-adv-x="1778" d="M539 645 L354 645 L264 0 L72 0 L268 1397 L461 1397 L377 799 L567 799 Q585 876 615.5 952 Q646 1028 688.5 1096 Q731 1164 785.5 1222.5 Q840 1281 906 1324 Q972 1367 1050 1391 Q1128 1415 1217 1415 Q1328 1415 1419 1372.5 Q1510 1330 1574.5 1253 Q1639 1176 1674.5 1068 Q1710 960 1710 829 Q1710 704 1685 592.5 Q1660 481 1615 387 Q1570 293 1507.5 218 Q1445 143 1370 90.5 Q1295 38 1210.5 10 Q1126 -18 1036 -18 Q926 -18 834.5 25.5 Q743 69 677.5 147 Q612 225 575.5 333 Q539 441 539 571 L539 645 Z M1522 862 Q1522 954 1500 1026 Q1478 1098 1437.5 1147 Q1397 1196 1340 1221.5 Q1283 1247 1214 1247 Q1132 1247 1064 1216 Q996 1185 941.5 1131.5 Q887 1078 847 1008 Q807 938 780 860 Q753 782 740 701 Q727 620 727 545 Q727 453 749 379.5 Q771 306 812 255 Q853 204 911 177 Q969 150 1040 150 Q1138 150 1225.5 205.5 Q1313 261 1379 357.5 Q1445 454 1483.5 584 Q1522 714 1522 862 Z " />
<glyph glyph-name="afii10049" unicode="&#x42f;" horiz-adv-x="1192" d="M180 350 Q219 398 255 441 Q291 484 327.5 520 Q364 556 403 583.5 Q442 611 487 627 Q442 642 393 669 Q344 696 303.5 739 Q263 782 237 843 Q211 904 211 987 Q211 1081 256.5 1157.5 Q302 1234 378 1288 Q454 1342 553 1371.5 Q652 1401 758 1401 L1169 1401 L973 0 L780 0 L862 596 L807 596 Q751 596 700.5 581 Q650 566 599 531 Q548 496 491.5 437 Q435 378 367 291 L141 0 L-98 0 L180 350 Z M887 760 L952 1235 L743 1235 Q670 1235 610.5 1215.5 Q551 1196 508.5 1161.5 Q466 1127 443 1080 Q420 1033 420 977 Q420 870 482.5 815 Q545 760 686 760 L887 760 Z " />
<glyph glyph-name="afii10065" unicode="&#x430;" horiz-adv-x="961" d="M627 106 L623 111 Q569 51 505 16.5 Q441 -18 375 -18 Q311 -18 256 10.5 Q201 39 160 88.5 Q119 138 95.5 204.5 Q72 271 72 346 Q72 419 87 492 Q102 565 134 632 Q166 699 216 757 Q266 815 335 857.5 Q404 900 494 924 Q584 948 696 948 Q721 948 750.5 946 Q780 944 810 940 Q840 936 867 931 Q894 926 913 920 L784 0 L610 0 L627 106 Z M723 797 Q709 799 695 799 L670 799 Q582 799 516.5 776 Q451 753 404.5 715.5 Q358 678 328 631.5 Q298 585 280.5 538.5 Q263 492 256.5 449 Q250 406 250 377 Q250 322 263.5 275.5 Q277 229 301 195.5 Q325 162 358.5 143.5 Q392 125 432 125 Q458 125 487.5 137 Q517 149 546 169 Q575 189 601 214 Q627 239 647 266 L723 797 Z " />
<glyph glyph-name="afii10066" unicode="&#x431;" horiz-adv-x="918" d="M252 365 Q252 310 264.5 264.5 Q277 219 299 187.5 Q321 156 350.5 138.5 Q380 121 414 121 Q468 121 516 153.5 Q564 186 600 244 Q636 302 657 382 Q678 462 678 557 Q678 615 668 662 Q658 709 638 742 Q618 775 589 793 Q560 811 522 811 Q466 811 417 774 Q368 737 331 675.5 Q294 614 273 533 Q252 452 252 365 Z M264 778 Q294 825 327 857.5 Q360 890 393 910 Q426 930 459 939 Q492 948 522 948 Q600 948 662 919 Q724 890 767 837.5 Q810 785 833 711 Q856 637 856 547 Q856 418 822 312 Q788 206 729 130 Q670 54 590.5 12.5 Q511 -29 420 -29 Q336 -29 271.5 3 Q207 35 162.5 94 Q118 153 95 237 Q72 321 72 426 Q72 636 123 814.5 Q174 993 280.5 1124 Q387 1255 551.5 1329 Q716 1403 942 1403 L1016 1403 L965 1260 L881 1260 Q784 1260 692 1235 Q600 1210 520 1153 Q440 1096 374.5 1004 Q309 912 264 778 Z " />
<glyph glyph-name="afii10067" unicode="&#x432;" horiz-adv-x="868" d="M63 0 L186 895 Q259 920 333.5 934 Q408 948 483 948 Q625 948 701.5 886 Q778 824 778 715 Q778 630 735 572 Q692 514 616 489 Q688 472 733 418 Q778 364 778 279 Q778 211 751 159 Q724 107 677.5 71.5 Q631 36 569 18 Q507 0 438 0 L63 0 Z M406 553 Q506 553 553 581.5 Q600 610 600 682 Q600 742 564 768.5 Q528 795 459 795 Q445 795 428.5 793.5 Q412 792 396.5 789 Q381 786 367 782 Q353 778 344 774 L307 553 L406 553 Z M295 432 L258 154 L377 154 Q492 154 546 189 Q600 224 600 293 Q600 323 587.5 348.5 Q575 374 552.5 392.5 Q530 411 499 421.5 Q468 432 430 432 L295 432 Z " />
<glyph glyph-name="afii10068" unicode="&#x433;" horiz-adv-x="655" d="M717 920 L692 768 L328 768 L221 0 L47 0 L176 920 L717 920 Z " />
<glyph glyph-name="afii10069" unicode="&#x434;" horiz-adv-x="961" d="M608 102 Q588 80 562 61 Q536 42 507 28.5 Q478 15 447 7.5 Q416 0 387 0 Q302 0 240.5 26.5 Q179 53 139.5 101 Q100 149 81.5 216 Q63 283 63 365 Q63 429 77.5 497 Q92 565 124 630 Q156 695 206.5 752.5 Q257 810 329.5 853.5 Q402 897 497.5 922.5 Q593 948 715 948 Q746 948 776 945 Q806 942 831.5 937.5 Q857 933 877 928.5 Q897 924 909 920 L784 117 Q738 -185 613 -328 Q488 -471 279 -471 Q174 -471 98.5 -445.5 Q23 -420 -35 -371 L-35 -172 Q-4 -210 29 -237.5 Q62 -265 101 -282.5 Q140 -300 186 -308.5 Q232 -317 289 -317 Q351 -317 401 -295.5 Q451 -274 490 -225 Q529 -176 558 -95.5 Q587 -15 608 102 Z M715 797 Q712 799 702 799 L684 799 Q582 795 509 768 Q436 741 387 700 Q338 659 309 610 Q280 561 265.5 513 Q251 465 246.5 423 Q242 381 242 354 Q242 241 286.5 193 Q331 145 422 145 Q447 145 475.5 154 Q504 163 532 178.5 Q560 194 585.5 214 Q611 234 629 256 L715 797 Z " />
<glyph glyph-name="afii10070" unicode="&#x435;" horiz-adv-x="897" d="M256 477 Q240 385 254.5 317 Q269 249 304 204 Q339 159 388.5 137 Q438 115 492 115 Q619 115 791 240 L766 74 Q627 -29 459 -29 Q371 -29 300 2.5 Q229 34 178.5 92.5 Q128 151 101 233 Q74 315 74 416 Q74 529 107.5 626 Q141 723 199.5 794.5 Q258 866 338 907 Q418 948 510 948 Q587 948 652 914 Q717 880 761 818 Q805 756 824.5 669 Q844 582 829 477 L256 477 Z M668 598 Q668 642 658 680 Q648 718 627.5 745.5 Q607 773 576 789 Q545 805 502 805 Q424 805 371 754.5 Q318 704 283 598 L668 598 Z " />
<glyph glyph-name="afii10072" unicode="&#x436;" horiz-adv-x="1323" d="M645 920 L825 920 L770 541 Q799 542 822.5 549.5 Q846 557 867 572 Q888 587 907.5 610.5 Q927 634 948 668 L1026 799 Q1068 869 1125 894.5 Q1182 920 1251 920 L1303 920 L1278 766 L1253 766 Q1232 766 1218 763.5 Q1204 761 1192.5 753.5 Q1181 746 1170 731.5 Q1159 717 1145 694 L1079 584 Q1050 533 1010 505 Q970 477 924 471 Q973 456 1012.5 404.5 Q1052 353 1090 272 L1217 0 L1024 0 L961 150 Q941 194 920 240.5 Q899 287 874 325.5 Q849 364 819.5 389.5 Q790 415 752 418 L692 0 L518 0 L575 418 L557 418 Q532 418 504.5 410.5 Q477 403 444 376 Q411 349 369.5 297 Q328 245 274 156 L180 0 L-20 0 L164 272 Q224 360 285 414 Q346 468 406 477 Q361 479 323.5 510.5 Q286 542 272 612 L258 682 Q252 708 244 724.5 Q236 741 224 750 Q212 759 195 762.5 Q178 766 154 766 L125 766 L150 920 L197 920 Q294 920 343 878.5 Q392 837 408 768 L426 684 Q435 641 448 613 Q461 585 481 569 Q501 553 528.5 547 Q556 541 594 541 L645 920 Z " />
<glyph glyph-name="afii10073" unicode="&#x437;" horiz-adv-x="799" d="M213 399 L233 541 L317 541 Q455 541 522.5 578 Q590 615 590 678 Q590 707 577 728.5 Q564 750 541.5 764.5 Q519 779 488 786 Q457 793 420 793 Q379 793 334.5 786 Q290 779 248 766 Q206 753 168.5 733.5 Q131 714 104 688 L127 858 Q159 883 199 900.5 Q239 918 281 928.5 Q323 939 364.5 943.5 Q406 948 442 948 Q515 948 574.5 932.5 Q634 917 676 888 Q718 859 741 816 Q764 773 764 719 Q764 628 703 566.5 Q642 505 539 477 Q626 457 672.5 406 Q719 355 719 270 Q719 191 682.5 136 Q646 81 587.5 47 Q529 13 456 -2.5 Q383 -18 311 -18 Q284 -18 238.5 -12 Q193 -6 145 5 Q97 16 54.5 31.5 Q12 47 -10 66 L16 240 Q42 215 83 196 Q124 177 168.5 164 Q213 151 255.5 144 Q298 137 328 137 Q382 137 422.5 148.5 Q463 160 489 179.5 Q515 199 528 225.5 Q541 252 541 281 Q541 319 518.5 342.5 Q496 366 458.5 378.5 Q421 391 372 395 Q323 399 270 399 L213 399 Z " />
<glyph glyph-name="afii10074" unicode="&#x438;" horiz-adv-x="981" d="M913 920 L784 0 L610 0 L698 584 L174 0 L61 0 L190 920 L365 920 L264 295 L801 920 L913 920 Z " />
<glyph glyph-name="afii10075" unicode="&#x439;" horiz-adv-x="981" d="M913 920 L784 0 L610 0 L698 584 L174 0 L61 0 L190 920 L365 920 L264 295 L801 920 L913 920 Z M467 1350 Q469 1290 507 1254.5 Q545 1219 608 1219 Q716 1219 788 1350 L889 1350 Q852 1222 777.5 1154.5 Q703 1087 600 1087 Q544 1087 500 1108 Q456 1129 426.5 1165 Q397 1201 382.5 1249 Q368 1297 371 1350 L467 1350 Z " />
<glyph glyph-name="afii10076" unicode="&#x43a;" horiz-adv-x="891" d="M317 541 Q350 541 377 547 Q404 553 427.5 567.5 Q451 582 472.5 606.5 Q494 631 516 668 L594 799 Q636 869 693 894.5 Q750 920 819 920 L870 920 L842 782 L827 782 Q806 782 791 777 Q776 772 763.5 761.5 Q751 751 739 734 Q727 717 713 694 L647 584 Q618 533 578 505 Q538 477 492 471 Q516 463 541 440.5 Q566 418 588 389 Q610 360 628 329 Q646 298 657 272 L784 0 L592 0 L528 150 Q508 196 486 243.5 Q464 291 438 330 Q412 369 381 393.5 Q350 418 311 418 L299 418 L242 0 L68 0 L195 920 L375 920 L317 541 Z " />
<glyph glyph-name="afii10077" unicode="&#x43b;" horiz-adv-x="897" d="M475 631 L125 0 L-59 0 L496 958 L573 958 L834 0 L639 0 L475 631 Z " />
<glyph glyph-name="afii10078" unicode="&#x43c;" horiz-adv-x="1204" d="M395 940 L596 352 L952 940 L1137 940 L1067 0 L895 0 L940 666 L547 0 L324 666 L188 0 L16 0 L211 940 L395 940 Z " />
<glyph glyph-name="afii10079" unicode="&#x43d;" horiz-adv-x="981" d="M913 920 L784 0 L610 0 L668 408 L293 408 L236 0 L61 0 L190 920 L365 920 L315 561 L688 561 L739 920 L913 920 Z " />
<glyph glyph-name="afii10080" unicode="&#x43e;" horiz-adv-x="918" d="M856 547 Q856 418 822 312 Q788 206 729 130 Q670 54 590.5 12.5 Q511 -29 420 -29 Q339 -29 274.5 -1 Q210 27 165.5 80 Q121 133 97.5 209.5 Q74 286 74 383 Q74 504 107.5 607.5 Q141 711 200 786.5 Q259 862 339.5 905 Q420 948 514 948 Q592 948 655.5 919 Q719 890 763.5 837.5 Q808 785 832 711 Q856 637 856 547 Z M252 365 Q252 310 264.5 264.5 Q277 219 299 187.5 Q321 156 350.5 138.5 Q380 121 414 121 Q468 121 516 153.5 Q564 186 600 244 Q636 302 657 382 Q678 462 678 557 Q678 615 666.5 662 Q655 709 633.5 742 Q612 775 582 793 Q552 811 514 811 Q458 811 410 774 Q362 737 327 675.5 Q292 614 272 533 Q252 452 252 365 Z " />
<glyph glyph-name="afii10081" unicode="&#x43f;" horiz-adv-x="961" d="M190 920 L365 920 L342 758 L348 754 Q424 848 498.5 891 Q573 934 651 934 Q713 934 755.5 908.5 Q798 883 824.5 842.5 Q851 802 862.5 751 Q874 700 874 649 Q874 641 872.5 623 Q871 605 869 585 Q867 565 865 547 L862 520 L782 0 L610 0 L686 526 Q688 541 690 558.5 Q692 576 694 593 Q696 610 697 623.5 Q698 637 698 643 Q698 685 688 713.5 Q678 742 663 759.5 Q648 777 629.5 784 Q611 791 594 791 Q576 791 549 783 Q522 775 487 752.5 Q452 730 409 690 Q366 650 317 586 L233 0 L61 0 L190 920 Z " />
<glyph glyph-name="afii10082" unicode="&#x440;" horiz-adv-x="1004" d="M428 1153 L395 920 Q435 936 471 942 Q509 948 551 948 Q632 948 702 915.5 Q772 883 823 826 Q874 769 903 690.5 Q932 612 932 520 Q932 462 918.5 399 Q905 336 876.5 275 Q848 214 804 159 Q760 104 698.5 62 Q637 20 557 -4.5 Q477 -29 377 -29 L262 -29 L201 -471 L27 -471 L190 692 Q155 667 129 638 Q103 609 84.5 583.5 Q66 558 54.5 541 Q43 524 37 524 Q29 524 29 537 Q29 561 43.5 597 Q58 633 82.5 672 Q107 711 139.5 749 Q172 787 207 815 L254 1153 L428 1153 Z M367 119 Q468 119 541 156.5 Q614 194 661 252 Q708 310 731 381.5 Q754 453 754 520 Q754 598 732 654 Q710 710 673 746 Q636 782 589 799.5 Q542 817 492 817 Q475 817 461.5 816 Q448 815 435.5 812 Q423 809 409 804 Q395 799 377 791 L283 119 L367 119 Z " />
<glyph glyph-name="afii10083" unicode="&#x441;" horiz-adv-x="788" d="M780 778 Q710 793 647 793 Q551 793 473.5 760 Q396 727 341 672.5 Q286 618 256.5 548.5 Q227 479 227 406 Q227 340 244.5 288.5 Q262 237 295 201 Q328 165 374.5 146 Q421 127 479 127 Q548 127 607 147 Q666 167 731 205 L711 37 Q645 2 585 -13.5 Q525 -29 455 -29 Q362 -29 287 1 Q212 31 159 86.5 Q106 142 77.5 220 Q49 298 49 395 Q49 507 91 607.5 Q133 708 211 783.5 Q289 859 399 903.5 Q509 948 645 948 Q717 948 803 932 L780 778 Z " />
<glyph glyph-name="afii10084" unicode="&#x442;" horiz-adv-x="1518" d="M236 0 L61 0 L193 920 L367 920 L342 760 L348 756 Q433 851 510 892.5 Q587 934 664 934 Q692 934 724.5 925.5 Q757 917 787 893.5 Q817 870 840 830 Q863 790 872 727 Q922 789 969.5 829 Q1017 869 1060.5 892 Q1104 915 1143.5 924.5 Q1183 934 1217 934 Q1261 934 1300 919 Q1339 904 1369 872.5 Q1399 841 1416.5 792.5 Q1434 744 1434 676 Q1434 667 1432.5 652.5 Q1431 638 1429.5 622.5 Q1428 607 1426 591 Q1424 575 1423 563 L1343 0 L1169 0 L1251 571 Q1254 597 1257 621 Q1260 645 1260 659 Q1260 725 1234.5 761 Q1209 797 1161 797 Q1138 797 1108 787.5 Q1078 778 1041.5 753.5 Q1005 729 962.5 688 Q920 647 872 584 L788 0 L614 0 L692 549 Q693 559 695 574 Q697 589 698.5 604.5 Q700 620 701 634 Q702 648 702 657 Q702 723 678 760 Q654 797 594 797 Q569 797 536 782 Q503 767 466.5 739 Q430 711 391.5 671.5 Q353 632 317 584 L236 0 Z " />
<glyph glyph-name="afii10085" unicode="&#x443;" horiz-adv-x="768" d="M819 920 L160 -471 L-25 -471 L225 55 L47 920 L221 920 L344 287 L348 287 L637 920 L819 920 Z " />
<glyph glyph-name="afii10086" unicode="&#x444;" horiz-adv-x="1425" d="M766 170 Q780 153 811 141 Q842 129 893 129 Q959 129 1013 165.5 Q1067 202 1105.5 263.5 Q1144 325 1165 405.5 Q1186 486 1186 573 Q1186 645 1170 689 Q1154 733 1128 756.5 Q1102 780 1069 787.5 Q1036 795 1001 795 Q980 795 956 792 Q932 789 910 783.5 Q888 778 870.5 770.5 Q853 763 844 754 L766 170 Z M571 29 Q534 6 482.5 -6 Q431 -18 383 -18 Q232 -18 153 73.5 Q74 165 74 352 Q74 477 112 584 Q150 691 216 769.5 Q282 848 371 893 Q460 938 563 938 Q605 938 638.5 925.5 Q672 913 692 897 L764 1397 L938 1397 L866 891 Q903 914 955 926 Q1007 938 1055 938 Q1205 938 1284.5 846 Q1364 754 1364 567 Q1364 443 1326 336 Q1288 229 1222 150.5 Q1156 72 1066.5 27 Q977 -18 874 -18 Q832 -18 798.5 -5.5 Q765 7 745 23 L676 -471 L502 -471 L571 29 Z M672 750 Q658 767 626 779 Q594 791 545 791 Q479 791 425 754.5 Q371 718 332.5 656.5 Q294 595 273 514.5 Q252 434 252 346 Q252 274 268 230.5 Q284 187 309.5 163.5 Q335 140 368.5 132.5 Q402 125 436 125 Q458 125 482 128 Q506 131 528 136 Q550 141 567.5 149 Q585 157 594 166 L672 750 Z " />
<glyph glyph-name="afii10087" unicode="&#x445;" horiz-adv-x="874" d="M907 920 L537 465 L770 0 L584 0 L416 344 L150 0 L-63 0 L338 487 L121 920 L307 920 L453 610 L692 920 L907 920 Z " />
<glyph glyph-name="afii10088" unicode="&#x446;" horiz-adv-x="1004" d="M913 920 L807 154 L958 154 L913 -201 L752 -201 L778 0 L61 0 L190 920 L365 920 L258 154 L633 154 L739 920 L913 920 Z " />
<glyph glyph-name="afii10089" unicode="&#x447;" horiz-adv-x="909" d="M842 920 L713 0 L539 0 L592 391 Q569 378 539.5 366.5 Q510 355 478.5 346.5 Q447 338 416 333 Q385 328 360 328 Q217 328 149.5 397 Q82 466 82 612 Q82 634 83.5 661.5 Q85 689 89.5 725.5 Q94 762 101 810 Q108 858 119 920 L293 920 Q280 836 273 782.5 Q266 729 262.5 696.5 Q259 664 258.5 647.5 Q258 631 258 621 Q258 575 267 545.5 Q276 516 293 499.5 Q310 483 334 477 Q358 471 387 471 Q408 471 437.5 476 Q467 481 498.5 490 Q530 499 560.5 511.5 Q591 524 614 539 L668 920 L842 920 Z " />
<glyph glyph-name="afii10090" unicode="&#x448;" horiz-adv-x="1362" d="M47 0 L176 920 L350 920 L242 154 L543 154 L647 920 L821 920 L715 154 L1016 154 L1120 920 L1294 920 L1169 0 L47 0 Z " />
<glyph glyph-name="afii10091" unicode="&#x449;" horiz-adv-x="1401" d="M1169 0 L61 0 L190 920 L365 920 L256 154 L557 154 L662 920 L836 920 L729 154 L1030 154 L1135 920 L1309 920 L1204 154 L1356 154 L1309 -201 L1141 -201 L1169 0 Z " />
<glyph glyph-name="afii10092" unicode="&#x44a;" horiz-adv-x="995" d="M248 768 L0 768 L23 920 L442 920 L399 598 Q444 612 494 619.5 Q544 627 592 627 Q673 627 735 608 Q797 589 838.5 554.5 Q880 520 901 472 Q922 424 922 365 Q922 271 886 202.5 Q850 134 791 89 Q732 44 655 22 Q578 0 496 0 L141 0 L248 768 Z M334 137 L465 137 Q528 137 578.5 151 Q629 165 665 192 Q701 219 720 258 Q739 297 739 346 Q739 409 695.5 449 Q652 489 567 489 Q519 489 470 482.5 Q421 476 381 467 L334 137 Z " />
<glyph glyph-name="afii10093" unicode="&#x44b;" horiz-adv-x="1309" d="M1241 920 L1108 0 L934 0 L1067 920 L1241 920 Z M319 598 Q364 612 415 619.5 Q466 627 512 627 Q593 627 655 608 Q717 589 758.5 554.5 Q800 520 821 472 Q842 424 842 365 Q842 271 806 202.5 Q770 134 711 89 Q652 44 575 22 Q498 0 416 0 L61 0 L190 920 L365 920 L319 598 Z M254 137 L385 137 Q448 137 498.5 151 Q549 165 585 192 Q621 219 640 258 Q659 297 659 346 Q659 409 615.5 449 Q572 489 487 489 Q439 489 390 482.5 Q341 476 301 467 L254 137 Z " />
<glyph glyph-name="afii10094" unicode="&#x44c;" horiz-adv-x="915" d="M319 598 Q364 612 415 619.5 Q466 627 512 627 Q593 627 655 608 Q717 589 758.5 554.5 Q800 520 821 472 Q842 424 842 365 Q842 271 806 202.5 Q770 134 711 89 Q652 44 575 22 Q498 0 416 0 L61 0 L190 920 L365 920 L319 598 Z M254 137 L385 137 Q448 137 498.5 151 Q549 165 585 192 Q621 219 640 258 Q659 297 659 346 Q659 409 615.5 449 Q572 489 487 489 Q439 489 390 482.5 Q341 476 301 467 L254 137 Z " />
<glyph glyph-name="afii10095" unicode="&#x44d;" horiz-adv-x="813" d="M590 553 Q581 668 515 730.5 Q449 793 340 793 Q271 793 212 773 Q153 753 88 715 L109 883 Q175 918 234.5 933 Q294 948 365 948 Q458 948 532.5 918 Q607 888 660 832.5 Q713 777 741.5 699 Q770 621 770 524 Q770 395 728 292.5 Q686 190 608 118.5 Q530 47 420 9 Q310 -29 174 -29 Q139 -29 100 -24.5 Q61 -20 16 -12 L39 141 Q74 133 107 130 Q140 127 172 127 Q249 127 314.5 143.5 Q380 160 431.5 194 Q483 228 519 279 Q555 330 573 399 L246 399 L264 553 L590 553 Z " />
<glyph glyph-name="afii10096" unicode="&#x44e;" horiz-adv-x="1247" d="M297 539 L418 539 Q436 629 475.5 704.5 Q515 780 571 834.5 Q627 889 696.5 919.5 Q766 950 844 950 Q922 950 985.5 921.5 Q1049 893 1093.5 840.5 Q1138 788 1162 714 Q1186 640 1186 549 Q1186 420 1152 314 Q1118 208 1058.5 132 Q999 56 919.5 14.5 Q840 -27 750 -27 Q668 -27 603.5 1 Q539 29 494.5 82 Q450 135 426.5 211.5 Q403 288 403 385 L403 418 L281 418 L221 0 L47 0 L176 920 L350 920 L297 539 Z M582 367 Q582 312 594.5 266.5 Q607 221 628.5 189.5 Q650 158 679.5 140.5 Q709 123 743 123 Q798 123 846 155.5 Q894 188 930 246 Q966 304 987 384 Q1008 464 1008 559 Q1008 617 996.5 664 Q985 711 963.5 744 Q942 777 912 795 Q882 813 844 813 Q788 813 740 776 Q692 739 657 677.5 Q622 616 602 535 Q582 454 582 367 Z " />
<glyph glyph-name="afii10097" unicode="&#x44f;" horiz-adv-x="977" d="M780 0 L606 0 L657 356 L627 356 Q591 356 555.5 350 Q520 344 484 326 Q448 308 410 275.5 Q372 243 332 190 L184 0 L-31 0 L158 233 Q202 287 243 326 Q284 365 340 389 Q312 403 283.5 423.5 Q255 444 232.5 472.5 Q210 501 196 538 Q182 575 182 623 Q182 697 216.5 752.5 Q251 808 306.5 845 Q362 882 432.5 901 Q503 920 575 920 L909 920 L780 0 Z M672 477 L713 766 L573 766 Q525 766 486 757 Q447 748 419 729.5 Q391 711 375.5 683 Q360 655 360 616 Q360 589 369 564 Q378 539 398.5 519.5 Q419 500 453 488.5 Q487 477 537 477 L672 477 Z " />
<glyph glyph-name="afii10071" unicode="&#x451;" horiz-adv-x="897" d="M260 477 Q244 385 258.5 317 Q273 249 308 204 Q343 159 392.5 137 Q442 115 496 115 Q623 115 795 240 L770 74 Q631 -29 463 -29 Q375 -29 304 2.5 Q233 34 182.5 92.5 Q132 151 105 233 Q78 315 78 416 Q78 529 111.5 626 Q145 723 203.5 794.5 Q262 866 342 907 Q422 948 514 948 Q591 948 656 914 Q721 880 765 818 Q809 756 828.5 669 Q848 582 834 477 L260 477 Z M672 598 Q672 642 662 680 Q652 718 632 745.5 Q612 773 580.5 789 Q549 805 506 805 Q428 805 375 754.5 Q322 704 287 598 L672 598 Z M741 1309 Q761 1309 778 1301.5 Q795 1294 808 1281 Q821 1268 828.5 1251 Q836 1234 836 1214 Q836 1195 828.5 1178 Q821 1161 808 1148 Q795 1135 778 1127.5 Q761 1120 741 1120 Q722 1120 705 1127.5 Q688 1135 675 1148 Q662 1161 654.5 1178 Q647 1195 647 1214 Q647 1234 654.5 1251 Q662 1268 675 1281 Q688 1294 705 1301.5 Q722 1309 741 1309 Z M375 1309 Q394 1309 411 1301.5 Q428 1294 441 1281 Q454 1268 461.5 1251 Q469 1234 469 1214 Q469 1195 461.5 1178 Q454 1161 441 1148 Q428 1135 411 1127.5 Q394 1120 375 1120 Q356 1120 339 1127.5 Q322 1135 309 1148 Q296 1161 288.5 1178 Q281 1195 281 1214 Q281 1234 288.5 1251 Q296 1268 309 1281 Q322 1294 339 1301.5 Q356 1309 375 1309 Z " />
<glyph glyph-name="afii10099" unicode="&#x452;" horiz-adv-x="961" d="M682 639 Q694 727 664.5 772 Q635 817 578 817 Q546 817 511 800 Q476 783 440 753 Q404 723 368 683 Q332 643 299 598 L215 0 L43 0 L201 1120 L41 1120 L61 1253 L219 1253 L242 1397 L412 1397 L391 1253 L782 1253 L762 1120 L373 1120 L322 762 Q400 853 483 900.5 Q566 948 647 948 Q709 948 753 922.5 Q797 897 823 853.5 Q849 810 857 751.5 Q865 693 856 627 L752 -135 Q743 -203 725 -263.5 Q707 -324 671 -370.5 Q635 -417 576.5 -444 Q518 -471 428 -471 Q416 -471 394.5 -468 Q373 -465 350 -459.5 Q327 -454 306.5 -447 Q286 -440 274 -432 L297 -279 Q321 -289 338 -294.5 Q355 -300 370 -303 Q385 -306 399 -306.5 Q413 -307 430 -307 Q459 -307 483 -297.5 Q507 -288 526.5 -266 Q546 -244 559.5 -207.5 Q573 -171 580 -117 L682 639 Z " />
<glyph glyph-name="afii10100" unicode="&#x453;" horiz-adv-x="655" d="M711 920 L686 766 L328 766 L221 0 L47 0 L176 920 L711 920 Z M510 1323 L717 1323 L485 1024 L371 1024 L510 1323 Z " />
<glyph glyph-name="afii10101" unicode="&#x454;" horiz-adv-x="788" d="M653 539 L633 406 L227 406 Q227 340 244.5 288.5 Q262 237 295 201 Q328 165 374.5 146 Q421 127 479 127 Q548 127 607 147 Q666 167 731 205 L711 37 Q645 2 585 -13.5 Q525 -29 455 -29 Q362 -29 287 1 Q212 31 159 86.5 Q106 142 77.5 220 Q49 298 49 395 Q49 507 91 607.5 Q133 708 211 783.5 Q289 859 399 903.5 Q509 948 645 948 Q717 948 803 932 L780 778 Q710 793 647 793 Q573 793 510 773 Q447 753 396.5 718.5 Q346 684 309.5 638 Q273 592 252 539 L653 539 Z " />
<glyph glyph-name="afii10102" unicode="&#x455;" horiz-adv-x="725" d="M53 260 Q144 188 211.5 155.5 Q279 123 336 123 Q390 123 422.5 151.5 Q455 180 455 225 Q455 263 428.5 295 Q402 327 361.5 357 Q321 387 274.5 418.5 Q228 450 187.5 488 Q147 526 120.5 573.5 Q94 621 94 684 Q94 743 114.5 792 Q135 841 172.5 875.5 Q210 910 263.5 929 Q317 948 383 948 Q455 948 525.5 922.5 Q596 897 662 852 L662 670 Q583 730 512.5 760.5 Q442 791 385 791 Q358 791 335 783.5 Q312 776 295.5 763 Q279 750 269.5 732 Q260 714 260 694 Q260 661 287 633 Q314 605 355 576 Q396 547 443.5 516 Q491 485 532 446 Q573 407 600 358.5 Q627 310 627 246 Q627 184 605.5 133 Q584 82 545.5 46 Q507 10 455 -9.5 Q403 -29 342 -29 Q299 -29 262 -23 Q225 -17 188.5 -3 Q152 11 112 34 Q72 57 23 92 L53 260 Z " />
<glyph glyph-name="afii10103" unicode="&#x456;" horiz-adv-x="385" d="M350 920 L221 0 L47 0 L176 920 L350 920 Z M295 1309 Q316 1309 334 1301 Q352 1293 365.5 1279.5 Q379 1266 387 1247.5 Q395 1229 395 1208 Q395 1187 387.5 1169 Q380 1151 366.5 1137.5 Q353 1124 334.5 1116 Q316 1108 295 1108 Q274 1108 256 1116 Q238 1124 224.5 1137.5 Q211 1151 203 1169 Q195 1187 195 1208 Q195 1229 203 1247.5 Q211 1266 224.5 1279.5 Q238 1293 256 1301 Q274 1309 295 1309 Z " />
<glyph glyph-name="afii10104" unicode="&#x457;" horiz-adv-x="385" d="M350 920 L221 0 L47 0 L176 920 L350 920 Z M485 1309 Q505 1309 522 1301.5 Q539 1294 552 1281 Q565 1268 572.5 1251 Q580 1234 580 1214 Q580 1195 572.5 1178 Q565 1161 552 1148 Q539 1135 522 1127.5 Q505 1120 485 1120 Q466 1120 449 1127.5 Q432 1135 419 1148 Q406 1161 398.5 1178 Q391 1195 391 1214 Q391 1234 398.5 1251 Q406 1268 419 1281 Q432 1294 449 1301.5 Q466 1309 485 1309 Z M119 1309 Q138 1309 155 1301.5 Q172 1294 185 1281 Q198 1268 205.5 1251 Q213 1234 213 1214 Q213 1195 205.5 1178 Q198 1161 185 1148 Q172 1135 155 1127.5 Q138 1120 119 1120 Q100 1120 83 1127.5 Q66 1135 53 1148 Q40 1161 32.5 1178 Q25 1195 25 1214 Q25 1234 32.5 1251 Q40 1268 53 1281 Q66 1294 83 1301.5 Q100 1309 119 1309 Z " />
<glyph glyph-name="afii10105" unicode="&#x458;" horiz-adv-x="385" d="M-188 -299 Q-140 -311 -101 -309.5 Q-62 -308 -33 -289.5 Q-4 -271 14.5 -234 Q33 -197 41 -137 L176 920 L350 920 L209 -186 Q199 -264 169 -318.5 Q139 -373 96 -407 Q53 -441 0 -456 Q-53 -471 -109 -471 Q-133 -471 -161 -466.5 Q-189 -462 -211 -453 L-188 -299 Z M393 1208 Q393 1187 385.5 1169 Q378 1151 364.5 1137.5 Q351 1124 332.5 1116 Q314 1108 293 1108 Q272 1108 254 1116 Q236 1124 222.5 1137.5 Q209 1151 201 1169 Q193 1187 193 1208 Q193 1229 201 1247.5 Q209 1266 222.5 1279.5 Q236 1293 254 1301 Q272 1309 293 1309 Q314 1309 332 1301 Q350 1293 363.5 1279.5 Q377 1266 385 1247.5 Q393 1229 393 1208 Z " />
<glyph glyph-name="afii10106" unicode="&#x459;" horiz-adv-x="1360" d="M668 567 Q731 596 802 611.5 Q873 627 936 627 Q1029 627 1095.5 607 Q1162 587 1204 550.5 Q1246 514 1266 464 Q1286 414 1286 354 Q1286 260 1250 193 Q1214 126 1155 83 Q1096 40 1019 20 Q942 0 860 0 L608 0 L475 631 L125 0 L-59 0 L496 958 L573 958 L668 567 Z M770 137 L829 137 Q892 137 943 149.5 Q994 162 1029.5 187 Q1065 212 1084.5 249.5 Q1104 287 1104 336 Q1104 368 1093 395.5 Q1082 423 1058.5 444 Q1035 465 998.5 477 Q962 489 911 489 Q863 489 806.5 478 Q750 467 696 444 L770 137 Z " />
<glyph glyph-name="afii10107" unicode="&#x45a;" horiz-adv-x="1464" d="M668 408 L293 408 L236 0 L61 0 L190 920 L365 920 L315 561 L688 561 L739 920 L913 920 L868 598 Q913 612 963 619.5 Q1013 627 1061 627 Q1142 627 1204 608 Q1266 589 1307.5 554.5 Q1349 520 1370 472 Q1391 424 1391 365 Q1391 271 1355 202.5 Q1319 134 1260 89 Q1201 44 1124 22 Q1047 0 965 0 L608 0 L668 408 Z M803 137 L934 137 Q997 137 1047.5 151 Q1098 165 1134 192 Q1170 219 1189 258 Q1208 297 1208 346 Q1208 409 1164.5 449 Q1121 489 1036 489 Q988 489 939 482.5 Q890 476 850 467 L803 137 Z " />
<glyph glyph-name="afii10108" unicode="&#x45b;" horiz-adv-x="961" d="M43 1118 L66 1272 L221 1272 L240 1397 L414 1397 L395 1272 L788 1272 L768 1118 L375 1118 L326 772 L330 768 Q485 948 649 948 Q711 948 755 922.5 Q799 897 825 853.5 Q851 810 859 751.5 Q867 693 858 627 L770 0 L596 0 L684 637 Q696 725 666.5 771 Q637 817 580 817 Q548 817 513 800 Q478 783 442 753 Q406 723 370 683 Q334 643 301 598 L217 0 L43 0 L201 1118 L43 1118 Z " />
<glyph glyph-name="afii10109" unicode="&#x45c;" horiz-adv-x="891" d="M317 541 Q350 541 377 547 Q404 553 427.5 567.5 Q451 582 472.5 606.5 Q494 631 516 668 L594 799 Q636 869 693 894.5 Q750 920 819 920 L870 920 L842 782 L827 782 Q806 782 791 777 Q776 772 763.5 761.5 Q751 751 739 734 Q727 717 713 694 L647 584 Q618 533 578 505 Q538 477 492 471 Q516 463 541 440.5 Q566 418 588 389 Q610 360 628 329 Q646 298 657 272 L784 0 L592 0 L528 150 Q508 196 486 243.5 Q464 291 438 330 Q412 369 381 393.5 Q350 418 311 418 L299 418 L242 0 L68 0 L195 920 L375 920 L317 541 Z M616 1315 L823 1315 L592 1016 L477 1016 L616 1315 Z " />
<glyph glyph-name="afii10110" unicode="&#x45e;" horiz-adv-x="768" d="M819 920 L160 -471 L-25 -471 L225 55 L47 920 L221 920 L344 287 L348 287 L637 920 L819 920 Z M322 1350 Q324 1290 362 1254.5 Q400 1219 463 1219 Q571 1219 643 1350 L743 1350 Q706 1222 632 1154.5 Q558 1087 455 1087 Q399 1087 355 1108 Q311 1129 281 1165 Q251 1201 236.5 1249 Q222 1297 225 1350 L322 1350 Z " />
<glyph glyph-name="afii10193" unicode="&#x45f;" horiz-adv-x="948" d="M913 920 L784 0 L512 0 L485 -201 L324 -201 L354 0 L61 0 L190 920 L365 920 L258 154 L633 154 L739 920 L913 920 Z " />
<glyph glyph-name="afii10146" unicode="&#x462;" horiz-adv-x="1143" d="M279 1055 L-2 1055 L23 1214 L301 1214 L328 1397 L520 1397 L494 1214 L815 1214 L793 1055 L471 1055 L436 799 Q454 806 478 812.5 Q502 819 528.5 823.5 Q555 828 582.5 831 Q610 834 635 834 Q723 834 802 811.5 Q881 789 941 740.5 Q1001 692 1036 616.5 Q1071 541 1071 436 Q1071 348 1033.5 268.5 Q996 189 929 129.5 Q862 70 769.5 35 Q677 0 567 0 L133 0 L279 1055 Z M575 674 Q560 674 538 672 Q516 670 492.5 666.5 Q469 663 448 657.5 Q427 652 414 645 L346 156 L549 156 Q629 156 691 177 Q753 198 796 235 Q839 272 861 322.5 Q883 373 883 432 Q883 505 860 552 Q837 599 796 626 Q755 653 698.5 663.5 Q642 674 575 674 Z " />
<glyph glyph-name="afii10194" unicode="&#x463;" horiz-adv-x="1397" d="M788 602 Q833 614 886.5 620.5 Q940 627 983 627 Q1064 627 1127.5 607 Q1191 587 1234.5 551 Q1278 515 1300.5 466 Q1323 417 1323 358 Q1323 272 1289 202.5 Q1255 133 1194.5 84 Q1134 35 1050 8.5 Q966 -18 866 -18 Q796 -18 742 2 Q688 22 651.5 59 Q615 96 596.5 148.5 Q578 201 578 266 Q578 271 578.5 281.5 Q579 292 579.5 304 Q580 316 580.5 327 Q581 338 582 342 L637 762 Q618 764 607 765 Q596 766 578 766 Q537 766 503 752.5 Q469 739 437.5 709.5 Q406 680 374.5 633 Q343 586 307 518 L236 0 L61 0 L190 920 L365 920 L338 745 L344 741 Q385 800 423 835 Q461 870 496.5 889 Q532 908 566 914 Q600 920 633 920 L831 920 L788 602 Z M948 489 Q903 489 856.5 484.5 Q810 480 772 471 L760 377 Q759 373 758 360.5 Q757 348 756 333 Q755 318 754.5 304.5 Q754 291 754 285 Q754 256 761.5 228.5 Q769 201 785 180 Q801 159 827.5 146 Q854 133 891 133 Q947 133 993 149 Q1039 165 1072 193 Q1105 221 1123 259 Q1141 297 1141 340 Q1141 378 1127 405.5 Q1113 433 1087.5 452 Q1062 471 1026.5 480 Q991 489 948 489 Z " />
<glyph glyph-name="afii10147" unicode="&#x472;" horiz-adv-x="1343" d="M1276 829 Q1276 704 1251 592.5 Q1226 481 1181 387 Q1136 293 1073.5 218 Q1011 143 936 90.5 Q861 38 776.5 10 Q692 -18 602 -18 Q492 -18 400.5 25.5 Q309 69 243 147 Q177 225 140.5 333 Q104 441 104 571 Q104 663 123.5 761 Q143 859 181 953 Q219 1047 276 1131 Q333 1215 408 1278 Q483 1341 577 1378 Q671 1415 782 1415 Q893 1415 984.5 1372.5 Q1076 1330 1140.5 1253 Q1205 1176 1240.5 1068 Q1276 960 1276 829 Z M1083 786 Q1085 805 1086 824.5 Q1087 844 1087 862 Q1087 954 1065 1026 Q1043 1098 1003 1147 Q963 1196 906 1221.5 Q849 1247 780 1247 Q710 1247 652 1225 Q594 1203 547 1166.5 Q500 1130 463.5 1082.5 Q427 1035 399.5 984 Q372 933 353.5 881.5 Q335 830 324 786 L1083 786 Z M297 625 L293 545 Q293 453 315 379.5 Q337 306 378 255 Q419 204 477 177 Q535 150 606 150 Q683 150 754 185.5 Q825 221 884.5 284 Q944 347 989 434.5 Q1034 522 1059 625 L297 625 Z " />
<glyph glyph-name="afii10195" unicode="&#x473;" horiz-adv-x="918" d="M856 547 Q856 418 822 312 Q788 206 729 130 Q670 54 590.5 12.5 Q511 -29 420 -29 Q339 -29 274.5 -1 Q210 27 165.5 80 Q121 133 97.5 209.5 Q74 286 74 383 Q74 504 107.5 607.5 Q141 711 200 786.5 Q259 862 339.5 905 Q420 948 514 948 Q592 948 655.5 919 Q719 890 763.5 837.5 Q808 785 832 711 Q856 637 856 547 Z M252 403 Q251 406 251 405 Q250 403 250 394 L250 365 Q250 309 262.5 263.5 Q275 218 297 186 Q319 154 348.5 136.5 Q378 119 412 119 Q464 119 506.5 146.5 Q549 174 581.5 216 Q614 258 635.5 308 Q657 358 666 403 L252 403 Z M678 557 Q678 615 666.5 662 Q655 709 633.5 742 Q612 775 582 793 Q552 811 514 811 Q472 811 435 790 Q398 769 367 732 Q336 695 312.5 645 Q289 595 274 537 L678 537 L678 557 Z " />
<glyph glyph-name="afii10148" unicode="&#x474;" horiz-adv-x="1167" d="M862 1176 Q883 1219 907.5 1262 Q932 1305 963.5 1339.5 Q995 1374 1034 1395.5 Q1073 1417 1124 1417 Q1158 1417 1185 1406.5 Q1212 1396 1231 1383 Q1254 1368 1270 1350 L1270 1186 Q1224 1218 1188.5 1230 Q1153 1242 1125 1237 Q1097 1232 1075.5 1210 Q1054 1188 1036 1151 Q1007 1087 988.5 1046.5 Q970 1006 957.5 979 Q945 952 936 933 Q927 914 917 893.5 Q907 873 894 846.5 Q881 820 860 777.5 Q839 735 808 672 Q777 609 731 515 Q685 421 622 291.5 Q559 162 475 -12 L403 -12 L131 1397 L311 1397 L494 422 L498 422 L862 1176 Z " />
<glyph glyph-name="afii10196" unicode="&#x475;" horiz-adv-x="856" d="M575 741 Q598 786 623.5 825.5 Q649 865 679.5 894 Q710 923 746.5 939.5 Q783 956 829 956 Q848 956 871.5 950.5 Q895 945 916 938 Q940 931 965 920 L965 764 Q948 782 918 793.5 Q888 805 862 805 Q828 803 796 784 Q764 765 739 717 L369 -18 L283 -18 L74 920 L246 920 L367 336 L371 336 L575 741 Z " />
<glyph glyph-name="afii10050" unicode="&#x490;" horiz-adv-x="930" d="M1034 1542 L985 1223 L436 1223 L262 0 L78 0 L281 1397 L844 1397 L866 1542 L1034 1542 Z " />
<glyph glyph-name="afii10098" unicode="&#x491;" horiz-adv-x="655" d="M727 1034 L686 764 L328 764 L221 0 L47 0 L176 920 L571 920 L588 1034 L727 1034 Z " />
<glyph glyph-name="uni0492" unicode="&#x492;" horiz-adv-x="930" d="M57 793 L193 793 L281 1397 L1020 1397 L997 1231 L438 1231 L375 793 L752 793 L727 618 L350 618 L262 0 L78 0 L168 618 L33 618 L57 793 Z " />
<glyph glyph-name="uni0493" unicode="&#x493;" horiz-adv-x="676" d="M535 408 L297 408 L242 0 L68 0 L125 408 L16 408 L39 561 L145 561 L197 920 L737 920 L713 768 L348 768 L319 561 L555 561 L535 408 Z " />
<glyph glyph-name="uni0496" unicode="&#x496;" horiz-adv-x="1819" d="M623 743 Q553 781 506 844.5 Q459 908 440 989 Q422 1067 406.5 1114.5 Q391 1162 369 1188 Q347 1214 313.5 1222.5 Q280 1231 225 1231 L240 1397 Q317 1397 372.5 1382 Q428 1367 469 1330 Q510 1293 538.5 1231.5 Q567 1170 590 1077 Q609 998 631 949.5 Q653 901 682.5 874 Q712 847 751.5 838 Q791 829 846 829 L854 829 L934 1397 L1126 1397 L1047 829 Q1108 830 1153.5 840.5 Q1199 851 1237.5 878 Q1276 905 1310.5 953 Q1345 1001 1384 1077 Q1422 1152 1454.5 1204.5 Q1487 1257 1517 1292.5 Q1547 1328 1578 1349 Q1609 1370 1643 1380.5 Q1677 1391 1717.5 1394 Q1758 1397 1808 1397 L1819 1397 L1786 1231 L1776 1231 Q1727 1231 1695.5 1222.5 Q1664 1214 1638 1188.5 Q1612 1163 1586 1115 Q1560 1067 1522 989 Q1472 890 1409.5 831 Q1347 772 1262 743 Q1300 731 1332.5 703 Q1365 675 1395 632.5 Q1425 590 1454.5 534 Q1484 478 1516 410 L1628 174 L1772 174 L1712 -248 L1530 -248 L1563 0 L1487 0 L1339 360 Q1299 459 1264 520 Q1229 581 1192.5 615 Q1156 649 1115.5 661.5 Q1075 674 1024 676 L930 0 L737 0 L831 676 L823 676 Q784 676 746.5 667 Q709 658 662.5 625 Q616 592 555.5 526.5 Q495 461 410 348 L147 0 L-92 0 L236 401 Q317 501 376 564.5 Q435 628 479 665 Q523 702 557.5 719 Q592 736 623 743 Z " />
<glyph glyph-name="uni0497" unicode="&#x497;" horiz-adv-x="1323" d="M1257 154 L1212 -201 L1051 -201 L1077 0 L1024 0 L961 150 Q941 194 920 240.5 Q899 287 874 325.5 Q849 364 819.5 389.5 Q790 415 752 418 L692 0 L518 0 L575 418 L557 418 Q532 418 504.5 410.5 Q477 403 444 376 Q411 349 369.5 297 Q328 245 274 156 L180 0 L-20 0 L164 272 Q224 360 285 414 Q346 468 406 477 Q361 479 323.5 510.5 Q286 542 272 612 L258 682 Q252 708 244 724.5 Q236 741 224 750 Q212 759 195 762.5 Q178 766 154 766 L125 766 L150 920 L197 920 Q294 920 343 878.5 Q392 837 408 768 L426 684 Q435 641 448 613 Q461 585 481 569 Q501 553 528.5 547 Q556 541 594 541 L645 920 L825 920 L770 541 Q799 542 822.5 549.5 Q846 557 867 572 Q888 587 907.5 610.5 Q927 634 948 668 L1026 799 Q1068 869 1125 894.5 Q1182 920 1251 920 L1303 920 L1278 766 L1253 766 Q1232 766 1218 763.5 Q1204 761 1192.5 753.5 Q1181 746 1170 731.5 Q1159 717 1145 694 L1079 584 Q1050 533 1010 505 Q970 477 924 471 Q973 456 1013.5 404.5 Q1054 353 1090 272 L1143 154 L1257 154 Z " />
<glyph glyph-name="uni049A" unicode="&#x49a;" horiz-adv-x="1214" d="M715 360 Q669 460 629 522 Q589 584 548.5 618 Q508 652 464.5 664 Q421 676 367 676 L358 676 L264 0 L72 0 L266 1397 L459 1397 L381 829 L389 829 Q454 829 502 838.5 Q550 848 589 875 Q628 902 663.5 950.5 Q699 999 739 1077 Q778 1152 811.5 1204.5 Q845 1257 877.5 1292.5 Q910 1328 943 1349 Q976 1370 1012.5 1380.5 Q1049 1391 1091 1394 Q1133 1397 1184 1397 L1214 1397 L1182 1231 L1155 1231 Q1106 1231 1071 1222.5 Q1036 1214 1006 1188.5 Q976 1163 946 1115 Q916 1067 877 989 Q829 890 765 831 Q701 772 616 743 Q655 731 690 701.5 Q725 672 759 628.5 Q793 585 825.5 529.5 Q858 474 891 410 L1014 174 L1167 174 L1108 -248 L926 -248 L958 0 L883 0 L715 360 Z " />
<glyph glyph-name="uni049B" unicode="&#x49b;" horiz-adv-x="891" d="M528 150 Q509 196 487 243.5 Q465 291 439 330 Q413 369 381.5 393.5 Q350 418 311 418 L299 418 L242 0 L68 0 L195 920 L375 920 L317 541 Q350 541 377 547 Q404 553 427.5 567.5 Q451 582 472.5 606.5 Q494 631 516 668 L594 799 Q636 869 693 894.5 Q750 920 819 920 L870 920 L842 782 L827 782 Q806 782 791 777 Q776 772 763.5 761.5 Q751 751 739 734 Q727 717 713 694 L647 584 Q618 533 578 505 Q538 477 492 471 Q516 463 541 440.5 Q566 418 588 389 Q610 360 628 329 Q646 298 657 272 L713 154 L825 154 L780 -201 L618 -201 L649 0 L592 0 L528 150 Z " />
<glyph glyph-name="uni04A2" unicode="&#x4a2;" horiz-adv-x="1485" d="M1407 1397 L1235 174 L1444 174 L1384 -248 L1202 -248 L1235 0 L1018 0 L1106 618 L350 618 L264 0 L72 0 L268 1397 L459 1397 L375 793 L1130 793 L1214 1397 L1407 1397 Z " />
<glyph glyph-name="uni04A3" unicode="&#x4a3;" horiz-adv-x="1001" d="M913 920 L805 154 L956 154 L911 -201 L750 -201 L776 0 L610 0 L668 408 L293 408 L236 0 L61 0 L190 920 L365 920 L315 561 L688 561 L739 920 L913 920 Z " />
<glyph glyph-name="uni04AE" unicode="&#x4ae;" horiz-adv-x="1004" d="M651 696 L553 0 L369 0 L467 696 L139 1397 L334 1397 L571 885 L928 1397 L1141 1397 L651 696 Z " />
<glyph glyph-name="uni04AF" unicode="&#x4af;" horiz-adv-x="768" d="M428 100 L350 -471 L176 -471 L256 96 L74 920 L246 920 L365 336 L373 336 L666 920 L842 920 L428 100 Z " />
<glyph glyph-name="uni04B0" unicode="&#x4b0;" horiz-adv-x="1004" d="M651 696 L649 682 L1030 682 L1006 508 L625 508 L553 0 L369 0 L440 508 L59 508 L84 682 L465 682 L467 696 L139 1397 L334 1397 L571 885 L928 1397 L1141 1397 L651 696 Z " />
<glyph glyph-name="uni04B1" unicode="&#x4b1;" horiz-adv-x="768" d="M440 182 L436 154 L692 154 L672 0 L414 0 L350 -471 L176 -471 L242 0 L-14 0 L8 154 L264 154 L268 178 L74 920 L246 920 L375 397 L383 397 L666 920 L842 920 L440 182 Z " />
<glyph glyph-name="uni04B2" unicode="&#x4b2;" horiz-adv-x="1366" d="M715 575 L215 0 L-37 0 L612 739 L199 1397 L410 1397 L741 883 L1196 1397 L1440 1397 L842 719 L1188 174 L1325 174 L1266 -248 L1083 -248 L1116 0 L1077 0 L715 575 Z " />
<glyph glyph-name="uni04B3" unicode="&#x4b3;" horiz-adv-x="874" d="M416 344 L150 0 L-63 0 L338 487 L121 920 L307 920 L453 610 L692 920 L907 920 L537 465 L692 154 L797 154 L752 -201 L590 -201 L616 0 L584 0 L416 344 Z " />
<glyph glyph-name="uni04B6" unicode="&#x4b6;" horiz-adv-x="1262" d="M877 592 Q799 564 730 548 Q661 532 592 532 Q538 532 484.5 538 Q431 544 383 560 Q335 576 294 604 Q253 632 223.5 676 Q194 720 177 782 Q160 844 160 928 Q160 943 161 962.5 Q162 982 163.5 1003 Q165 1024 166.5 1044.5 Q168 1065 170 1081 L213 1397 L403 1397 L367 1104 Q364 1089 361.5 1065 Q359 1041 356.5 1016 Q354 991 353 968.5 Q352 946 352 934 Q352 873 364.5 830 Q377 787 408 759.5 Q439 732 492.5 719.5 Q546 707 627 707 Q690 707 758 722.5 Q826 738 901 766 L991 1397 L1184 1397 L1012 174 L1221 174 L1161 -248 L979 -248 L1012 0 L795 0 L877 592 Z " />
<glyph glyph-name="uni04B7" unicode="&#x4b7;" horiz-adv-x="930" d="M592 391 Q569 378 539.5 366.5 Q510 355 478.5 346.5 Q447 338 416 333 Q385 328 360 328 Q217 328 149.5 397 Q82 466 82 612 Q82 634 83.5 661.5 Q85 689 89.5 725.5 Q94 762 101 810 Q108 858 119 920 L293 920 Q280 836 273 782.5 Q266 729 262.5 696.5 Q259 664 258.5 647.5 Q258 631 258 621 Q258 575 267 545.5 Q276 516 293 499.5 Q310 483 334 477 Q358 471 387 471 Q408 471 437.5 476 Q467 481 498.5 490 Q530 499 560.5 511.5 Q591 524 614 539 L668 920 L842 920 L733 154 L885 154 L840 -201 L678 -201 L705 0 L539 0 L592 391 Z " />
<glyph glyph-name="uni04BA" unicode="&#x4ba;" horiz-adv-x="1206" d="M72 0 L268 1397 L461 1397 L389 879 Q467 910 536 924 Q605 938 674 938 Q757 938 834.5 923.5 Q912 909 972.5 866.5 Q1033 824 1069.5 746.5 Q1106 669 1106 543 Q1106 528 1105 507 Q1104 486 1102 462.5 Q1100 439 1098 417 Q1096 395 1094 379 L1042 0 L852 0 L899 367 Q901 382 903.5 406 Q906 430 908 455 Q910 480 911.5 502.5 Q913 525 913 537 Q913 597 900.5 640 Q888 683 857 710.5 Q826 738 773 751 Q720 764 639 764 Q511 764 365 705 L264 0 L72 0 Z " />
<glyph glyph-name="uni04BB" unicode="&#x4bb;" horiz-adv-x="961" d="M326 772 L330 768 Q485 948 649 948 Q711 948 755 922.5 Q799 897 825 853.5 Q851 810 859 751.5 Q867 693 858 627 L770 0 L596 0 L684 637 Q696 725 666.5 771 Q637 817 580 817 Q548 817 513 800 Q478 783 442 753 Q406 723 370 683 Q334 643 301 598 L217 0 L43 0 L240 1397 L414 1397 L326 772 Z " />
<glyph glyph-name="uni04C0" unicode="&#x4c0;" horiz-adv-x="492" d="M272 0 L80 0 L276 1397 L469 1397 L272 0 Z " />
<glyph glyph-name="uni04CF" unicode="&#x4cf;" horiz-adv-x="385" d="M221 0 L47 0 L176 920 L350 920 L221 0 Z " />
<glyph glyph-name="uni04D8" unicode="&#x4d8;" horiz-adv-x="1329" d="M221 1243 Q260 1274 309 1305 Q358 1336 420.5 1360.5 Q483 1385 561 1400 Q639 1415 737 1415 Q855 1415 951.5 1373.5 Q1048 1332 1117 1255.5 Q1186 1179 1224 1071 Q1262 963 1262 829 Q1262 704 1237 592.5 Q1212 481 1167 387 Q1122 293 1059.5 218 Q997 143 922 90.5 Q847 38 762.5 10 Q678 -18 588 -18 Q478 -18 386.5 25.5 Q295 69 229 147 Q163 225 126.5 333 Q90 441 90 571 Q90 599 93.5 627 Q97 655 100 684 L1059 684 Q1065 727 1069 771.5 Q1073 816 1073 862 Q1073 954 1044.5 1026 Q1016 1098 968 1147 Q920 1196 857 1221.5 Q794 1247 725 1247 Q670 1247 606 1234 Q542 1221 475.5 1194.5 Q409 1168 344 1129.5 Q279 1091 221 1040 L221 1243 Z M602 150 Q668 150 730 177 Q792 204 845.5 252.5 Q899 301 942.5 369.5 Q986 438 1016 522 L279 522 Q282 435 307 366 Q332 297 374.5 249 Q417 201 475 175.5 Q533 150 602 150 Z " />
<glyph glyph-name="uni04D9" unicode="&#x4d9;" horiz-adv-x="897" d="M651 442 Q667 534 652.5 602.5 Q638 671 603.5 716 Q569 761 519.5 783 Q470 805 416 805 Q287 805 117 680 L141 846 Q281 948 449 948 Q536 948 607.5 916.5 Q679 885 729 826.5 Q779 768 806.5 686.5 Q834 605 834 504 Q834 391 800.5 293.5 Q767 196 708 124.5 Q649 53 569 12 Q489 -29 397 -29 Q321 -29 256 5 Q191 39 146.5 101.5 Q102 164 82.5 250.5 Q63 337 78 442 L651 442 Z M240 322 Q240 278 250 240 Q260 202 280 174.5 Q300 147 331.5 131 Q363 115 406 115 Q484 115 537 165.5 Q590 216 625 322 L240 322 Z " />
<glyph glyph-name="uni04E2" unicode="&#x4e2;" horiz-adv-x="1430" d="M1407 1397 L1210 0 L1018 0 L1171 1042 L182 0 L72 0 L268 1397 L459 1397 L307 324 L1296 1397 L1407 1397 Z M1196 1615 L536 1615 L555 1746 L1214 1746 L1196 1615 Z " />
<glyph glyph-name="uni04E3" unicode="&#x4e3;" horiz-adv-x="981" d="M913 920 L784 0 L610 0 L698 584 L174 0 L61 0 L190 920 L365 920 L264 295 L801 920 L913 920 Z M252 1169 L270 1300 L930 1300 L911 1169 L252 1169 Z " />
<glyph glyph-name="uni04E8" unicode="&#x4e8;" horiz-adv-x="1343" d="M1276 829 Q1276 704 1251 592.5 Q1226 481 1181 387 Q1136 293 1073.5 218 Q1011 143 936 90.5 Q861 38 776.5 10 Q692 -18 602 -18 Q492 -18 400.5 25.5 Q309 69 243 147 Q177 225 140.5 333 Q104 441 104 571 Q104 663 123.5 761 Q143 859 181 953 Q219 1047 276 1131 Q333 1215 408 1278 Q483 1341 577 1378 Q671 1415 782 1415 Q893 1415 984.5 1372.5 Q1076 1330 1140.5 1253 Q1205 1176 1240.5 1068 Q1276 960 1276 829 Z M1083 786 Q1085 805 1086 824.5 Q1087 844 1087 862 Q1087 954 1065 1026 Q1043 1098 1003 1147 Q963 1196 906 1221.5 Q849 1247 780 1247 Q710 1247 652 1225 Q594 1203 547 1166.5 Q500 1130 463.5 1082.5 Q427 1035 399.5 984 Q372 933 353.5 881.5 Q335 830 324 786 L1083 786 Z M297 625 L293 545 Q293 453 315 379.5 Q337 306 378 255 Q419 204 477 177 Q535 150 606 150 Q683 150 754 185.5 Q825 221 884.5 284 Q944 347 989 434.5 Q1034 522 1059 625 L297 625 Z " />
<glyph glyph-name="uni04E9" unicode="&#x4e9;" horiz-adv-x="918" d="M856 547 Q856 418 822 312 Q788 206 729 130 Q670 54 590.5 12.5 Q511 -29 420 -29 Q339 -29 274.5 -1 Q210 27 165.5 80 Q121 133 97.5 209.5 Q74 286 74 383 Q74 504 107.5 607.5 Q141 711 200 786.5 Q259 862 339.5 905 Q420 948 514 948 Q592 948 655.5 919 Q719 890 763.5 837.5 Q808 785 832 711 Q856 637 856 547 Z M252 403 Q251 406 251 405 Q250 403 250 394 L250 365 Q250 309 262.5 263.5 Q275 218 297 186 Q319 154 348.5 136.5 Q378 119 412 119 Q464 119 506.5 146.5 Q549 174 581.5 216 Q614 258 635.5 308 Q657 358 666 403 L252 403 Z M678 557 Q678 615 666.5 662 Q655 709 633.5 742 Q612 775 582 793 Q552 811 514 811 Q472 811 435 790 Q398 769 367 732 Q336 695 312.5 645 Q289 595 274 537 L678 537 L678 557 Z " />
<glyph glyph-name="uni04EE" unicode="&#x4ee;" horiz-adv-x="1227" d="M608 264 L1126 1397 L1323 1397 L645 -6 Q601 -97 554 -153.5 Q507 -210 457.5 -241.5 Q408 -273 355.5 -284 Q303 -295 248 -295 Q221 -295 186.5 -290 Q152 -285 119 -274.5 Q86 -264 57.5 -248 Q29 -232 14 -211 L82 -59 Q114 -103 164.5 -117 Q215 -131 270 -131 Q302 -131 333.5 -123 Q365 -115 393 -96 Q421 -77 444.5 -45 Q468 -13 485 35 L88 1397 L289 1397 L608 264 Z M1071 1615 L411 1615 L430 1746 L1089 1746 L1071 1615 Z " />
<glyph glyph-name="uni04EF" unicode="&#x4ef;" horiz-adv-x="768" d="M819 920 L160 -471 L-25 -471 L225 55 L47 920 L221 920 L344 287 L348 287 L637 920 L819 920 Z M807 1169 L147 1169 L166 1300 L825 1300 L807 1169 Z " />
<glyph glyph-name="Aogonek" unicode="&#x104;" horiz-adv-x="1067" d="M1083 -367 Q1062 -372 1046.5 -375.5 Q1031 -379 1017.5 -380.5 Q1004 -382 990 -382.5 Q976 -383 956 -383 Q900 -383 858 -367.5 Q816 -352 787.5 -326 Q759 -300 745 -265.5 Q731 -231 731 -193 Q731 -150 754 -96 Q777 -42 819 6 L737 438 L299 438 L115 0 L-72 0 L545 1405 L721 1405 L993 0 L954 0 Q925 -43 915 -76 Q905 -109 905 -137 Q905 -185 931.5 -212.5 Q958 -240 1026 -240 Q1069 -240 1104 -227 L1083 -367 Z M360 586 L709 586 L604 1159 L596 1159 L360 586 Z " />
<glyph glyph-name="aogonek" unicode="&#x105;" horiz-adv-x="961" d="M881 -367 Q859 -372 843.5 -375 Q828 -378 814.5 -380 Q801 -382 787 -382.5 Q773 -383 754 -383 Q698 -383 655.5 -367.5 Q613 -352 584.5 -326 Q556 -300 542 -265.5 Q528 -231 528 -193 Q528 -151 553 -99.5 Q578 -48 618 0 L610 0 L627 106 L623 111 Q569 51 505 16.5 Q441 -18 375 -18 Q311 -18 256 10.5 Q201 39 160 88.5 Q119 138 95.5 204.5 Q72 271 72 346 Q72 419 87 492 Q102 565 134 632 Q166 699 216 757 Q266 815 335 857.5 Q404 900 494 924 Q584 948 696 948 Q721 948 750.5 946 Q780 944 810 940 Q840 936 867 931 Q894 926 913 920 L784 0 L752 0 Q723 -43 712.5 -76 Q702 -109 702 -137 Q702 -185 728.5 -212.5 Q755 -240 823 -240 Q868 -240 901 -227 L881 -367 Z M723 797 Q709 799 695 799 L670 799 Q582 799 516.5 776 Q451 753 404.5 715.5 Q358 678 328 631.5 Q298 585 280.5 538.5 Q263 492 256.5 449 Q250 406 250 377 Q250 322 263.5 275.5 Q277 229 301 195.5 Q325 162 358.5 143.5 Q392 125 432 125 Q458 125 487.5 137 Q517 149 546 169 Q575 189 601 214 Q627 239 647 266 L723 797 Z " />
<glyph glyph-name="Cacute" unicode="&#x106;" horiz-adv-x="1130" d="M1188 1415 L1151 1239 L1049 1239 Q687 1239 493 1045 Q299 851 299 575 Q299 385 399 271.5 Q499 158 666 158 Q752 158 868.5 204.5 Q985 251 1083 330 L1053 104 Q836 -18 639 -18 Q402 -18 251 144.5 Q100 307 100 563 Q100 939 361.5 1177 Q623 1415 1055 1415 L1188 1415 Z M961 1818 L1168 1818 L936 1519 L822 1519 L961 1818 Z " />
<glyph glyph-name="cacute" unicode="&#x107;" horiz-adv-x="788" d="M731 205 L711 37 Q591 -29 455 -29 Q270 -29 159.5 86.5 Q49 202 49 395 Q49 628 216.5 788 Q384 948 645 948 Q711 948 803 932 L780 778 Q715 793 647 793 Q466 793 346.5 677 Q227 561 227 406 Q227 276 294.5 201.5 Q362 127 479 127 Q603 127 731 205 Z M637 1372 L844 1372 L612 1073 L498 1073 L637 1372 Z " />
<glyph glyph-name="Eogonek" unicode="&#x118;" horiz-adv-x="1044" d="M856 -367 Q835 -372 819.5 -375.5 Q804 -379 790.5 -380.5 Q777 -382 763 -382.5 Q749 -383 729 -383 Q673 -383 631 -367.5 Q589 -352 560.5 -326 Q532 -300 518 -265.5 Q504 -231 504 -193 Q504 -151 526 -99.5 Q548 -48 588 0 L78 0 L281 1397 L1020 1397 L997 1231 L438 1231 L377 793 L870 793 L848 627 L352 627 L285 166 L1020 166 L995 0 L727 0 Q698 -43 688 -76 Q678 -109 678 -137 Q678 -185 704.5 -212.5 Q731 -240 799 -240 Q841 -240 877 -227 L856 -367 Z " />
<glyph glyph-name="eogonek" unicode="&#x119;" horiz-adv-x="897" d="M739 -367 Q718 -372 702.5 -375.5 Q687 -379 673.5 -380.5 Q660 -382 646 -382.5 Q632 -383 612 -383 Q556 -383 514 -367.5 Q472 -352 443.5 -326 Q415 -300 401 -265.5 Q387 -231 387 -193 Q387 -158 402.5 -114.5 Q418 -71 449 -29 Q364 -26 295.5 7 Q227 40 178.5 98 Q130 156 104 236.5 Q78 317 78 416 Q78 529 111.5 626 Q145 723 203.5 794.5 Q262 866 342 907 Q422 948 514 948 Q582 948 641.5 921 Q701 894 745 843.5 Q789 793 814.5 722 Q840 651 840 563 Q840 521 834 477 L260 477 Q255 454 253.5 431.5 Q252 409 252 389 Q252 319 272.5 267.5 Q293 216 327 182 Q361 148 405 131.5 Q449 115 496 115 Q623 115 795 240 L770 74 Q691 16 604 -8 Q578 -48 569.5 -79.5 Q561 -111 561 -137 Q561 -185 587.5 -212.5 Q614 -240 682 -240 Q725 -240 760 -227 L739 -367 Z M672 598 Q672 642 662 680 Q652 718 632 745.5 Q612 773 580.5 789 Q549 805 506 805 Q428 805 375 754.5 Q322 704 287 598 L672 598 Z " />
<glyph glyph-name="Nacute" unicode="&#x143;" horiz-adv-x="1409" d="M1389 1397 L1192 0 L1092 0 L397 1020 L254 0 L80 0 L276 1397 L371 1397 L1069 369 L1214 1397 L1389 1397 Z M895 1818 L1102 1818 L870 1519 L756 1519 L895 1818 Z " />
<glyph glyph-name="nacute" unicode="&#x144;" horiz-adv-x="961" d="M365 920 L342 758 L346 754 Q493 934 651 934 Q758 934 817 855.5 Q876 777 876 653 Q876 618 870 580 L782 0 L610 0 L694 586 Q699 617 699 643 Q699 715 669 753 Q639 791 594 791 Q568 791 535.5 778 Q503 765 466 738 Q429 711 374.5 656 Q320 601 317 586 L233 0 L61 0 L190 920 L365 920 Z M631 1372 L838 1372 L606 1073 L492 1073 L631 1372 Z " />
<glyph glyph-name="Sacute" unicode="&#x15a;" horiz-adv-x="938" d="M899 1360 L872 1169 Q760 1243 627 1243 Q515 1243 448 1185 Q381 1127 381 1032 Q381 985 413 933 Q445 881 600 756.5 Q755 632 804.5 538 Q854 444 854 350 Q854 200 741 91 Q628 -18 440 -18 Q273 -18 102 82 L131 287 Q322 154 459 154 Q533 154 599.5 202.5 Q666 251 666 334 Q666 387 632.5 444 Q599 501 443.5 628 Q288 755 240.5 848.5 Q193 942 193 1034 Q193 1196 327 1305.5 Q461 1415 643 1415 Q770 1415 899 1360 Z M662 1818 L869 1818 L637 1519 L523 1519 L662 1818 Z " />
<glyph glyph-name="sacute" unicode="&#x15b;" horiz-adv-x="725" d="M662 852 L662 670 Q503 791 385 791 Q332 791 296 762.5 Q260 734 260 694 Q260 668 282.5 638.5 Q305 609 424.5 529 Q544 449 585.5 382 Q627 315 627 246 Q627 125 546.5 48 Q466 -29 342 -29 Q189 -29 23 92 L53 260 Q225 123 336 123 Q388 123 421.5 152 Q455 181 455 225 Q455 258 430.5 292.5 Q406 327 288 409 Q170 491 132 555 Q94 619 94 684 Q94 803 173 875.5 Q252 948 383 948 Q521 948 662 852 Z M424 1372 L631 1372 L399 1073 L285 1073 L424 1372 Z " />
<glyph glyph-name="Zacute" unicode="&#x179;" horiz-adv-x="1194" d="M1325 1397 L307 174 L1135 174 L1110 0 L-66 0 L948 1223 L154 1223 L178 1397 L1325 1397 Z M760 1818 L967 1818 L735 1519 L621 1519 L760 1818 Z " />
<glyph glyph-name="zacute" unicode="&#x17a;" horiz-adv-x="938" d="M915 920 L305 154 L840 154 L807 0 L-27 0 L573 766 L109 766 L129 920 L915 920 Z M529 1372 L736 1372 L504 1073 L390 1073 L529 1372 Z " />
<glyph glyph-name="Zdotaccent" unicode="&#x17b;" horiz-adv-x="1194" d="M1325 1397 L307 174 L1135 174 L1110 0 L-66 0 L948 1223 L154 1223 L178 1397 L1325 1397 Z M655 1685 Q655 1734 690 1769 Q725 1804 774 1804 Q822 1804 857 1769 Q892 1734 892 1685 Q892 1636 857 1601 Q822 1566 774 1566 Q725 1566 690 1601 Q655 1636 655 1685 Z " />
<glyph glyph-name="zdotaccent" unicode="&#x17c;" horiz-adv-x="938" d="M915 920 L305 154 L840 154 L807 0 L-27 0 L573 766 L109 766 L129 920 L915 920 Z M436 1239 Q436 1288 471 1323 Q506 1358 555 1358 Q603 1358 638 1323 Q673 1288 673 1239 Q673 1190 638 1155 Q603 1120 555 1120 Q506 1120 471 1155 Q436 1190 436 1239 Z " />
<glyph glyph-name="uni20B4" unicode="&#x20b4;" horiz-adv-x="1067" d="M360 1360 Q400 1375 439.5 1385.5 Q479 1396 515 1402.5 Q551 1409 581 1412 Q611 1415 633 1415 Q706 1415 770.5 1395 Q835 1375 883 1338 Q931 1301 959 1247.5 Q987 1194 987 1128 Q987 1062 968.5 1007 Q950 952 918 901 L1026 901 L997 754 L780 754 Q746 725 704 697.5 Q662 670 625 645 L979 645 L950 498 L430 498 Q373 450 338 398.5 Q303 347 303 287 Q303 251 322.5 225.5 Q342 200 370.5 184 Q399 168 430 161 Q461 154 485 154 Q516 154 552.5 160 Q589 166 633 181.5 Q677 197 731 222.5 Q785 248 852 287 L821 82 Q715 28 619.5 5 Q524 -18 455 -18 Q370 -18 305.5 4.5 Q241 27 198.5 64.5 Q156 102 134.5 151 Q113 200 113 252 Q113 324 133 384 Q153 444 190 498 L76 498 L104 645 L330 645 Q365 674 408 701 Q451 728 489 754 L123 754 L152 901 L684 901 Q735 944 765 990.5 Q795 1037 795 1094 Q795 1163 744.5 1203 Q694 1243 600 1243 Q535 1243 472 1227 Q409 1211 332 1169 L360 1360 Z " />
<glyph glyph-name="afii61352" unicode="&#x2116;" horiz-adv-x="2228" d="M1208 1178 Q1215 1229 1236 1277 Q1257 1325 1295 1361.5 Q1333 1398 1390 1420 Q1447 1442 1526 1442 L1683 1442 L1659 1262 L1538 1262 Q1468 1262 1433.5 1226.5 Q1399 1191 1389 1108 L1233 0 L1135 0 L387 1047 L238 0 L49 0 L244 1403 L352 1403 L1096 324 L1208 1178 Z M1868 881 Q1820 881 1780 861.5 Q1740 842 1712 808.5 Q1684 775 1668.5 731 Q1653 687 1653 637 Q1653 608 1662 578.5 Q1671 549 1691.5 525 Q1712 501 1745.5 486 Q1779 471 1827 471 Q1863 471 1901.5 485 Q1940 499 1972.5 526.5 Q2005 554 2025.5 595.5 Q2046 637 2046 692 Q2046 730 2037 764 Q2028 798 2007 824 Q1986 850 1952 865.5 Q1918 881 1868 881 Z M1888 1010 Q1952 1010 2006 987 Q2060 964 2099.5 924.5 Q2139 885 2161 832 Q2183 779 2183 719 Q2183 655 2166.5 602.5 Q2150 550 2122 508.5 Q2094 467 2057 436.5 Q2020 406 1978.5 386 Q1937 366 1894 356 Q1851 346 1810 346 Q1747 346 1692.5 367 Q1638 388 1598.5 425.5 Q1559 463 1536 514 Q1513 565 1513 625 Q1513 703 1539.5 773 Q1566 843 1615 895.5 Q1664 948 1733.5 979 Q1803 1010 1888 1010 Z M1477 244 L2111 244 L2097 137 L1462 137 L1477 244 Z " />
</font>
</svg>
